<?xml version="1.0" standalone="no"?>
<!DOCTYPE svg PUBLIC "-//W3C//DTD SVG 1.1//EN" "http://www.w3.org/Graphics/SVG/1.1/DTD/svg11.dtd" >
<svg xmlns="http://www.w3.org/2000/svg" xmlns:xlink="http://www.w3.org/1999/xlink" version="1.1">
<metadata>
Created by FontForge 20201107 at Thu Oct 21 16:41:52 2021
 By 
(c) 2010 - 2020 Adobe Systems Incorporated (http://www.adobe.com/), with Reserved Font Name `Source'.
</metadata>
<defs>
<font id="SourceCodePro-Bold" horiz-adv-x="600" >
  <font-face 
    font-family="Source Code Pro"
    font-weight="700"
    font-stretch="normal"
    units-per-em="1000"
    panose-1="2 11 3 9 3 4 3 2 2 4"
    ascent="800"
    descent="-200"
    x-height="496"
    cap-height="652"
    bbox="-208 -454 808 1060"
    underline-thickness="50"
    underline-position="-100"
    unicode-range="U+0020-1F916"
  />
<missing-glyph 
d="M35 0v660h530v-660h-530zM218 91h164l-40 77l-40 98h-4l-41 -98zM133 155l95 185l-95 186v-371zM298 414h4l43 95l31 59h-152l31 -59zM372 340l94 -185v371z" />
    <glyph glyph-name=".notdef" 
d="M35 0v660h530v-660h-530zM218 91h164l-40 77l-40 98h-4l-41 -98zM133 155l95 185l-95 186v-371zM298 414h4l43 95l31 59h-152l31 -59zM372 340l94 -185v371z" />
    <glyph glyph-name=".null" horiz-adv-x="0" 
 />
    <glyph glyph-name="nonmarkingreturn" 
 />
    <glyph glyph-name="space" unicode=" " 
 />
    <glyph glyph-name="exclam" unicode="!" 
d="M252 255l-20 282l-5 133h146l-5 -133l-20 -282h-96zM300 -12q-43 0 -71.5 28.5t-28.5 73.5q0 44 28.5 72t71.5 28t71.5 -28t28.5 -72q0 -45 -28.5 -73.5t-71.5 -28.5z" />
    <glyph glyph-name="quotedbl" unicode="&#x22;" 
d="M122 303l-35 237l-5 145h170l-5 -145l-35 -237h-90zM388 303l-35 237l-5 145h170l-5 -145l-35 -237h-90z" />
    <glyph glyph-name="numbersign" unicode="#" 
d="M311 0l80 650h84l-79 -650h-85zM122 0l80 650h84l-79 -650h-85zM90 391v94h444v-94h-444zM70 187v94h444v-94h-444z" />
    <glyph glyph-name="dollar" unicode="$" 
d="M64 115l64 100q48 -29 91 -45.5t90 -16.5q36 0 55 12t19 33t-21.5 35.5t-54.5 27t-70.5 26.5t-70.5 35t-54 52t-21 77q0 51 27 88.5t76.5 58t116.5 20.5q69 0 117 -24t85 -61l-73 -84q-35 25 -66.5 37.5t-72.5 12.5q-33 0 -51 -12t-18 -34q0 -17 21 -30t54 -24.5
t70.5 -26t70.5 -35.5t54 -51.5t21 -76.5q0 -50 -27 -89.5t-79.5 -62.5t-129.5 -23q-35 0 -75.5 10t-79 28t-68.5 43zM255 572v173h98v-173h-98zM255 94h98v-204h-98v204z" />
    <glyph glyph-name="percent" unicode="%" 
d="M173 312q-42 0 -76 20.5t-53 59t-19 89.5q0 78 42.5 122.5t105.5 44.5q64 0 106 -44.5t42 -122.5q0 -51 -19 -89.5t-53 -59t-76 -20.5zM173 391q19 0 33.5 19.5t14.5 70.5t-14.5 69.5t-33.5 18.5q-18 0 -33 -18.5t-15 -69.5t15 -70.5t33 -19.5zM93 28l-75 73l186 173
l51 -47zM398 377l-51 48l162 199l75 -73zM427 -12q-42 0 -76 20.5t-53 59t-19 89.5q0 78 42.5 122.5t105.5 44.5q64 0 106 -44.5t42 -122.5q0 -51 -19 -89.5t-53 -59t-76 -20.5zM427 67q19 0 33.5 19.5t14.5 70.5t-14.5 69.5t-33.5 18.5q-18 0 -33 -18.5t-15 -69.5t15 -70.5
t33 -19.5z" />
    <glyph glyph-name="ampersand" unicode="&#x26;" 
d="M232 -12q-68 0 -114.5 25.5t-70.5 68t-24 92.5q0 51 19.5 87t50 63t64.5 49t64.5 43t50 45t19.5 55q0 23 -9 37t-32 14q-19 0 -31 -19.5t-12 -53.5q0 -39 22.5 -83t59.5 -88.5t83 -84t92 -69.5q33 -23 64 -39.5t58 -22.5l-35 -119q-43 11 -86 33t-89 55q-57 41 -110 93.5
t-93.5 110t-63.5 113t-23 100.5q0 47 19.5 85.5t55.5 62t86 23.5q73 0 115 -40t42 -108q0 -40 -17.5 -71.5t-45 -58t-58.5 -50t-58.5 -46.5t-45 -49t-17.5 -58q0 -25 11.5 -43.5t31 -29t46.5 -10.5q29 0 56.5 18.5t54.5 47.5q31 38 54 89t36 113h134q-19 -73 -49 -140
t-74 -128q-42 -50 -99 -81t-132 -31z" />
    <glyph glyph-name="quotesingle" unicode="'" 
d="M255 303l-35 237l-5 145h170l-5 -145l-35 -237h-90z" />
    <glyph glyph-name="parenleft" unicode="(" 
d="M392 -179q-97 87 -154 201.5t-57 255.5t57 256t154 201l82 -65q-90 -87 -130 -180t-40 -212q0 -118 40 -211.5t130 -180.5z" />
    <glyph glyph-name="parenright" unicode=")" 
d="M208 -179l-82 65q90 87 130 180.5t40 211.5q0 119 -40 212t-130 180l82 65q97 -86 154 -201t57 -256t-57 -255.5t-154 -201.5z" />
    <glyph glyph-name="asterisk" unicode="*" 
d="M184 91l-64 44l97 157l-153 68l23 71l162 -43l12 178h78l12 -178l162 43l23 -71l-153 -68l97 -157l-64 -44l-116 142z" />
    <glyph glyph-name="plus" unicode="+" 
d="M246 94v184h-176v104h176v184h108v-184h176v-104h-176v-184h-108z" />
    <glyph glyph-name="comma" unicode="," 
d="M219 -217l-37 86q67 23 99.5 60t30.5 85l-5 119l60 -100q-14 -12 -30.5 -17.5t-35.5 -5.5q-28 0 -53 12t-40 34.5t-15 55.5q0 46 33 74.5t79 28.5q62 0 93 -45.5t31 -126.5q0 -95 -53.5 -161.5t-156.5 -98.5z" />
    <glyph glyph-name="hyphen" unicode="-" 
d="M70 278v104h460v-104h-460z" />
    <glyph glyph-name="period" unicode="." 
d="M300 -12q-51 0 -83.5 34t-32.5 83t32.5 83.5t83.5 34.5q52 0 84 -34.5t32 -83.5t-32 -83t-84 -34z" />
    <glyph glyph-name="slash" unicode="/" 
d="M74 -160l329 870h123l-329 -870h-123z" />
    <glyph glyph-name="zero" unicode="0" 
d="M300 -12q-73 0 -128 38.5t-85.5 112.5t-30.5 181q0 163 67 245t177 82q111 0 177.5 -82t66.5 -245q0 -107 -30.5 -181t-85 -112.5t-128.5 -38.5zM300 102q32 0 57.5 20t40.5 68t15 130q0 83 -15 129.5t-40.5 65t-57.5 18.5q-31 0 -57 -18.5t-41 -65t-15 -129.5
q0 -82 15 -130t41 -68t57 -20zM300 246q-31 0 -53 21t-22 55q0 35 22 55.5t53 20.5q32 0 53.5 -20.5t21.5 -55.5q0 -34 -21.5 -55t-53.5 -21z" />
    <glyph glyph-name="one" unicode="1" 
d="M79 0v119h171v367h-141v91q43 7 74.5 14.5t56.5 18t49 25.5h108v-516h144v-119h-462z" />
    <glyph glyph-name="two" unicode="2" 
d="M58 0v84q91 77 159.5 139.5t106.5 115t38 97.5q0 47 -27.5 71.5t-76.5 24.5q-38 0 -69.5 -19.5t-58.5 -45.5l-79 79q49 51 101.5 76t125.5 25q66 0 116.5 -25t79 -70.5t28.5 -106.5q0 -54 -32.5 -109t-86 -110.5t-114.5 -109.5q27 3 59 5.5t56 2.5h151v-124h-477z" />
    <glyph glyph-name="three" unicode="3" 
d="M279 -12q-54 0 -98.5 11.5t-79.5 31.5t-59 47l68 93q32 -28 72 -46t83 -18q34 0 61 8.5t42.5 25.5t15.5 41q0 28 -17 48.5t-58.5 31.5t-116.5 11v104q63 0 100 11t54 30t17 44q0 34 -25 52t-69 18q-37 0 -69.5 -14.5t-65.5 -41.5l-74 90q47 38 101 59.5t115 21.5
q69 0 122 -20.5t82.5 -59t29.5 -94.5q0 -49 -32 -84t-89 -57v-4q40 -11 72.5 -31.5t51 -51.5t18.5 -72q0 -59 -35 -100.5t-92 -63t-125 -21.5z" />
    <glyph glyph-name="four" unicode="4" 
d="M341 0v371q0 30 2 69.5t3 69.5h-4q-16 -26 -34.5 -53t-34.5 -55l-96 -138h381v-112h-523v101l265 382h178v-635h-137z" />
    <glyph glyph-name="five" unicode="5" 
d="M283 -12q-55 0 -99 12t-78 32t-60 45l66 93q21 -17 44 -31.5t49.5 -23t56.5 -8.5q36 0 64 11.5t43.5 33.5t15.5 54q0 48 -33 73t-83 25q-31 0 -52.5 -7t-54.5 -25l-65 42l17 321h389v-124h-262l-11 -119q23 8 41.5 11.5t42.5 3.5q59 0 108.5 -21t79.5 -65t30 -111
q0 -71 -35 -120.5t-92 -75.5t-122 -26z" />
    <glyph glyph-name="six" unicode="6" 
d="M317 -12q-49 0 -95 18t-82.5 56t-58 97.5t-21.5 143.5q0 89 23 154t61.5 107t87.5 62.5t102 20.5q67 0 118.5 -22.5t83.5 -53.5l-77 -88q-20 18 -50 31.5t-62 13.5q-41 0 -75.5 -21t-55.5 -70.5t-21 -133.5q0 -79 17 -123.5t44.5 -63t57.5 -18.5q26 0 48 11t35.5 33.5
t13.5 58.5q0 49 -26 70.5t-68 21.5q-28 0 -59.5 -15t-62.5 -53l-6 96q35 37 79 56.5t81 19.5q55 0 99.5 -21t70.5 -64.5t26 -110.5q0 -66 -31.5 -114t-83 -73.5t-113.5 -25.5z" />
    <glyph glyph-name="seven" unicode="7" 
d="M193 0q4 79 15.5 146t33 126.5t55.5 118t84 120.5h-319v124h477v-90q-60 -67 -97 -126t-57.5 -120t-30 -133.5t-13.5 -165.5h-148z" />
    <glyph glyph-name="eight" unicode="8" 
d="M299 -12q-73 0 -127 22t-82.5 61.5t-28.5 90.5q0 39 16.5 68t43.5 50.5t60 37.5v4q-40 28 -66.5 64t-26.5 86q0 54 27.5 93.5t76.5 60.5t112 21q95 0 151.5 -47.5t56.5 -126.5q0 -44 -27 -79.5t-64 -59.5v-4q34 -16 61 -38.5t42.5 -53.5t15.5 -74q0 -50 -28 -89.5
t-81.5 -63t-131.5 -23.5zM343 370q48 44 48 93q0 25 -10.5 43t-30.5 28.5t-49 10.5q-35 0 -59.5 -18.5t-24.5 -54.5q0 -26 16 -44t44.5 -32t65.5 -26zM303 90q45 0 72.5 19.5t27.5 59.5q0 21 -11 37t-31.5 28t-48.5 22.5t-62 23.5q-18 -13 -32 -28.5t-22 -34t-8 -38.5
q0 -28 15 -48t41 -30.5t59 -10.5z" />
    <glyph glyph-name="nine" unicode="9" 
d="M265 -12q-68 0 -119 23t-84 53l78 88q20 -18 50 -31.5t62 -13.5q41 0 75.5 21t55.5 70.5t21 133.5q0 79 -17 123.5t-44.5 63t-58.5 18.5q-25 0 -47 -11t-36 -33t-14 -59q0 -48 26 -70t69 -22q29 0 60.5 15.5t60.5 52.5l7 -96q-35 -35 -79 -55.5t-81 -20.5q-55 0 -100 21
t-71 64.5t-26 110.5q0 66 32 114t84 73.5t112 25.5q50 0 95.5 -18t82.5 -56t58 -97.5t21 -143.5q0 -89 -22.5 -154t-61 -107t-88 -62.5t-101.5 -20.5z" />
    <glyph glyph-name="colon" unicode=":" 
d="M300 311q-51 0 -83.5 34t-32.5 83t32.5 83.5t83.5 34.5q52 0 84 -34.5t32 -83.5t-32 -83t-84 -34zM300 -12q-51 0 -83.5 34t-32.5 83t32.5 83.5t83.5 34.5q52 0 84 -34.5t32 -83.5t-32 -83t-84 -34z" />
    <glyph glyph-name="semicolon" unicode=";" 
d="M300 311q-51 0 -83.5 34t-32.5 83t32.5 83.5t83.5 34.5q52 0 84 -34.5t32 -83.5t-32 -83t-84 -34zM219 -217l-37 86q67 23 99.5 60t30.5 85l-5 119l60 -100q-14 -12 -30.5 -17.5t-35.5 -5.5q-28 0 -53 12t-40 34.5t-15 55.5q0 46 33 74.5t79 28.5q62 0 93 -45.5
t31 -126.5q0 -95 -53.5 -161.5t-156.5 -98.5z" />
    <glyph glyph-name="less" unicode="&#x3c;" 
d="M502 31l-386 250v102l386 250v-133l-265 -166v-4l265 -166v-133z" />
    <glyph glyph-name="equal" unicode="=" 
d="M70 394v104h460v-104h-460zM70 162v104h460v-104h-460z" />
    <glyph glyph-name="greater" unicode="&#x3e;" 
d="M98 31v133l265 166v4l-265 166v133l386 -250v-102z" />
    <glyph glyph-name="question" unicode="?" 
d="M218 255q-7 40 5 70t33.5 53t45 42.5t39 38.5t15.5 41q0 31 -21 47t-53 16q-31 0 -55 -12.5t-47 -33.5l-82 75q36 40 85.5 65t108.5 25q58 0 104 -18t73.5 -54t27.5 -91q0 -40 -16 -67.5t-40 -49.5t-47 -42t-37.5 -45t-10.5 -60h-128zM286 -12q-43 0 -71.5 28.5
t-28.5 73.5q0 44 28.5 72t71.5 28t71.5 -28t28.5 -72q0 -45 -28.5 -73.5t-71.5 -28.5z" />
    <glyph glyph-name="at" unicode="@" 
d="M339 -147q-60 0 -115.5 24.5t-99 73.5t-68.5 124.5t-25 177.5q0 136 41 222.5t109.5 127.5t149.5 41q77 0 125 -32.5t71 -87.5t23 -125v-299h-78l-11 51h-4q-19 -27 -49 -45t-71 -18q-36 0 -65 19t-45.5 51t-16.5 70q0 54 30.5 88.5t86.5 54.5t132 29v16q0 37 -14.5 69
t-43 51.5t-73.5 19.5q-35 0 -69.5 -17t-63.5 -54t-46 -95t-17 -141q0 -104 30.5 -172t79 -101.5t102.5 -33.5q45 0 74.5 10.5t58.5 27.5l42 -73q-42 -24 -84.5 -39t-95.5 -15zM370 184q22 0 39.5 10t34.5 26v92q-70 -11 -98.5 -28.5t-28.5 -51.5q0 -22 14 -35t39 -13z" />
    <glyph glyph-name="A" unicode="A" 
d="M9 0l203 652h176l203 -652h-156l-84 330q-12 49 -26 104t-26 106h-4q-12 -51 -25 -106t-26 -104l-85 -330h-150zM143 155v115h312v-115h-312z" />
    <glyph glyph-name="B" unicode="B" 
d="M74 0v652h219q68 0 122 -14.5t85.5 -49.5t31.5 -98q0 -44 -27 -85t-85 -56v-4q70 -12 106 -49.5t36 -103.5t-33 -108.5t-89.5 -63t-127.5 -20.5h-238zM221 390h65q54 0 78 21.5t24 58.5q0 36 -24.5 51.5t-76.5 15.5h-66v-147zM221 115h79q60 0 89 22t29 66q0 43 -29 62
t-89 19h-79v-169z" />
    <glyph glyph-name="C" unicode="C" 
d="M356 -12q-61 0 -115.5 21t-96.5 63.5t-66 105t-24 144.5q0 108 41.5 184.5t112 117t157.5 40.5q62 0 112 -25.5t83 -57.5l-81 -91q-23 22 -50.5 34.5t-63.5 12.5q-46 0 -82 -25.5t-57 -72.5t-21 -112q0 -67 21 -114.5t58.5 -72.5t86.5 -25q36 0 65 16t53 42l81 -89
q-40 -47 -94 -71.5t-120 -24.5z" />
    <glyph glyph-name="D" unicode="D" 
d="M70 0v652h180q95 0 165.5 -34t109.5 -105.5t39 -183.5t-38.5 -185t-107.5 -108.5t-159 -35.5h-189zM218 119h24q52 0 90 20t59.5 66t21.5 124t-21.5 122.5t-59.5 63t-90 18.5h-24v-414z" />
    <glyph glyph-name="E" unicode="E" 
d="M92 0v652h432v-124h-284v-131h241v-123h-241v-150h294v-124h-442z" />
    <glyph glyph-name="F" unicode="F" 
d="M105 0v652h433v-124h-286v-151h244v-124h-244v-253h-147z" />
    <glyph glyph-name="G" unicode="G" 
d="M343 -12q-83 0 -151 37.5t-108 112t-40 184.5q0 109 40 185.5t108.5 116.5t152.5 40q66 0 113 -25.5t78 -57.5l-81 -91q-21 21 -46 34t-64 13q-42 0 -76 -25.5t-53.5 -72.5t-19.5 -112q0 -67 17 -114.5t52 -72.5t86 -25q19 0 36.5 5t27.5 15v112h-95v120h227v-300
q-33 -31 -87.5 -55t-116.5 -24z" />
    <glyph glyph-name="H" unicode="H" 
d="M64 0v652h147v-252h178v252h147v-652h-147v272h-178v-272h-147z" />
    <glyph glyph-name="I" unicode="I" 
d="M74 0v124h152v404h-152v124h452v-124h-152v-404h152v-124h-452z" />
    <glyph glyph-name="J" unicode="J" 
d="M273 -12q-54 0 -112.5 24t-101.5 84l85 91q28 -35 60 -53.5t64 -18.5q50 0 75.5 26t25.5 93v295h-255v123h402v-430q0 -64 -23.5 -117t-76 -85t-143.5 -32z" />
    <glyph glyph-name="K" unicode="K" 
d="M68 0v652h149v-267h3l193 267h163l-359 -474v-178h-149zM431 0l-152 303l87 115l228 -418h-163z" />
    <glyph glyph-name="L" unicode="L" 
d="M107 0v652h147v-528h290v-124h-437z" />
    <glyph glyph-name="M" unicode="M" 
d="M58 0v652h154l64 -231l22 -90h4l22 90l64 231h154v-652h-124v202q0 27 2 67.5t5 84.5t6.5 84t5.5 66h-3l-50 -174l-50 -157h-72l-51 157l-47 174h-3q2 -26 5.5 -66t6.5 -84t5 -84.5t2 -67.5v-202h-122z" />
    <glyph glyph-name="N" unicode="N" 
d="M66 0v652h151l137 -324l56 -144h4q-5 52 -13 116t-8 121v231h141v-652h-151l-137 325l-56 142h-4q5 -53 13 -115.5t8 -120.5v-231h-141z" />
    <glyph glyph-name="O" unicode="O" 
d="M300 -12q-78 0 -137 39t-92 114.5t-33 187.5q0 109 33 183.5t92 113t137 38.5t137 -38.5t92 -113t33 -183.5q0 -112 -33 -187.5t-92 -114.5t-137 -39zM300 115q34 0 59 24.5t38.5 72t13.5 117.5q0 68 -13.5 114t-38.5 70t-59 24t-59 -24t-38.5 -70t-13.5 -114
q0 -70 13.5 -117.5t38.5 -72t59 -24.5z" />
    <glyph glyph-name="P" unicode="P" 
d="M75 0v652h231q71 0 128.5 -19.5t92 -65.5t34.5 -125q0 -76 -35 -125t-93 -72.5t-127 -23.5h-84v-221h-147zM222 338h75q61 0 90.5 27t29.5 77q0 52 -30.5 72.5t-89.5 20.5h-75v-197z" />
    <glyph glyph-name="Q" unicode="Q" 
d="M300 -12q-78 0 -137 39t-92 114.5t-33 187.5q0 109 33 183.5t92 113t137 38.5t137 -38.5t92 -113t33 -183.5q0 -112 -33 -187.5t-92 -114.5t-137 -39zM300 108q34 0 59 24t38.5 72.5t13.5 124.5q0 68 -13.5 114t-38.5 70t-59 24t-59 -24t-38.5 -70t-13.5 -114
q0 -76 13.5 -124.5t38.5 -72.5t59 -24zM487 -178q-97 0 -162.5 51t-95.5 131l149 15q10 -30 29.5 -47.5t45 -24.5t52.5 -7q15 0 28.5 4t23.5 9l26 -110q-16 -9 -40 -15t-56 -6z" />
    <glyph glyph-name="R" unicode="R" 
d="M70 0v652h231q69 0 126 -18.5t91.5 -63t34.5 -121.5q0 -75 -34.5 -122t-91.5 -69.5t-126 -22.5h-84v-235h-147zM217 352h72q58 0 88.5 24.5t30.5 72.5t-30.5 67t-88.5 19h-72v-183zM274 273l102 95l208 -368h-165z" />
    <glyph glyph-name="S" unicode="S" 
d="M298 -12q-66 0 -130.5 24t-117.5 70l85 101q37 -30 81.5 -49t91.5 -19t69.5 16t22.5 41q0 23 -12 36.5t-35 24t-54 23.5l-84 36q-36 14 -68 37.5t-51.5 58t-19.5 82.5q0 54 30.5 97.5t84 70t124.5 26.5q59 0 116 -22t101 -64l-75 -93q-34 25 -68 38.5t-82 13.5
q-36 0 -59 -15t-23 -44q0 -19 14 -32t38 -23t55 -22l79 -34q44 -16 75 -39.5t48 -57.5t17 -80q0 -54 -29.5 -100t-86 -74t-137.5 -28z" />
    <glyph glyph-name="T" unicode="T" 
d="M226 0v528h-195v124h538v-124h-195v-528h-148z" />
    <glyph glyph-name="U" unicode="U" 
d="M302 -12q-60 0 -104.5 17.5t-74 51t-44.5 82t-15 112.5v401h147v-416q0 -39 10 -66t30 -41t51 -14t51.5 14t30.5 41t10 66v416h142v-401q0 -64 -14 -112.5t-43.5 -82t-73.5 -51t-103 -17.5z" />
    <glyph glyph-name="V" unicode="V" 
d="M212 0l-197 652h156l78 -304q15 -54 26.5 -104.5t25.5 -104.5h4q16 54 27.5 104.5t25.5 104.5l77 304h150l-196 -652h-177z" />
    <glyph glyph-name="W" unicode="W" 
d="M91 0l-87 652h153l20 -347q0 -28 1 -54.5t1.5 -53t0.5 -56.5h4q4 30 9.5 56.5t11.5 53.5t11 54l44 182h94l41 -182q6 -27 11 -53t11 -53.5t10 -57.5h4q1 30 1.5 57.5t1 53.5t1.5 53l18 347h143l-80 -652h-158l-38 202q-6 31 -11 63t-7 61h-3q-3 -29 -7 -61t-10 -63
l-38 -202h-153z" />
    <glyph glyph-name="X" unicode="X" 
d="M18 0l190 335l-179 317h165l63 -123q11 -22 23 -48t27 -57h4q11 31 22 57t22 48l58 123h158l-179 -324l190 -328h-164l-71 133q-13 26 -25.5 51.5t-26.5 55.5h-4q-12 -30 -24 -55.5t-24 -51.5l-68 -133h-157z" />
    <glyph glyph-name="Y" unicode="Y" 
d="M226 0v220l-210 432h158l66 -157q15 -37 29.5 -73.5t29.5 -75.5h4q16 39 31.5 75.5t29.5 73.5l66 157h154l-210 -432v-220h-148z" />
    <glyph glyph-name="Z" unicode="Z" 
d="M56 0v89l305 440h-276v123h458v-89l-305 -439h309v-124h-491z" />
    <glyph glyph-name="bracketleft" unicode="[" 
d="M200 -152v860h296v-78h-184v-704h184v-78h-296z" />
    <glyph glyph-name="backslash" unicode="\" 
d="M403 -160l-329 870h123l329 -870h-123z" />
    <glyph glyph-name="bracketright" unicode="]" 
d="M104 -152v78h184v704h-184v78h296v-860h-296z" />
    <glyph glyph-name="asciicircum" unicode="^" 
d="M86 274l155 396h118l155 -396h-121l-46 128l-45 135h-4l-45 -135l-46 -128h-121z" />
    <glyph glyph-name="underscore" unicode="_" 
d="M60 -164v110h480v-110h-480z" />
    <glyph glyph-name="grave" unicode="`" 
d="M306 561l-181 156l100 98l153 -182z" />
    <glyph glyph-name="a" unicode="a" 
d="M224 -12q-50 0 -86.5 20t-56.5 54t-20 76q0 83 75.5 127t251.5 54q-3 23 -15 39t-34.5 24.5t-56.5 8.5q-24 0 -48 -5.5t-49.5 -16t-53.5 -24.5l-52 96q34 20 71.5 35t78 23.5t82.5 8.5q70 0 120 -24.5t77 -74t27 -125.5v-284h-120l-11 56h-4q-37 -28 -82 -48t-94 -20z
M271 102q33 0 62 13.5t55 33.5v82q-73 -4 -113.5 -15t-56.5 -28t-16 -39q0 -15 8.5 -26t24 -16t36.5 -5z" />
    <glyph glyph-name="b" unicode="b" 
d="M338 -12q-34 0 -69.5 17t-65.5 49h-4l-12 -54h-115v701h147v-172l-5 -78h3q29 27 64.5 42t71.5 15q63 0 107.5 -31t68.5 -87.5t24 -132.5q0 -85 -30.5 -145.5t-79.5 -92t-105 -31.5zM305 108q27 0 49 15t35 47.5t13 83.5q0 45 -10 74.5t-29.5 44.5t-51.5 15
q-24 0 -46.5 -10.5t-45.5 -35.5v-201q21 -17 43.5 -25t42.5 -8z" />
    <glyph glyph-name="c" unicode="c" 
d="M343 -12q-78 0 -140.5 30.5t-99 89t-36.5 140.5t40 140.5t105.5 89t141.5 30.5q59 0 107 -18.5t79 -48.5l-68 -91q-29 20 -55.5 29.5t-54.5 9.5q-42 0 -75 -17t-51 -49t-18 -75t17.5 -75t49 -49t72.5 -17q39 0 71.5 14t59.5 33l59 -93q-44 -37 -98.5 -55t-105.5 -18z" />
    <glyph glyph-name="d" unicode="d" 
d="M256 -12q-94 0 -151.5 69.5t-57.5 190.5q0 81 30.5 139t79.5 89.5t102 31.5q41 0 71 -14t54 -39h4l-7 77v169h147v-701h-120l-11 51h-3q-27 -27 -63.5 -45t-74.5 -18zM294 108q25 0 46.5 10.5t40.5 35.5v201q-20 18 -40.5 25.5t-42.5 7.5q-27 0 -50 -15t-36.5 -45.5
t-13.5 -77.5q0 -73 25 -107.5t71 -34.5z" />
    <glyph glyph-name="e" unicode="e" 
d="M330 -12q-77 0 -139.5 30.5t-99 89t-36.5 140.5q0 81 37 139.5t96 89.5t125 31q77 0 129 -31.5t78.5 -85t26.5 -121.5q0 -20 -2.5 -38.5t-4.5 -27.5h-376v99h277l-23 -28q0 60 -25.5 90.5t-74.5 30.5q-36 0 -63 -16t-42 -49t-15 -83q0 -51 18 -83.5t52 -48.5t82 -16
q34 0 64.5 9t63.5 26l49 -89q-43 -27 -95 -42.5t-102 -15.5z" />
    <glyph glyph-name="f" unicode="f" 
d="M213 0v509q0 57 23.5 103.5t72 73.5t126.5 27q43 0 81 -8.5t69 -18.5l-28 -108q-24 9 -49.5 14t-54.5 5q-47 0 -70 -21t-23 -66v-510h-147zM82 381v109l136 6h313v-115h-449z" />
    <glyph glyph-name="g" unicode="g" 
d="M277 -211q-65 0 -115.5 13.5t-80 41.5t-29.5 72q0 30 19.5 55t57.5 44v4q-21 14 -35.5 34t-14.5 51q0 25 16.5 50t42.5 43v4q-27 18 -46 51t-19 76q0 60 29.5 100t78 60t104.5 20q46 0 82 -12h201v-108h-100q9 -11 15.5 -28.5t6.5 -36.5q0 -57 -27.5 -93.5t-73.5 -54.5
t-104 -18q-14 0 -32 2.5t-36 7.5q-12 -8 -17 -16t-5 -21q0 -19 20.5 -28t63.5 -9h92q98 0 149.5 -29t51.5 -96q0 -52 -36 -92.5t-102.5 -63.5t-156.5 -23zM285 246q21 0 38 9t27 27.5t10 45.5q0 26 -10 44t-27 27.5t-38 9.5q-20 0 -37 -9.5t-27 -27.5t-10 -44
q0 -27 10 -45.5t27 -27.5t37 -9zM298 -118q40 0 70 8t47 21.5t17 30.5q0 25 -22 31.5t-65 6.5h-62q-27 0 -44.5 2t-31.5 5q-19 -12 -27 -23.5t-8 -25.5q0 -27 34 -41.5t92 -14.5z" />
    <glyph glyph-name="h" unicode="h" 
d="M72 0v701h147v-172l-8 -95h3q28 29 68.5 51.5t96.5 22.5q84 0 122.5 -54t38.5 -148v-306h-147v287q0 50 -16.5 73t-56.5 23q-30 0 -52.5 -13.5t-48.5 -38.5v-331h-147z" />
    <glyph glyph-name="i" unicode="i" 
d="M278 0v381h-200v115h347v-496h-147zM345 574q-42 0 -70 24.5t-28 64.5q0 41 28 66.5t70 25.5q43 0 70.5 -25.5t27.5 -66.5q0 -40 -27.5 -64.5t-70.5 -24.5z" />
    <glyph glyph-name="j" unicode="j" 
d="M195 -196q-46 0 -83.5 9.5t-69.5 24.5l43 105q30 -13 54.5 -18.5t46.5 -5.5q36 0 56 11.5t28 34.5t8 59v357h-200v115h347v-466q0 -46 -11 -86.5t-37 -72t-70.5 -49.5t-111.5 -18zM345 574q-42 0 -70 24.5t-28 64.5q0 41 28 66.5t70 25.5q43 0 70.5 -25.5t27.5 -66.5
q0 -40 -27.5 -64.5t-70.5 -24.5z" />
    <glyph glyph-name="k" unicode="k" 
d="M76 0v701h147v-405h4l182 200h161l-347 -371v-125h-147zM426 0l-144 225l84 91l219 -316h-159z" />
    <glyph glyph-name="l" unicode="l" 
d="M395 -12q-93 0 -141 56t-48 150v391h-155v115h302v-512q0 -46 25 -63.5t55 -17.5q18 0 36.5 4t41.5 12l32 -108q-38 -12 -69.5 -19.5t-78.5 -7.5z" />
    <glyph glyph-name="m" unicode="m" 
d="M35 0v496h111l10 -61h4q14 30 39 51.5t68 21.5q32 0 55 -20.5t31 -60.5q14 34 40.5 57.5t69.5 23.5q53 0 82 -43t29 -117v-348h-140v338q0 45 -27 45q-14 0 -24.5 -11.5t-20.5 -36.5v-335h-115v338q0 23 -7 34t-21 11t-24 -11.5t-20 -36.5v-335h-140z" />
    <glyph glyph-name="n" unicode="n" 
d="M72 0v496h120l11 -66h4q32 32 73.5 55t97.5 23q84 0 123 -54t39 -148v-306h-147v287q0 50 -16.5 73t-56.5 23q-30 0 -52.5 -13.5t-48.5 -38.5v-331h-147z" />
    <glyph glyph-name="o" unicode="o" 
d="M300 -12q-65 0 -123 30.5t-94 89t-36 140.5t36 140.5t94 89t123 30.5t123 -30.5t94 -89t36 -140.5t-36 -140.5t-94 -89t-123 -30.5zM300 107q34 0 56.5 17t34 49t11.5 75t-11.5 75t-34 49t-56.5 17t-56.5 -17t-34 -49t-11.5 -75t11.5 -75t34 -49t56.5 -17z" />
    <glyph glyph-name="p" unicode="p" 
d="M72 -184v680h120l11 -50h3q31 27 69.5 44.5t78.5 17.5q62 0 106.5 -31t68.5 -88t24 -133q0 -85 -30.5 -145t-79.5 -91.5t-105 -31.5q-33 0 -64.5 14t-57.5 40h-4l7 -81v-145h-147zM304 108q28 0 50 15t35 47.5t13 83.5q0 45 -10 74.5t-29.5 44.5t-51.5 15
q-24 0 -46.5 -10.5t-45.5 -35.5v-201q21 -17 43.5 -25t41.5 -8z" />
    <glyph glyph-name="q" unicode="q" 
d="M381 -184v149l7 80h-4q-24 -25 -58.5 -41t-69.5 -16q-94 0 -151.5 69.5t-57.5 190.5q0 81 30.5 139t79.5 89.5t102 31.5q42 0 75 -15t63 -48h4l12 51h115v-680h-147zM294 108q25 0 46.5 10.5t40.5 35.5v201q-20 18 -40.5 25.5t-42.5 7.5q-27 0 -50 -15t-36.5 -45.5
t-13.5 -77.5q0 -73 25 -107.5t71 -34.5z" />
    <glyph glyph-name="r" unicode="r" 
d="M116 0v496h120l12 -108h3q37 61 89.5 90.5t111.5 29.5q33 0 53.5 -5t42.5 -15l-30 -123q-23 7 -41.5 10.5t-46.5 3.5q-46 0 -90.5 -27t-76.5 -94v-258h-147z" />
    <glyph glyph-name="s" unicode="s" 
d="M296 -12q-66 0 -131 22.5t-112 53.5l63 92q45 -29 95.5 -44t104.5 -15q41 0 60 12.5t19 29.5q0 11 -5.5 18.5t-19 14t-37 12.5t-60.5 14q-101 22 -145 60t-44 95q0 70 61 112.5t167 42.5q67 0 121.5 -21.5t93.5 -46.5l-66 -88q-37 23 -79 35t-83 12q-23 0 -38 -4.5
t-23 -14t-8 -20.5q0 -20 26 -29.5t89 -23.5q76 -17 119 -39t59.5 -50.5t16.5 -69.5q0 -45 -27.5 -81t-82 -57.5t-134.5 -21.5z" />
    <glyph glyph-name="t" unicode="t" 
d="M388 -12q-79 0 -125.5 27.5t-67.5 76.5t-21 114v175h-124v109l131 6l19 152h121v-152h210v-115h-210v-174q0 -37 11 -60t34 -33.5t59 -10.5q29 0 53 5t46 13l26 -106q-33 -10 -72.5 -18.5t-89.5 -8.5z" />
    <glyph glyph-name="u" unicode="u" 
d="M223 -12q-85 0 -123 54t-38 148v306h147v-287q0 -50 15.5 -73t56.5 -23q28 0 50 12t47 45v326h147v-496h-120l-11 71h-4q-33 -37 -73 -60t-94 -23z" />
    <glyph glyph-name="v" unicode="v" 
d="M218 0l-187 496h148l78 -234q12 -37 23 -75t22 -78h4q11 40 21.5 78t22.5 75l78 234h141l-182 -496h-169z" />
    <glyph glyph-name="w" unicode="w" 
d="M85 0l-81 496h142l31 -230q5 -36 8.5 -72.5t7.5 -74.5h3q5 38 10.5 75t12.5 72l31 164h107l32 -164q7 -36 13.5 -72.5t11.5 -74.5h4q5 38 7.5 74.5t6.5 72.5l28 230h136l-76 -496h-173l-27 161q-4 33 -8.5 69t-9.5 78h-4q-3 -31 -7 -65.5t-10 -81.5l-26 -161h-170z" />
    <glyph glyph-name="x" unicode="x" 
d="M37 0l172 258l-161 238h158l51 -80q12 -21 26 -42.5t26 -42.5h4q9 21 20.5 43t20.5 42l44 80h154l-162 -255l172 -241h-158l-57 82q-14 21 -28.5 43t-28.5 43h-4q-11 -21 -23 -42.5t-23 -43.5l-49 -82h-154z" />
    <glyph glyph-name="y" unicode="y" 
d="M143 -194q-22 0 -41 3t-35 7l26 112q10 -3 20 -4.5t19 -1.5q43 0 67.5 18.5t36.5 46.5l10 26l-215 483h146l83 -213q14 -35 26 -72.5t24 -76.5h4q10 37 22 75t23 74l73 213h139l-196 -501q-23 -62 -53.5 -104t-73 -63.5t-105.5 -21.5z" />
    <glyph glyph-name="z" unicode="z" 
d="M70 0v79l259 302h-228v115h432v-78l-260 -303h267v-115h-470z" />
    <glyph glyph-name="braceleft" unicode="{" 
d="M419 -152q-96 0 -141 31t-45 111q0 36 2.5 62.5t5 51.5t2.5 57q0 18 -12 34.5t-41.5 27.5t-83.5 12v86q54 1 83.5 12t41.5 27.5t12 34.5q0 31 -2.5 56.5t-5 52.5t-2.5 62q0 81 45 111.5t141 30.5h77v-78h-41q-41 0 -63 -6t-30.5 -21t-8.5 -43q0 -40 2.5 -79t2.5 -84
q0 -57 -23 -82.5t-77 -34.5v-4q54 -9 77 -34.5t23 -82.5q0 -45 -2.5 -84t-2.5 -79q0 -28 8.5 -43t30.5 -21t63 -6h41v-78h-77z" />
    <glyph glyph-name="bar" unicode="|" 
d="M235 -250v1000h130v-1000h-130z" />
    <glyph glyph-name="braceright" unicode="}" 
d="M105 -152v78h41q41 0 63 6t30 21t8 43q0 40 -2 79t-2 84q0 57 23 82.5t77 34.5v4q-54 9 -77 34.5t-23 82.5q0 45 2 84t2 79q0 28 -8 43t-30 21t-63 6h-41v78h77q96 0 141 -30.5t45 -111.5q0 -35 -2.5 -62t-5.5 -52.5t-3 -56.5q0 -18 12 -34.5t42 -27.5t84 -12v-86
q-54 -1 -84 -12t-42 -27.5t-12 -34.5q0 -32 3 -57t5.5 -51.5t2.5 -62.5q0 -80 -45 -111t-141 -31h-77z" />
    <glyph glyph-name="asciitilde" unicode="~" 
d="M385 240q-30 0 -54 11.5t-43 26.5t-37 26.5t-38 11.5q-14 0 -27 -9t-25 -27t-21 -46l-88 41q32 78 74.5 111.5t88.5 33.5q31 0 54.5 -11.5t42.5 -26.5t37 -26.5t38 -11.5q15 0 27.5 9t24.5 27t21 46l88 -41q-31 -78 -73.5 -111.5t-89.5 -33.5z" />
    <glyph glyph-name="uni00A0" unicode="&#xa0;" 
 />
    <glyph glyph-name="exclamdown" unicode="&#xa1;" 
d="M227 -174l5 133l20 282h96l20 -282l5 -133h-146zM300 306q-43 0 -71.5 28t-28.5 72q0 45 28.5 73.5t71.5 28.5t71.5 -28.5t28.5 -73.5q0 -44 -28.5 -72t-71.5 -28z" />
    <glyph glyph-name="cent" unicode="&#xa2;" 
d="M358 51q-78 0 -137 30t-92 87.5t-33 138.5t37 138.5t99.5 87.5t138.5 30q46 0 83 -15.5t62 -41.5l-67 -90q-18 15 -34.5 21.5t-34.5 6.5q-47 0 -78.5 -16.5t-47 -47.5t-15.5 -73q0 -63 35.5 -100t100.5 -37q27 0 49.5 11t39.5 25l59 -93q-35 -32 -79.5 -47t-85.5 -15z
M311 -41v696h81v-696h-81z" />
    <glyph glyph-name="sterling" unicode="&#xa3;" 
d="M67 0v91q51 20 84.5 60t33.5 93q0 25 -7.5 50t-17.5 50t-17.5 49.5t-7.5 48.5q0 63 29 109t81 71t118 25q62 0 107 -21t79 -60l-79 -80q-20 21 -42.5 31.5t-50.5 10.5q-47 0 -75 -23t-28 -71q0 -24 6 -46.5t13.5 -46t13 -48t5.5 -50.5q0 -36 -12.5 -62t-40.5 -53v-4h291
v-124h-483zM70 271v86l88 5h298v-91h-386z" />
    <glyph glyph-name="currency" unicode="&#xa4;" 
d="M109 63l-73 74l81 82q-17 23 -25.5 50.5t-8.5 60.5t8.5 60t24.5 49l-80 82l73 74l89 -90q49 25 102 25t102 -25l89 90l73 -74l-81 -82q16 -22 25 -49t9 -60t-9 -60.5t-26 -50.5l82 -82l-73 -74l-90 91q-23 -12 -49 -18t-52 -6q-55 0 -101 24zM300 232q24 0 44 12t31 34
t11 52t-11 52t-31 34t-44 12t-43.5 -12t-31 -34t-11.5 -52t11.5 -52t31 -34t43.5 -12z" />
    <glyph glyph-name="yen" unicode="&#xa5;" 
d="M226 0v147h-169v70h169v55h-169v70h137l-163 293h151l61 -133q15 -33 28.5 -65.5t28.5 -65.5h4l28 66t29 65l61 133h147l-163 -293h137v-70h-170v-55h170v-70h-170v-147h-147z" />
    <glyph glyph-name="brokenbar" unicode="&#xa6;" 
d="M235 -250v440h130v-440h-130zM235 310v440h130v-440h-130z" />
    <glyph glyph-name="section" unicode="&#xa7;" 
d="M276 -84q-55 0 -108 21t-87 63l84 75q25 -25 53 -38t58 -13q31 0 45.5 12t14.5 31t-19 33t-49 27t-64 28t-64.5 37t-49.5 55t-19 79t32.5 86t85.5 59l73 -62q-33 -11 -50 -29t-17 -43q0 -26 20 -44t51 -32.5t65.5 -29.5t66 -35.5t51 -49.5t19.5 -72q0 -45 -22 -81
t-64.5 -56.5t-105.5 -20.5zM337 198q35 13 51.5 30t16.5 44q0 28 -20.5 46t-52 33t-68 30t-68 34.5t-52 48.5t-20.5 73q0 45 21 79.5t61 54t96 19.5q58 0 104.5 -20.5t77.5 -44.5l-68 -92q-23 20 -51 34t-55 14t-40.5 -10t-13.5 -29q0 -18 20 -31.5t51 -26.5t65.5 -29.5
t65.5 -39t51 -54.5t20 -77q0 -33 -13 -60t-37 -48.5t-59 -38.5z" />
    <glyph glyph-name="dieresis" unicode="&#xa8;" 
d="M189 571q-35 0 -57.5 23.5t-22.5 56.5q0 34 22.5 57.5t57.5 23.5q36 0 58 -23.5t22 -57.5q0 -33 -22 -56.5t-58 -23.5zM411 571q-36 0 -58 23.5t-22 56.5q0 34 22 57.5t58 23.5q35 0 57.5 -23.5t22.5 -57.5q0 -33 -22.5 -56.5t-57.5 -23.5z" />
    <glyph glyph-name="copyright" unicode="&#xa9;" 
d="M300 -9q-76 0 -140 40.5t-102.5 115.5t-38.5 178q0 104 38.5 178t102.5 113t140 39t140 -39t102.5 -113t38.5 -178q0 -103 -38.5 -178t-102.5 -115.5t-140 -40.5zM300 52q65 0 113.5 34t76 95.5t27.5 143.5t-27.5 143t-76 94t-113.5 33t-113.5 -33t-76 -94t-27.5 -143
t27.5 -143.5t76 -95.5t113.5 -34zM312 127q-50 0 -89 24t-61.5 68t-22.5 105q0 58 24.5 101.5t63.5 67t85 23.5q39 0 65.5 -14.5t46.5 -34.5l-55 -61q-11 12 -22 18t-26 6q-37 0 -56.5 -31t-19.5 -75q0 -51 19 -81t52 -30q20 0 33 7t27 17l47 -68q-23 -18 -50.5 -30
t-60.5 -12z" />
    <glyph glyph-name="ordfeminine" unicode="&#xaa;" 
d="M255 367q-50 0 -80 29.5t-30 70.5q0 51 50 82.5t163 37.5q-2 14 -10 23.5t-21.5 14.5t-33.5 5q-22 0 -47.5 -7t-52.5 -22l-37 68q35 20 75.5 32t82.5 12q68 0 107 -37t39 -113v-188h-83l-8 36h-2q-23 -19 -51 -31.5t-61 -12.5zM284 445q23 0 40 7.5t34 19.5v56
q-63 -4 -88 -18t-25 -33q0 -17 11 -24.5t28 -7.5z" />
    <glyph glyph-name="guillemotleft" unicode="&#xab;" 
d="M213 25l-171 154v146l171 154l62 -55l-127 -172l127 -172zM479 25l-171 154v146l171 154l62 -55l-127 -172l127 -172z" />
    <glyph glyph-name="logicalnot" unicode="&#xac;" 
d="M422 94v184h-352v104h460v-288h-108z" />
    <glyph glyph-name="uni00AD" unicode="&#xad;" 
d="M70 278v104h460v-104h-460z" />
    <glyph glyph-name="registered" unicode="&#xae;" 
d="M299 311q-55 0 -100 26t-71.5 71.5t-26.5 104.5t26.5 104.5t71.5 71.5t100 26t100 -26t71.5 -71.5t26.5 -104.5t-26.5 -104.5t-71.5 -71.5t-100 -26zM299 360q42 0 74.5 19t51 53.5t18.5 80.5t-18.5 80.5t-51 53.5t-74.5 19t-74.5 -19t-51 -53.5t-18.5 -80.5t18.5 -80.5
t51 -53.5t74.5 -19zM218 416v197h89q35 0 58 -16t23 -50q0 -16 -8.5 -31t-26.5 -23l42 -77h-60l-30 60h-29v-60h-58zM276 516h20q16 0 23.5 8t7.5 20q0 11 -7.5 18.5t-22.5 7.5h-21v-54z" />
    <glyph glyph-name="macron" unicode="&#xaf;" 
d="M152 592v93h296v-93h-296z" />
    <glyph glyph-name="degree" unicode="&#xb0;" 
d="M301 398q-41 0 -73.5 18.5t-52 51t-19.5 74.5t19.5 74.5t52 51t73.5 18.5q40 0 73 -18.5t52 -51t19 -74.5t-19 -74.5t-52 -51t-73 -18.5zM301 468q30 0 48.5 21t18.5 53q0 33 -18.5 53t-48.5 20t-48.5 -20t-18.5 -53q0 -32 18.5 -53t48.5 -21z" />
    <glyph glyph-name="plusminus" unicode="&#xb1;" 
d="M246 158v136h-176v104h176v168h108v-168h176v-104h-176v-136h-108zM70 0v104h460v-104h-460z" />
    <glyph glyph-name="uni00B2" unicode="&#xb2;" 
d="M155 376l-8 57q59 44 102 78.5t66 63t23 52.5q0 29 -17.5 45.5t-49.5 16.5q-23 0 -43.5 -12t-37.5 -36l-61 56q31 41 71 61t88 20q69 0 111.5 -35t42.5 -97q0 -32 -15.5 -60.5t-43.5 -57.5t-65 -62h138v-90h-301z" />
    <glyph glyph-name="uni00B3" unicode="&#xb3;" 
d="M298 364q-54 0 -98 20t-71 58l65 51q19 -25 42 -36t50 -11q29 0 48 12t19 34q0 27 -25 39t-78 12v62q42 0 65.5 12.5t23.5 36.5q0 20 -16 30.5t-43 10.5q-22 0 -41 -10.5t-33 -28.5l-61 55q32 35 68.5 51t85.5 16q39 0 72 -13.5t53 -37.5t20 -58q0 -31 -15.5 -52.5
t-50.5 -37.5q38 -11 59.5 -35.5t21.5 -59.5q0 -36 -22.5 -63t-59 -42t-79.5 -15z" />
    <glyph glyph-name="acute" unicode="&#xb4;" 
d="M294 561l-72 72l153 182l100 -98z" />
    <glyph glyph-name="mu" unicode="&#xb5;" 
d="M64 -196v692h147v-287q0 -54 17.5 -75t49.5 -21q20 0 36.5 7.5t32 24t29.5 43.5v308h148q-2 -58 -4.5 -123t-4 -124t-1.5 -101q0 -23 10.5 -32t24.5 -9q5 0 8.5 0.5t9.5 1.5l18 -109q-12 -5 -30.5 -8.5t-43.5 -3.5q-48 0 -77 23t-42 70h-3q-20 -43 -51 -65.5t-67 -22.5
q-19 0 -37.5 4.5t-31.5 20.5q1 -40 2 -75t3 -68.5t5 -70.5h-148z" />
    <glyph glyph-name="paragraph" unicode="&#xb6;" 
d="M288 197q-65 0 -119.5 26t-87.5 78t-33 128q0 84 32.5 133t86.5 69.5t119 20.5h42v-455h-40zM380 -80v732h146v-732h-146z" />
    <glyph glyph-name="periodcentered" unicode="&#xb7;" 
d="M300 236q-51 0 -83.5 34t-32.5 83t32.5 83.5t83.5 34.5q52 0 84 -34.5t32 -83.5t-32 -83t-84 -34z" />
    <glyph glyph-name="cedilla" unicode="&#xb8;" 
d="M198 -239l-11 59q59 3 81 13t22 31q0 16 -15.5 26t-61.5 16l50 105h86l-30 -72q37 -9 56.5 -26t19.5 -49q0 -51 -51.5 -75.5t-145.5 -27.5z" />
    <glyph glyph-name="uni00B9" unicode="&#xb9;" 
d="M287 376v280h-109v67q48 7 76 15t56 28h85v-390h-108zM166 376v90h334v-90h-334z" />
    <glyph glyph-name="ordmasculine" unicode="&#xba;" 
d="M300 367q-44 0 -82.5 20.5t-61.5 59t-23 92.5q0 55 23 93.5t61.5 59.5t82.5 21t82.5 -21t61.5 -59.5t23 -93.5q0 -54 -23 -92.5t-61.5 -59t-82.5 -20.5zM300 450q33 0 47 24.5t14 64.5q0 42 -14 66t-47 24q-32 0 -46.5 -24t-14.5 -66q0 -40 14.5 -64.5t46.5 -24.5z" />
    <glyph glyph-name="guillemotright" unicode="&#xbb;" 
d="M121 25l-62 55l127 172l-127 172l62 55l171 -154v-146zM387 25l-62 55l127 172l-127 172l62 55l171 -154v-146z" />
    <glyph glyph-name="onequarter" unicode="&#xbc;" 
d="M134 324v212h-81v64q39 5 60 13t45 23h83v-312h-107zM92 28l-75 73l186 173l51 -47zM397 377l-51 48l162 199l75 -73zM448 0v215h94v-215h-94zM288 61v51l96 212l76 -29l-77 -168h210v-66h-305z" />
    <glyph glyph-name="onehalf" unicode="&#xbd;" 
d="M134 324v212h-81v64q39 5 60 13t45 23h83v-312h-107zM92 28l-75 73l186 173l51 -47zM397 377l-51 48l162 199l75 -73zM314 0v55q41 27 74 53.5t52.5 49t19.5 39.5q0 19 -11 30t-33 11q-13 0 -28 -9t-27 -26l-62 56q28 29 60.5 47t73.5 18q59 0 94.5 -29t35.5 -80
q0 -22 -12 -44.5t-30 -43t-39 -40.5h92v-87h-260z" />
    <glyph glyph-name="threequarters" unicode="&#xbe;" 
d="M158 312q-31 0 -66 8t-70 34l41 66q16 -11 38.5 -20t43.5 -9q18 0 30 7.5t12 21.5q0 17 -17.5 26t-55.5 9v55q29 0 45 7.5t16 24.5q0 12 -10 19.5t-29 7.5q-16 0 -33.5 -7.5t-32.5 -17.5l-42 62q23 18 57.5 30t74.5 12q49 0 84 -24.5t35 -64.5q0 -27 -12 -43.5t-42 -27.5
q36 -9 51 -28.5t15 -47.5q0 -30 -18 -52t-48.5 -35t-66.5 -13zM99 28l-75 73l186 173l51 -47zM404 377l-51 48l162 199l75 -73zM448 0v215h94v-215h-94zM288 61v51l96 212l76 -29l-77 -168h210v-66h-305z" />
    <glyph glyph-name="questiondown" unicode="&#xbf;" 
d="M308 -186q-58 0 -104 18t-73.5 54t-27.5 91q0 40 16 67.5t40 49.5t47 42t37.5 45t10.5 60h128q7 -40 -5 -70t-33.5 -53t-45 -42.5t-39 -38.5t-15.5 -41q0 -31 21.5 -47t52.5 -16q32 0 55.5 13t46.5 33l82 -74q-36 -40 -85.5 -65.5t-108.5 -25.5zM314 306q-43 0 -71.5 28
t-28.5 72q0 45 28.5 73.5t71.5 28.5t71.5 -28.5t28.5 -73.5q0 -44 -28.5 -72t-71.5 -28z" />
    <glyph glyph-name="Agrave" unicode="&#xc0;" 
d="M9 0l203 652h176l203 -652h-156l-84 330q-12 49 -26 104t-26 106h-4q-12 -51 -25 -106t-26 -104l-85 -330h-150zM143 155v115h312v-115h-312zM337 680l-184 119l78 95l171 -140z" />
    <glyph glyph-name="Aacute" unicode="&#xc1;" 
d="M9 0l203 652h176l203 -652h-156l-84 330q-12 49 -26 104t-26 106h-4q-12 -51 -25 -106t-26 -104l-85 -330h-150zM143 155v115h312v-115h-312zM263 680l-65 74l171 140l78 -95z" />
    <glyph glyph-name="Acircumflex" unicode="&#xc2;" 
d="M9 0l203 652h176l203 -652h-156l-84 330q-12 49 -26 104t-26 106h-4q-12 -51 -25 -106t-26 -104l-85 -330h-150zM143 155v115h312v-115h-312zM194 685l-64 39l90 111h160l90 -111l-64 -39l-104 84h-4z" />
    <glyph glyph-name="Atilde" unicode="&#xc3;" 
d="M9 0l203 652h176l203 -652h-156l-84 330q-12 49 -26 104t-26 106h-4q-12 -51 -25 -106t-26 -104l-85 -330h-150zM143 155v115h312v-115h-312zM371 692q-26 0 -46.5 9t-36.5 20t-29 20t-25 9q-14 0 -24 -10.5t-13 -38.5l-95 7q5 76 39.5 110t87.5 34q26 0 46.5 -9
t36.5 -20t29 -20t25 -9q14 0 24 11t13 38l95 -7q-4 -75 -39 -109.5t-88 -34.5z" />
    <glyph glyph-name="Adieresis" unicode="&#xc4;" 
d="M9 0l203 652h176l203 -652h-156l-84 330q-12 49 -26 104t-26 106h-4q-12 -51 -25 -106t-26 -104l-85 -330h-150zM143 155v115h312v-115h-312zM189 700q-32 0 -52.5 21.5t-20.5 52.5t20.5 51.5t52.5 20.5t53 -20.5t21 -51.5t-21 -52.5t-53 -21.5zM411 700q-32 0 -53 21.5
t-21 52.5t21 51.5t53 20.5t52.5 -20.5t20.5 -51.5t-20.5 -52.5t-52.5 -21.5z" />
    <glyph glyph-name="Aring" unicode="&#xc5;" 
d="M9 0l203 652h176l203 -652h-156l-84 330q-12 49 -26 104t-26 106h-4q-12 -51 -25 -106t-26 -104l-85 -330h-150zM143 155v115h312v-115h-312zM300 697q-51 0 -82.5 27t-31.5 72t31.5 71.5t82.5 26.5q50 0 82 -26.5t32 -71.5t-32 -72t-82 -27zM300 752q17 0 29.5 11.5
t12.5 32.5q0 19 -12.5 31t-29.5 12q-18 0 -30 -12t-12 -31q0 -21 12 -32.5t30 -11.5z" />
    <glyph glyph-name="AE" unicode="&#xc6;" 
d="M-3 0l218 652h371v-124h-145v-129h118v-124h-118v-151h154v-124h-284v541h-3q-13 -48 -27 -95t-26 -90l-107 -356h-151zM132 149v114h236v-114h-236z" />
    <glyph glyph-name="Ccedilla" unicode="&#xc7;" 
d="M356 -12q-61 0 -115.5 21t-96.5 63.5t-66 105t-24 144.5q0 108 41.5 184.5t112 117t157.5 40.5q62 0 112 -25.5t83 -57.5l-81 -91q-23 22 -50.5 34.5t-63.5 12.5q-46 0 -82 -25.5t-57 -72.5t-21 -112q0 -67 21 -114.5t58.5 -72.5t86.5 -25q36 0 65 16t53 42l81 -89
q-40 -47 -94 -71.5t-120 -24.5zM241 -239l-11 59q59 3 81 13t22 31q0 16 -15.5 26t-61.5 16l50 105h86l-30 -72q37 -9 56.5 -26t19.5 -49q0 -51 -51.5 -75.5t-145.5 -27.5z" />
    <glyph glyph-name="Egrave" unicode="&#xc8;" 
d="M92 0v652h432v-124h-284v-131h241v-123h-241v-150h294v-124h-442zM360 680l-184 119l78 95l171 -140z" />
    <glyph glyph-name="Eacute" unicode="&#xc9;" 
d="M92 0v652h432v-124h-284v-131h241v-123h-241v-150h294v-124h-442zM286 680l-65 74l171 140l78 -95z" />
    <glyph glyph-name="Ecircumflex" unicode="&#xca;" 
d="M92 0v652h432v-124h-284v-131h241v-123h-241v-150h294v-124h-442zM217 685l-64 39l90 111h160l90 -111l-64 -39l-104 84h-4z" />
    <glyph glyph-name="Edieresis" unicode="&#xcb;" 
d="M92 0v652h432v-124h-284v-131h241v-123h-241v-150h294v-124h-442zM212 700q-32 0 -52.5 21.5t-20.5 52.5t20.5 51.5t52.5 20.5t53 -20.5t21 -51.5t-21 -52.5t-53 -21.5zM434 700q-32 0 -53 21.5t-21 52.5t21 51.5t53 20.5t52.5 -20.5t20.5 -51.5t-20.5 -52.5t-52.5 -21.5
z" />
    <glyph glyph-name="Igrave" unicode="&#xcc;" 
d="M74 0v124h152v404h-152v124h452v-124h-152v-404h152v-124h-452zM337 680l-184 119l78 95l171 -140z" />
    <glyph glyph-name="Iacute" unicode="&#xcd;" 
d="M74 0v124h152v404h-152v124h452v-124h-152v-404h152v-124h-452zM263 680l-65 74l171 140l78 -95z" />
    <glyph glyph-name="Icircumflex" unicode="&#xce;" 
d="M74 0v124h152v404h-152v124h452v-124h-152v-404h152v-124h-452zM194 685l-64 39l90 111h160l90 -111l-64 -39l-104 84h-4z" />
    <glyph glyph-name="Idieresis" unicode="&#xcf;" 
d="M74 0v124h152v404h-152v124h452v-124h-152v-404h152v-124h-452zM189 700q-32 0 -52.5 21.5t-20.5 52.5t20.5 51.5t52.5 20.5t53 -20.5t21 -51.5t-21 -52.5t-53 -21.5zM411 700q-32 0 -53 21.5t-21 52.5t21 51.5t53 20.5t52.5 -20.5t20.5 -51.5t-20.5 -52.5t-52.5 -21.5z
" />
    <glyph glyph-name="Eth" unicode="&#xd0;" 
d="M70 0v298h-70v69l70 6v279h181q94 0 164.5 -34t109.5 -105.5t39 -183.5t-39 -185t-107.5 -108.5t-158.5 -35.5h-189zM218 119h24q51 0 89 20t60 66t22 124t-22 122.5t-60 63t-89 18.5h-24v-160h108v-75h-108v-179z" />
    <glyph glyph-name="Ntilde" unicode="&#xd1;" 
d="M66 0v652h151l137 -324l56 -144h4q-5 52 -13 116t-8 121v231h141v-652h-151l-137 325l-56 142h-4q5 -53 13 -115.5t8 -120.5v-231h-141zM381 692q-26 0 -46.5 9t-36.5 20t-29 20t-25 9q-14 0 -24 -10.5t-13 -38.5l-95 7q5 76 39.5 110t87.5 34q26 0 46.5 -9t36.5 -20
t29 -20t25 -9q14 0 24 11t13 38l95 -7q-4 -75 -39 -109.5t-88 -34.5z" />
    <glyph glyph-name="Ograve" unicode="&#xd2;" 
d="M300 -12q-78 0 -137 39t-92 114.5t-33 187.5q0 109 33 183.5t92 113t137 38.5t137 -38.5t92 -113t33 -183.5q0 -112 -33 -187.5t-92 -114.5t-137 -39zM300 115q34 0 59 24.5t38.5 72t13.5 117.5q0 68 -13.5 114t-38.5 70t-59 24t-59 -24t-38.5 -70t-13.5 -114
q0 -70 13.5 -117.5t38.5 -72t59 -24.5zM337 680l-184 119l78 95l171 -140z" />
    <glyph glyph-name="Oacute" unicode="&#xd3;" 
d="M300 -12q-78 0 -137 39t-92 114.5t-33 187.5q0 109 33 183.5t92 113t137 38.5t137 -38.5t92 -113t33 -183.5q0 -112 -33 -187.5t-92 -114.5t-137 -39zM300 115q34 0 59 24.5t38.5 72t13.5 117.5q0 68 -13.5 114t-38.5 70t-59 24t-59 -24t-38.5 -70t-13.5 -114
q0 -70 13.5 -117.5t38.5 -72t59 -24.5zM263 680l-65 74l171 140l78 -95z" />
    <glyph glyph-name="Ocircumflex" unicode="&#xd4;" 
d="M300 -12q-78 0 -137 39t-92 114.5t-33 187.5q0 109 33 183.5t92 113t137 38.5t137 -38.5t92 -113t33 -183.5q0 -112 -33 -187.5t-92 -114.5t-137 -39zM300 115q34 0 59 24.5t38.5 72t13.5 117.5q0 68 -13.5 114t-38.5 70t-59 24t-59 -24t-38.5 -70t-13.5 -114
q0 -70 13.5 -117.5t38.5 -72t59 -24.5zM194 685l-64 39l90 111h160l90 -111l-64 -39l-104 84h-4z" />
    <glyph glyph-name="Otilde" unicode="&#xd5;" 
d="M300 -12q-78 0 -137 39t-92 114.5t-33 187.5q0 109 33 183.5t92 113t137 38.5t137 -38.5t92 -113t33 -183.5q0 -112 -33 -187.5t-92 -114.5t-137 -39zM300 115q34 0 59 24.5t38.5 72t13.5 117.5q0 68 -13.5 114t-38.5 70t-59 24t-59 -24t-38.5 -70t-13.5 -114
q0 -70 13.5 -117.5t38.5 -72t59 -24.5zM371 692q-26 0 -46.5 9t-36.5 20t-29 20t-25 9q-14 0 -24 -10.5t-13 -38.5l-95 7q5 76 39.5 110t87.5 34q26 0 46.5 -9t36.5 -20t29 -20t25 -9q14 0 24 11t13 38l95 -7q-4 -75 -39 -109.5t-88 -34.5z" />
    <glyph glyph-name="Odieresis" unicode="&#xd6;" 
d="M300 -12q-78 0 -137 39t-92 114.5t-33 187.5q0 109 33 183.5t92 113t137 38.5t137 -38.5t92 -113t33 -183.5q0 -112 -33 -187.5t-92 -114.5t-137 -39zM300 115q34 0 59 24.5t38.5 72t13.5 117.5q0 68 -13.5 114t-38.5 70t-59 24t-59 -24t-38.5 -70t-13.5 -114
q0 -70 13.5 -117.5t38.5 -72t59 -24.5zM189 700q-32 0 -52.5 21.5t-20.5 52.5t20.5 51.5t52.5 20.5t53 -20.5t21 -51.5t-21 -52.5t-53 -21.5zM411 700q-32 0 -53 21.5t-21 52.5t21 51.5t53 20.5t52.5 -20.5t20.5 -51.5t-20.5 -52.5t-52.5 -21.5z" />
    <glyph glyph-name="multiply" unicode="&#xd7;" 
d="M157 112l-73 74l142 143l-142 144l73 74l143 -144l143 144l73 -74l-142 -144l142 -143l-73 -74l-143 144z" />
    <glyph glyph-name="Oslash" unicode="&#xd8;" 
d="M19 10l481 684l80 -52l-481 -684zM300 -12q-78 0 -137 39t-92 114.5t-33 187.5q0 109 33 183.5t92 113t137 38.5t137 -38.5t92 -113t33 -183.5q0 -112 -33 -187.5t-92 -114.5t-137 -39zM300 115q34 0 59 24.5t38.5 72t13.5 117.5q0 68 -13.5 114t-38.5 70t-59 24t-59 -24
t-38.5 -70t-13.5 -114q0 -70 13.5 -117.5t38.5 -72t59 -24.5z" />
    <glyph glyph-name="Ugrave" unicode="&#xd9;" 
d="M302 -12q-60 0 -104.5 17.5t-74 51t-44.5 82t-15 112.5v401h147v-416q0 -39 10 -66t30 -41t51 -14t51.5 14t30.5 41t10 66v416h142v-401q0 -64 -14 -112.5t-43.5 -82t-73.5 -51t-103 -17.5zM337 680l-184 119l78 95l171 -140z" />
    <glyph glyph-name="Uacute" unicode="&#xda;" 
d="M302 -12q-60 0 -104.5 17.5t-74 51t-44.5 82t-15 112.5v401h147v-416q0 -39 10 -66t30 -41t51 -14t51.5 14t30.5 41t10 66v416h142v-401q0 -64 -14 -112.5t-43.5 -82t-73.5 -51t-103 -17.5zM263 680l-65 74l171 140l78 -95z" />
    <glyph glyph-name="Ucircumflex" unicode="&#xdb;" 
d="M302 -12q-60 0 -104.5 17.5t-74 51t-44.5 82t-15 112.5v401h147v-416q0 -39 10 -66t30 -41t51 -14t51.5 14t30.5 41t10 66v416h142v-401q0 -64 -14 -112.5t-43.5 -82t-73.5 -51t-103 -17.5zM194 685l-64 39l90 111h160l90 -111l-64 -39l-104 84h-4z" />
    <glyph glyph-name="Udieresis" unicode="&#xdc;" 
d="M302 -12q-60 0 -104.5 17.5t-74 51t-44.5 82t-15 112.5v401h147v-416q0 -39 10 -66t30 -41t51 -14t51.5 14t30.5 41t10 66v416h142v-401q0 -64 -14 -112.5t-43.5 -82t-73.5 -51t-103 -17.5zM189 700q-32 0 -52.5 21.5t-20.5 52.5t20.5 51.5t52.5 20.5t53 -20.5t21 -51.5
t-21 -52.5t-53 -21.5zM411 700q-32 0 -53 21.5t-21 52.5t21 51.5t53 20.5t52.5 -20.5t20.5 -51.5t-20.5 -52.5t-52.5 -21.5z" />
    <glyph glyph-name="Yacute" unicode="&#xdd;" 
d="M226 0v220l-210 432h158l66 -157q15 -37 29.5 -73.5t29.5 -75.5h4q16 39 31.5 75.5t29.5 73.5l66 157h154l-210 -432v-220h-148zM263 680l-65 74l171 140l78 -95z" />
    <glyph glyph-name="Thorn" unicode="&#xde;" 
d="M73 0v652h147v-99h91q71 0 128.5 -19.5t92 -65t34.5 -124.5q0 -77 -35 -125.5t-93 -72t-127 -23.5h-91v-123h-147zM220 240h82q61 0 90 26.5t29 77.5t-30 71.5t-89 20.5h-82v-196z" />
    <glyph glyph-name="germandbls" unicode="&#xdf;" 
d="M397 -12q-41 0 -73 10t-66 27l49 100q23 -15 44 -21.5t41 -6.5t31.5 12t11.5 31t-11 33t-28.5 26t-38 25t-38 30t-28.5 40t-11 56q0 30 9 52t21 42t21 41.5t9 50.5q0 26 -14 43.5t-39 17.5q-40 0 -59.5 -30t-19.5 -81v-486h-147v495q0 62 25 111.5t75.5 78t126.5 28.5
q64 0 106 -24.5t62.5 -63t20.5 -81.5q0 -35 -9 -60.5t-21.5 -44.5t-21.5 -35t-9 -36q0 -16 11 -29t28.5 -24.5t37.5 -24.5t38 -31.5t29 -44.5t11 -62q0 -46 -19.5 -83t-58.5 -59t-96 -22z" />
    <glyph glyph-name="agrave" unicode="&#xe0;" 
d="M224 -12q-50 0 -86.5 20t-56.5 54t-20 76q0 83 75.5 127t251.5 54q-3 23 -15 39t-34.5 24.5t-56.5 8.5q-24 0 -48 -5.5t-49.5 -16t-53.5 -24.5l-52 96q34 20 71.5 35t78 23.5t82.5 8.5q70 0 120 -24.5t77 -74t27 -125.5v-284h-120l-11 56h-4q-37 -28 -82 -48t-94 -20z
M271 102q33 0 62 13.5t55 33.5v82q-73 -4 -113.5 -15t-56.5 -28t-16 -39q0 -15 8.5 -26t24 -16t36.5 -5zM326 561l-181 156l100 98l153 -182z" />
    <glyph glyph-name="aacute" unicode="&#xe1;" 
d="M224 -12q-50 0 -86.5 20t-56.5 54t-20 76q0 83 75.5 127t251.5 54q-3 23 -15 39t-34.5 24.5t-56.5 8.5q-24 0 -48 -5.5t-49.5 -16t-53.5 -24.5l-52 96q34 20 71.5 35t78 23.5t82.5 8.5q70 0 120 -24.5t77 -74t27 -125.5v-284h-120l-11 56h-4q-37 -28 -82 -48t-94 -20z
M271 102q33 0 62 13.5t55 33.5v82q-73 -4 -113.5 -15t-56.5 -28t-16 -39q0 -15 8.5 -26t24 -16t36.5 -5zM314 561l-72 72l153 182l100 -98z" />
    <glyph glyph-name="acircumflex" unicode="&#xe2;" 
d="M224 -12q-50 0 -86.5 20t-56.5 54t-20 76q0 83 75.5 127t251.5 54q-3 23 -15 39t-34.5 24.5t-56.5 8.5q-24 0 -48 -5.5t-49.5 -16t-53.5 -24.5l-52 96q34 20 71.5 35t78 23.5t82.5 8.5q70 0 120 -24.5t77 -74t27 -125.5v-284h-120l-11 56h-4q-37 -28 -82 -48t-94 -20z
M271 102q33 0 62 13.5t55 33.5v82q-73 -4 -113.5 -15t-56.5 -28t-16 -39q0 -15 8.5 -26t24 -16t36.5 -5zM193 561l-56 52l108 131h150l108 -131l-56 -52l-125 92h-4z" />
    <glyph glyph-name="atilde" unicode="&#xe3;" 
d="M224 -12q-50 0 -86.5 20t-56.5 54t-20 76q0 83 75.5 127t251.5 54q-3 23 -15 39t-34.5 24.5t-56.5 8.5q-24 0 -48 -5.5t-49.5 -16t-53.5 -24.5l-52 96q34 20 71.5 35t78 23.5t82.5 8.5q70 0 120 -24.5t77 -74t27 -125.5v-284h-120l-11 56h-4q-37 -28 -82 -48t-94 -20z
M271 102q33 0 62 13.5t55 33.5v82q-73 -4 -113.5 -15t-56.5 -28t-16 -39q0 -15 8.5 -26t24 -16t36.5 -5zM386 573q-23 0 -42 10t-34.5 22.5t-28 22t-24.5 9.5q-15 0 -23.5 -13t-11.5 -42l-92 5q2 52 16.5 85.5t41.5 50t66 16.5q24 0 42.5 -9.5t34 -22t28 -22.5t24.5 -10
q15 0 23.5 13t11.5 42l92 -5q-2 -51 -16.5 -85t-41.5 -50.5t-66 -16.5z" />
    <glyph glyph-name="adieresis" unicode="&#xe4;" 
d="M224 -12q-50 0 -86.5 20t-56.5 54t-20 76q0 83 75.5 127t251.5 54q-3 23 -15 39t-34.5 24.5t-56.5 8.5q-24 0 -48 -5.5t-49.5 -16t-53.5 -24.5l-52 96q34 20 71.5 35t78 23.5t82.5 8.5q70 0 120 -24.5t77 -74t27 -125.5v-284h-120l-11 56h-4q-37 -28 -82 -48t-94 -20z
M271 102q33 0 62 13.5t55 33.5v82q-73 -4 -113.5 -15t-56.5 -28t-16 -39q0 -15 8.5 -26t24 -16t36.5 -5zM209 571q-35 0 -57.5 23.5t-22.5 56.5q0 34 22.5 57.5t57.5 23.5q36 0 58 -23.5t22 -57.5q0 -33 -22 -56.5t-58 -23.5zM431 571q-36 0 -58 23.5t-22 56.5q0 34 22 57.5
t58 23.5q35 0 57.5 -23.5t22.5 -57.5q0 -33 -22.5 -56.5t-57.5 -23.5z" />
    <glyph glyph-name="aring" unicode="&#xe5;" 
d="M224 -12q-50 0 -86.5 20t-56.5 54t-20 76q0 83 75.5 127t251.5 54q-3 23 -15 39t-34.5 24.5t-56.5 8.5q-24 0 -48 -5.5t-49.5 -16t-53.5 -24.5l-52 96q34 20 71.5 35t78 23.5t82.5 8.5q70 0 120 -24.5t77 -74t27 -125.5v-284h-120l-11 56h-4q-37 -28 -82 -48t-94 -20z
M271 102q33 0 62 13.5t55 33.5v82q-73 -4 -113.5 -15t-56.5 -28t-16 -39q0 -15 8.5 -26t24 -16t36.5 -5zM320 568q-65 0 -98.5 30.5t-33.5 73.5t33.5 73t98.5 30q66 0 99 -30t33 -73t-33 -73.5t-99 -30.5zM320 623q18 0 30.5 14t12.5 35t-12.5 34.5t-30.5 13.5t-30.5 -13.5
t-12.5 -34.5t12.5 -35t30.5 -14z" />
    <glyph glyph-name="ae" unicode="&#xe6;" 
d="M149 -12q-59 0 -96 40t-37 102q0 55 27.5 93t83 61.5t140.5 32.5v-87q-46 -5 -72 -16.5t-37 -28.5t-11 -37q0 -23 13.5 -34.5t33.5 -11.5q16 0 35.5 10.5t44.5 41.5l41 -66q-44 -54 -84 -77t-82 -23zM445 -12q-64 0 -109 32.5t-69 85.5t-24 116v70q0 60 -18 79.5
t-44 19.5q-27 0 -50.5 -9t-49.5 -25l-52 96q41 25 81.5 40t80.5 15q45 0 77 -22.5t55 -79.5h-30q30 57 66 79.5t77 22.5q52 0 87 -32.5t52.5 -87t17.5 -119.5q0 -20 -2 -37.5t-4 -27.5h-259v93h174l-24 -20q0 64 -12.5 91.5t-41.5 27.5q-18 0 -34.5 -14t-27 -46.5
t-10.5 -87.5q0 -48 13 -80t35 -48.5t51 -16.5q20 0 38.5 7t37.5 20l51 -95q-29 -23 -65 -35t-68 -12z" />
    <glyph glyph-name="ccedilla" unicode="&#xe7;" 
d="M343 -12q-78 0 -140.5 30.5t-99 89t-36.5 140.5t40 140.5t105.5 89t141.5 30.5q59 0 107 -18.5t79 -48.5l-68 -91q-29 20 -55.5 29.5t-54.5 9.5q-42 0 -75 -17t-51 -49t-18 -75t17.5 -75t49 -49t72.5 -17q39 0 71.5 14t59.5 33l59 -93q-44 -37 -98.5 -55t-105.5 -18z
M240 -239l-11 59q59 3 81 13t22 31q0 16 -15.5 26t-61.5 16l50 105h86l-30 -72q37 -9 56.5 -26t19.5 -49q0 -51 -51.5 -75.5t-145.5 -27.5z" />
    <glyph glyph-name="egrave" unicode="&#xe8;" 
d="M330 -12q-77 0 -139.5 30.5t-99 89t-36.5 140.5q0 81 37 139.5t96 89.5t125 31q77 0 129 -31.5t78.5 -85t26.5 -121.5q0 -20 -2.5 -38.5t-4.5 -27.5h-376v99h277l-23 -28q0 60 -25.5 90.5t-74.5 30.5q-36 0 -63 -16t-42 -49t-15 -83q0 -51 18 -83.5t52 -48.5t82 -16
q34 0 64.5 9t63.5 26l49 -89q-43 -27 -95 -42.5t-102 -15.5zM318 561l-181 156l100 98l153 -182z" />
    <glyph glyph-name="eacute" unicode="&#xe9;" 
d="M330 -12q-77 0 -139.5 30.5t-99 89t-36.5 140.5q0 81 37 139.5t96 89.5t125 31q77 0 129 -31.5t78.5 -85t26.5 -121.5q0 -20 -2.5 -38.5t-4.5 -27.5h-376v99h277l-23 -28q0 60 -25.5 90.5t-74.5 30.5q-36 0 -63 -16t-42 -49t-15 -83q0 -51 18 -83.5t52 -48.5t82 -16
q34 0 64.5 9t63.5 26l49 -89q-43 -27 -95 -42.5t-102 -15.5zM306 561l-72 72l153 182l100 -98z" />
    <glyph glyph-name="ecircumflex" unicode="&#xea;" 
d="M330 -12q-77 0 -139.5 30.5t-99 89t-36.5 140.5q0 81 37 139.5t96 89.5t125 31q77 0 129 -31.5t78.5 -85t26.5 -121.5q0 -20 -2.5 -38.5t-4.5 -27.5h-376v99h277l-23 -28q0 60 -25.5 90.5t-74.5 30.5q-36 0 -63 -16t-42 -49t-15 -83q0 -51 18 -83.5t52 -48.5t82 -16
q34 0 64.5 9t63.5 26l49 -89q-43 -27 -95 -42.5t-102 -15.5zM185 561l-56 52l108 131h150l108 -131l-56 -52l-125 92h-4z" />
    <glyph glyph-name="edieresis" unicode="&#xeb;" 
d="M330 -12q-77 0 -139.5 30.5t-99 89t-36.5 140.5q0 81 37 139.5t96 89.5t125 31q77 0 129 -31.5t78.5 -85t26.5 -121.5q0 -20 -2.5 -38.5t-4.5 -27.5h-376v99h277l-23 -28q0 60 -25.5 90.5t-74.5 30.5q-36 0 -63 -16t-42 -49t-15 -83q0 -51 18 -83.5t52 -48.5t82 -16
q34 0 64.5 9t63.5 26l49 -89q-43 -27 -95 -42.5t-102 -15.5zM201 571q-35 0 -57.5 23.5t-22.5 56.5q0 34 22.5 57.5t57.5 23.5q36 0 58 -23.5t22 -57.5q0 -33 -22 -56.5t-58 -23.5zM423 571q-36 0 -58 23.5t-22 56.5q0 34 22 57.5t58 23.5q35 0 57.5 -23.5t22.5 -57.5
q0 -33 -22.5 -56.5t-57.5 -23.5z" />
    <glyph glyph-name="igrave" unicode="&#xec;" 
d="M278 0v381h-200v115h347v-496h-147zM351 561l-181 156l100 98l153 -182z" />
    <glyph glyph-name="iacute" unicode="&#xed;" 
d="M278 0v381h-200v115h347v-496h-147zM339 561l-72 72l153 182l100 -98z" />
    <glyph glyph-name="icircumflex" unicode="&#xee;" 
d="M278 0v381h-200v115h347v-496h-147zM218 561l-56 52l108 131h150l108 -131l-56 -52l-125 92h-4z" />
    <glyph glyph-name="idieresis" unicode="&#xef;" 
d="M278 0v381h-200v115h347v-496h-147zM234 571q-35 0 -57.5 23.5t-22.5 56.5q0 34 22.5 57.5t57.5 23.5q36 0 58 -23.5t22 -57.5q0 -33 -22 -56.5t-58 -23.5zM456 571q-36 0 -58 23.5t-22 56.5q0 34 22 57.5t58 23.5q35 0 57.5 -23.5t22.5 -57.5q0 -33 -22.5 -56.5
t-57.5 -23.5z" />
    <glyph glyph-name="eth" unicode="&#xf0;" 
d="M295 -12q-67 0 -123.5 29t-90.5 83t-34 128q0 71 31 122t81.5 78t108.5 27q46 0 87 -22t61 -71l2 -77q-27 33 -56.5 47t-63.5 14q-36 0 -62.5 -13t-40.5 -39t-14 -66q0 -39 16 -66t43 -41t60 -14q34 0 59.5 17t39.5 50.5t14 83.5q0 77 -17 135.5t-51 104t-86.5 82.5
t-123.5 71l64 89q70 -32 133.5 -74t112.5 -98.5t77 -130.5t28 -171q0 -80 -30 -143t-87.5 -99t-137.5 -36zM148 473l-40 68l372 187l40 -68z" />
    <glyph glyph-name="ntilde" unicode="&#xf1;" 
d="M72 0v496h120l11 -66h4q32 32 73.5 55t97.5 23q84 0 123 -54t39 -148v-306h-147v287q0 50 -16.5 73t-56.5 23q-30 0 -52.5 -13.5t-48.5 -38.5v-331h-147zM381 573q-23 0 -42 10t-34.5 22.5t-28 22t-24.5 9.5q-15 0 -23.5 -13t-11.5 -42l-92 5q2 52 16.5 85.5t41.5 50
t66 16.5q24 0 42.5 -9.5t34 -22t28 -22.5t24.5 -10q15 0 23.5 13t11.5 42l92 -5q-2 -51 -16.5 -85t-41.5 -50.5t-66 -16.5z" />
    <glyph glyph-name="ograve" unicode="&#xf2;" 
d="M300 -12q-65 0 -123 30.5t-94 89t-36 140.5t36 140.5t94 89t123 30.5t123 -30.5t94 -89t36 -140.5t-36 -140.5t-94 -89t-123 -30.5zM300 107q34 0 56.5 17t34 49t11.5 75t-11.5 75t-34 49t-56.5 17t-56.5 -17t-34 -49t-11.5 -75t11.5 -75t34 -49t56.5 -17zM306 561
l-181 156l100 98l153 -182z" />
    <glyph glyph-name="oacute" unicode="&#xf3;" 
d="M300 -12q-65 0 -123 30.5t-94 89t-36 140.5t36 140.5t94 89t123 30.5t123 -30.5t94 -89t36 -140.5t-36 -140.5t-94 -89t-123 -30.5zM300 107q34 0 56.5 17t34 49t11.5 75t-11.5 75t-34 49t-56.5 17t-56.5 -17t-34 -49t-11.5 -75t11.5 -75t34 -49t56.5 -17zM294 561
l-72 72l153 182l100 -98z" />
    <glyph glyph-name="ocircumflex" unicode="&#xf4;" 
d="M300 -12q-65 0 -123 30.5t-94 89t-36 140.5t36 140.5t94 89t123 30.5t123 -30.5t94 -89t36 -140.5t-36 -140.5t-94 -89t-123 -30.5zM300 107q34 0 56.5 17t34 49t11.5 75t-11.5 75t-34 49t-56.5 17t-56.5 -17t-34 -49t-11.5 -75t11.5 -75t34 -49t56.5 -17zM173 561
l-56 52l108 131h150l108 -131l-56 -52l-125 92h-4z" />
    <glyph glyph-name="otilde" unicode="&#xf5;" 
d="M300 -12q-65 0 -123 30.5t-94 89t-36 140.5t36 140.5t94 89t123 30.5t123 -30.5t94 -89t36 -140.5t-36 -140.5t-94 -89t-123 -30.5zM300 107q34 0 56.5 17t34 49t11.5 75t-11.5 75t-34 49t-56.5 17t-56.5 -17t-34 -49t-11.5 -75t11.5 -75t34 -49t56.5 -17zM366 573
q-23 0 -42 10t-34.5 22.5t-28 22t-24.5 9.5q-15 0 -23.5 -13t-11.5 -42l-92 5q2 52 16.5 85.5t41.5 50t66 16.5q24 0 42.5 -9.5t34 -22t28 -22.5t24.5 -10q15 0 23.5 13t11.5 42l92 -5q-2 -51 -16.5 -85t-41.5 -50.5t-66 -16.5z" />
    <glyph glyph-name="odieresis" unicode="&#xf6;" 
d="M300 -12q-65 0 -123 30.5t-94 89t-36 140.5t36 140.5t94 89t123 30.5t123 -30.5t94 -89t36 -140.5t-36 -140.5t-94 -89t-123 -30.5zM300 107q34 0 56.5 17t34 49t11.5 75t-11.5 75t-34 49t-56.5 17t-56.5 -17t-34 -49t-11.5 -75t11.5 -75t34 -49t56.5 -17zM189 571
q-35 0 -57.5 23.5t-22.5 56.5q0 34 22.5 57.5t57.5 23.5q36 0 58 -23.5t22 -57.5q0 -33 -22 -56.5t-58 -23.5zM411 571q-36 0 -58 23.5t-22 56.5q0 34 22 57.5t58 23.5q35 0 57.5 -23.5t22.5 -57.5q0 -33 -22.5 -56.5t-57.5 -23.5z" />
    <glyph glyph-name="divide" unicode="&#xf7;" 
d="M300 433q-34 0 -57.5 22t-23.5 55q0 34 23.5 55.5t57.5 21.5q35 0 58 -21.5t23 -55.5q0 -33 -23 -55t-58 -22zM300 73q-34 0 -57.5 22t-23.5 55q0 34 23.5 55.5t57.5 21.5q35 0 58 -21.5t23 -55.5q0 -33 -23 -55t-58 -22zM70 278v104h460v-104h-460z" />
    <glyph glyph-name="oslash" unicode="&#xf8;" 
d="M300 -12q-65 0 -123 30.5t-94 89t-36 140.5t36 140.5t94 89t123 30.5t123 -30.5t94 -89t36 -140.5t-36 -140.5t-94 -89t-123 -30.5zM300 102q34 0 56.5 18.5t34 51.5t11.5 76t-11.5 76t-34 51.5t-56.5 18.5t-56.5 -18.5t-34 -51.5t-11.5 -76t11.5 -76t34 -51.5
t56.5 -18.5zM118 -27l-57 46l421 506l57 -47z" />
    <glyph glyph-name="ugrave" unicode="&#xf9;" 
d="M223 -12q-85 0 -123 54t-38 148v306h147v-287q0 -50 15.5 -73t56.5 -23q28 0 50 12t47 45v326h147v-496h-120l-11 71h-4q-33 -37 -73 -60t-94 -23zM302 561l-181 156l100 98l153 -182z" />
    <glyph glyph-name="uacute" unicode="&#xfa;" 
d="M223 -12q-85 0 -123 54t-38 148v306h147v-287q0 -50 15.5 -73t56.5 -23q28 0 50 12t47 45v326h147v-496h-120l-11 71h-4q-33 -37 -73 -60t-94 -23zM290 561l-72 72l153 182l100 -98z" />
    <glyph glyph-name="ucircumflex" unicode="&#xfb;" 
d="M223 -12q-85 0 -123 54t-38 148v306h147v-287q0 -50 15.5 -73t56.5 -23q28 0 50 12t47 45v326h147v-496h-120l-11 71h-4q-33 -37 -73 -60t-94 -23zM169 561l-56 52l108 131h150l108 -131l-56 -52l-125 92h-4z" />
    <glyph glyph-name="udieresis" unicode="&#xfc;" 
d="M223 -12q-85 0 -123 54t-38 148v306h147v-287q0 -50 15.5 -73t56.5 -23q28 0 50 12t47 45v326h147v-496h-120l-11 71h-4q-33 -37 -73 -60t-94 -23zM185 571q-35 0 -57.5 23.5t-22.5 56.5q0 34 22.5 57.5t57.5 23.5q36 0 58 -23.5t22 -57.5q0 -33 -22 -56.5t-58 -23.5z
M407 571q-36 0 -58 23.5t-22 56.5q0 34 22 57.5t58 23.5q35 0 57.5 -23.5t22.5 -57.5q0 -33 -22.5 -56.5t-57.5 -23.5z" />
    <glyph glyph-name="yacute" unicode="&#xfd;" 
d="M143 -194q-22 0 -41 3t-35 7l26 112q10 -3 20 -4.5t19 -1.5q43 0 67.5 18.5t36.5 46.5l10 26l-215 483h146l83 -213q14 -35 26 -72.5t24 -76.5h4q10 37 22 75t23 74l73 213h139l-196 -501q-23 -62 -53.5 -104t-73 -63.5t-105.5 -21.5zM302 561l-72 72l153 182l100 -98z
" />
    <glyph glyph-name="thorn" unicode="&#xfe;" 
d="M72 -184v885h147v-173l-5 -77h3q29 27 64.5 42t72.5 15q61 0 106 -31t69 -88t24 -133q0 -85 -31 -145t-80 -91.5t-103 -31.5q-37 0 -67.5 15t-54.5 39h-3l5 -81v-145h-147zM304 108q27 0 49 15t35.5 47.5t13.5 83.5q0 45 -9.5 74.5t-30 44.5t-52.5 15q-22 0 -45 -10.5
t-46 -35.5v-201q20 -17 43.5 -25t41.5 -8z" />
    <glyph glyph-name="ydieresis" unicode="&#xff;" 
d="M143 -194q-22 0 -41 3t-35 7l26 112q10 -3 20 -4.5t19 -1.5q43 0 67.5 18.5t36.5 46.5l10 26l-215 483h146l83 -213q14 -35 26 -72.5t24 -76.5h4q10 37 22 75t23 74l73 213h139l-196 -501q-23 -62 -53.5 -104t-73 -63.5t-105.5 -21.5zM197 571q-35 0 -57.5 23.5
t-22.5 56.5q0 34 22.5 57.5t57.5 23.5q36 0 58 -23.5t22 -57.5q0 -33 -22 -56.5t-58 -23.5zM419 571q-36 0 -58 23.5t-22 56.5q0 34 22 57.5t58 23.5q35 0 57.5 -23.5t22.5 -57.5q0 -33 -22.5 -56.5t-57.5 -23.5z" />
    <glyph glyph-name="Amacron" unicode="&#x100;" 
d="M9 0l203 652h176l203 -652h-156l-84 330q-12 49 -26 104t-26 106h-4q-12 -51 -25 -106t-26 -104l-85 -330h-150zM143 155v115h312v-115h-312zM149 721v94h302v-94h-302z" />
    <glyph glyph-name="amacron" unicode="&#x101;" 
d="M224 -12q-50 0 -86.5 20t-56.5 54t-20 76q0 83 75.5 127t251.5 54q-3 23 -15 39t-34.5 24.5t-56.5 8.5q-24 0 -48 -5.5t-49.5 -16t-53.5 -24.5l-52 96q34 20 71.5 35t78 23.5t82.5 8.5q70 0 120 -24.5t77 -74t27 -125.5v-284h-120l-11 56h-4q-37 -28 -82 -48t-94 -20z
M271 102q33 0 62 13.5t55 33.5v82q-73 -4 -113.5 -15t-56.5 -28t-16 -39q0 -15 8.5 -26t24 -16t36.5 -5zM172 592v93h296v-93h-296z" />
    <glyph glyph-name="Abreve" unicode="&#x102;" 
d="M9 0l203 652h176l203 -652h-156l-84 330q-12 49 -26 104t-26 106h-4q-12 -51 -25 -106t-26 -104l-85 -330h-150zM143 155v115h312v-115h-312zM300 697q-50 0 -84.5 16t-54 46.5t-24.5 74.5l80 14q7 -31 28 -48.5t55 -17.5t55 17.5t28 48.5l80 -14q-4 -44 -24 -74.5
t-54.5 -46.5t-84.5 -16z" />
    <glyph glyph-name="abreve" unicode="&#x103;" 
d="M224 -12q-50 0 -86.5 20t-56.5 54t-20 76q0 83 75.5 127t251.5 54q-3 23 -15 39t-34.5 24.5t-56.5 8.5q-24 0 -48 -5.5t-49.5 -16t-53.5 -24.5l-52 96q34 20 71.5 35t78 23.5t82.5 8.5q70 0 120 -24.5t77 -74t27 -125.5v-284h-120l-11 56h-4q-37 -28 -82 -48t-94 -20z
M271 102q33 0 62 13.5t55 33.5v82q-73 -4 -113.5 -15t-56.5 -28t-16 -39q0 -15 8.5 -26t24 -16t36.5 -5zM320 572q-57 0 -94 21t-55.5 56.5t-19.5 79.5l84 14q3 -22 13 -40t28 -28.5t44 -10.5t44 10.5t28 28.5t13 40l84 -14q-1 -44 -19.5 -79.5t-55 -56.5t-94.5 -21z" />
    <glyph glyph-name="Aogonek" unicode="&#x104;" 
d="M507 -227q-49 0 -83 25t-34 71q0 32 14.5 58t34 45t36.5 28h-40l-84 330q-13 49 -26.5 104t-25.5 106h-4q-12 -51 -25 -106t-26 -104l-85 -330h-150l203 652h176l203 -652q-42 -5 -67.5 -33t-25.5 -60q0 -18 12 -28.5t29 -10.5q12 0 23 5.5t18 10.5l35 -74
q-20 -15 -49.5 -26t-58.5 -11zM142 155v115h314v-115h-314z" />
    <glyph glyph-name="aogonek" unicode="&#x105;" 
d="M446 -227q-48 0 -82.5 25t-34.5 74q0 32 13.5 56t34.5 42t39 28l-12 58h-4q-37 -28 -82 -48t-94 -20q-50 0 -86.5 20t-56.5 54t-20 76q0 83 75.5 127t251.5 54q-3 23 -15 39t-34.5 24.5t-56.5 8.5q-24 0 -48 -5.5t-49.5 -16t-53.5 -24.5l-52 96q34 20 71.5 35t78 23.5
t82.5 8.5q70 0 120 -24.5t77 -74t27 -125.5v-284q-57 -16 -82 -42.5t-25 -51.5q0 -24 16.5 -35t36.5 -11q13 0 26 4.5t20 9.5l31 -65q-20 -17 -52 -26.5t-60 -9.5zM271 102q33 0 62 13.5t55 33.5v82q-73 -4 -113.5 -15t-56.5 -28t-16 -39q0 -15 8.5 -26t24 -16t36.5 -5z" />
    <glyph glyph-name="Cacute" unicode="&#x106;" 
d="M356 -12q-61 0 -115.5 21t-96.5 63.5t-66 105t-24 144.5q0 108 41.5 184.5t112 117t157.5 40.5q62 0 112 -25.5t83 -57.5l-81 -91q-23 22 -50.5 34.5t-63.5 12.5q-46 0 -82 -25.5t-57 -72.5t-21 -112q0 -67 21 -114.5t58.5 -72.5t86.5 -25q36 0 65 16t53 42l81 -89
q-40 -47 -94 -71.5t-120 -24.5zM316 680l-65 74l171 140l78 -95z" />
    <glyph glyph-name="cacute" unicode="&#x107;" 
d="M343 -12q-78 0 -140.5 30.5t-99 89t-36.5 140.5t40 140.5t105.5 89t141.5 30.5q59 0 107 -18.5t79 -48.5l-68 -91q-29 20 -55.5 29.5t-54.5 9.5q-42 0 -75 -17t-51 -49t-18 -75t17.5 -75t49 -49t72.5 -17q39 0 71.5 14t59.5 33l59 -93q-44 -37 -98.5 -55t-105.5 -18z
M336 561l-72 72l153 182l100 -98z" />
    <glyph glyph-name="Ccircumflex" unicode="&#x108;" 
d="M356 -12q-61 0 -115.5 21t-96.5 63.5t-66 105t-24 144.5q0 108 41.5 184.5t112 117t157.5 40.5q62 0 112 -25.5t83 -57.5l-81 -91q-23 22 -50.5 34.5t-63.5 12.5q-46 0 -82 -25.5t-57 -72.5t-21 -112q0 -67 21 -114.5t58.5 -72.5t86.5 -25q36 0 65 16t53 42l81 -89
q-40 -47 -94 -71.5t-120 -24.5zM247 685l-64 39l90 111h160l90 -111l-64 -39l-104 84h-4z" />
    <glyph glyph-name="ccircumflex" unicode="&#x109;" 
d="M343 -12q-78 0 -140.5 30.5t-99 89t-36.5 140.5t40 140.5t105.5 89t141.5 30.5q59 0 107 -18.5t79 -48.5l-68 -91q-29 20 -55.5 29.5t-54.5 9.5q-42 0 -75 -17t-51 -49t-18 -75t17.5 -75t49 -49t72.5 -17q39 0 71.5 14t59.5 33l59 -93q-44 -37 -98.5 -55t-105.5 -18z
M215 561l-56 52l108 131h150l108 -131l-56 -52l-125 92h-4z" />
    <glyph glyph-name="Cdotaccent" unicode="&#x10a;" 
d="M356 -12q-61 0 -115.5 21t-96.5 63.5t-66 105t-24 144.5q0 108 41.5 184.5t112 117t157.5 40.5q62 0 112 -25.5t83 -57.5l-81 -91q-23 22 -50.5 34.5t-63.5 12.5q-46 0 -82 -25.5t-57 -72.5t-21 -112q0 -67 21 -114.5t58.5 -72.5t86.5 -25q36 0 65 16t53 42l81 -89
q-40 -47 -94 -71.5t-120 -24.5zM353 701q-39 0 -64.5 23t-25.5 61q0 37 25.5 60t64.5 23q40 0 65 -23t25 -60q0 -38 -25 -61t-65 -23z" />
    <glyph glyph-name="cdotaccent" unicode="&#x10b;" 
d="M343 -12q-78 0 -140.5 30.5t-99 89t-36.5 140.5t40 140.5t105.5 89t141.5 30.5q59 0 107 -18.5t79 -48.5l-68 -91q-29 20 -55.5 29.5t-54.5 9.5q-42 0 -75 -17t-51 -49t-18 -75t17.5 -75t49 -49t72.5 -17q39 0 71.5 14t59.5 33l59 -93q-44 -37 -98.5 -55t-105.5 -18z
M342 574q-42 0 -70 24.5t-28 64.5q0 41 28 66.5t70 25.5q43 0 70.5 -25.5t27.5 -66.5q0 -40 -27.5 -64.5t-70.5 -24.5z" />
    <glyph glyph-name="Ccaron" unicode="&#x10c;" 
d="M356 -12q-61 0 -115.5 21t-96.5 63.5t-66 105t-24 144.5q0 108 41.5 184.5t112 117t157.5 40.5q62 0 112 -25.5t83 -57.5l-81 -91q-23 22 -50.5 34.5t-63.5 12.5q-46 0 -82 -25.5t-57 -72.5t-21 -112q0 -67 21 -114.5t58.5 -72.5t86.5 -25q36 0 65 16t53 42l81 -89
q-40 -47 -94 -71.5t-120 -24.5zM273 702l-90 110l64 40l104 -84h4l104 84l64 -40l-90 -110h-160z" />
    <glyph glyph-name="ccaron" unicode="&#x10d;" 
d="M343 -12q-78 0 -140.5 30.5t-99 89t-36.5 140.5t40 140.5t105.5 89t141.5 30.5q59 0 107 -18.5t79 -48.5l-68 -91q-29 20 -55.5 29.5t-54.5 9.5q-42 0 -75 -17t-51 -49t-18 -75t17.5 -75t49 -49t72.5 -17q39 0 71.5 14t59.5 33l59 -93q-44 -37 -98.5 -55t-105.5 -18z
M267 577l-108 131l56 52l125 -92h4l125 92l56 -52l-108 -131h-150z" />
    <glyph glyph-name="Dcaron" unicode="&#x10e;" 
d="M70 0v652h180q95 0 165.5 -34t109.5 -105.5t39 -183.5t-38.5 -185t-107.5 -108.5t-159 -35.5h-189zM218 119h24q52 0 90 20t59.5 66t21.5 124t-21.5 122.5t-59.5 63t-90 18.5h-24v-414zM220 702l-90 110l64 40l104 -84h4l104 84l64 -40l-90 -110h-160z" />
    <glyph glyph-name="dcaron" unicode="&#x10f;" 
d="M219 -12q-85 0 -135 69.5t-50 190.5q0 81 27 139t70 89.5t90 31.5q36 0 60.5 -14.5t48.5 -38.5h3l-6 77v169h138v-701h-111l-11 51h-4q-25 -25 -56 -44t-64 -19zM256 108q20 0 36 11.5t35 34.5v201q-19 16 -34.5 24.5t-32.5 8.5q-22 0 -41.5 -15t-31 -45.5t-11.5 -77.5
q0 -73 21.5 -107.5t58.5 -34.5zM509 548l-5 274h130l-1 -98l-24 -176h-100z" />
    <glyph glyph-name="Dcroat" unicode="&#x110;" 
d="M70 0v298h-70v69l70 6v279h181q94 0 164.5 -34t109.5 -105.5t39 -183.5t-39 -185t-107.5 -108.5t-158.5 -35.5h-189zM218 119h24q51 0 89 20t60 66t22 124t-22 122.5t-60 63t-89 18.5h-24v-160h108v-75h-108v-179z" />
    <glyph glyph-name="dcroat" unicode="&#x111;" 
d="M257 -12q-95 0 -152.5 66.5t-57.5 183.5q0 78 31 134t79.5 86t101.5 30q42 0 71.5 -14.5t53.5 -39.5h4l-7 77v189h147v-700h-120l-11 51h-3q-27 -27 -63.5 -45t-73.5 -18zM294 108q25 0 46.5 10.5t40.5 36.5v180q-20 18 -40.5 25.5t-40.5 7.5q-27 0 -50.5 -14t-37.5 -42
t-14 -73q0 -67 25 -99t71 -32zM225 553v76h369v-70l-74 -6h-295z" />
    <glyph glyph-name="Emacron" unicode="&#x112;" 
d="M92 0v652h432v-124h-284v-131h241v-123h-241v-150h294v-124h-442zM172 721v94h302v-94h-302z" />
    <glyph glyph-name="emacron" unicode="&#x113;" 
d="M330 -12q-77 0 -139.5 30.5t-99 89t-36.5 140.5q0 81 37 139.5t96 89.5t125 31q77 0 129 -31.5t78.5 -85t26.5 -121.5q0 -20 -2.5 -38.5t-4.5 -27.5h-376v99h277l-23 -28q0 60 -25.5 90.5t-74.5 30.5q-36 0 -63 -16t-42 -49t-15 -83q0 -51 18 -83.5t52 -48.5t82 -16
q34 0 64.5 9t63.5 26l49 -89q-43 -27 -95 -42.5t-102 -15.5zM164 592v93h296v-93h-296z" />
    <glyph glyph-name="Ebreve" unicode="&#x114;" 
d="M92 0v652h432v-124h-284v-131h241v-123h-241v-150h294v-124h-442zM323 697q-50 0 -84.5 16t-54 46.5t-24.5 74.5l80 14q7 -31 28 -48.5t55 -17.5t55 17.5t28 48.5l80 -14q-4 -44 -24 -74.5t-54.5 -46.5t-84.5 -16z" />
    <glyph glyph-name="ebreve" unicode="&#x115;" 
d="M330 -12q-77 0 -139.5 30.5t-99 89t-36.5 140.5q0 81 37 139.5t96 89.5t125 31q77 0 129 -31.5t78.5 -85t26.5 -121.5q0 -20 -2.5 -38.5t-4.5 -27.5h-376v99h277l-23 -28q0 60 -25.5 90.5t-74.5 30.5q-36 0 -63 -16t-42 -49t-15 -83q0 -51 18 -83.5t52 -48.5t82 -16
q34 0 64.5 9t63.5 26l49 -89q-43 -27 -95 -42.5t-102 -15.5zM312 572q-57 0 -94 21t-55.5 56.5t-19.5 79.5l84 14q3 -22 13 -40t28 -28.5t44 -10.5t44 10.5t28 28.5t13 40l84 -14q-1 -44 -19.5 -79.5t-55 -56.5t-94.5 -21z" />
    <glyph glyph-name="Edotaccent" unicode="&#x116;" 
d="M92 0v652h432v-124h-284v-131h241v-123h-241v-150h294v-124h-442zM323 701q-39 0 -64.5 23t-25.5 61q0 37 25.5 60t64.5 23q40 0 65 -23t25 -60q0 -38 -25 -61t-65 -23z" />
    <glyph glyph-name="edotaccent" unicode="&#x117;" 
d="M330 -12q-77 0 -139.5 30.5t-99 89t-36.5 140.5q0 81 37 139.5t96 89.5t125 31q77 0 129 -31.5t78.5 -85t26.5 -121.5q0 -20 -2.5 -38.5t-4.5 -27.5h-376v99h277l-23 -28q0 60 -25.5 90.5t-74.5 30.5q-36 0 -63 -16t-42 -49t-15 -83q0 -51 18 -83.5t52 -48.5t82 -16
q34 0 64.5 9t63.5 26l49 -89q-43 -27 -95 -42.5t-102 -15.5zM312 574q-42 0 -70 24.5t-28 64.5q0 41 28 66.5t70 25.5q43 0 70.5 -25.5t27.5 -66.5q0 -40 -27.5 -64.5t-70.5 -24.5z" />
    <glyph glyph-name="Eogonek" unicode="&#x118;" 
d="M449 -227q-49 0 -83 25t-34 71q0 31 13 56.5t32 44.5t37 30h-320v652h430v-124h-283v-131h240v-123h-240v-150h293v-124h-5q-24 -1 -44 -15t-32.5 -34.5t-12.5 -43.5q0 -20 13.5 -29.5t30.5 -9.5q11 0 21 5.5t17 10.5l35 -74q-20 -15 -49.5 -26t-58.5 -11z" />
    <glyph glyph-name="eogonek" unicode="&#x119;" 
d="M415 -227q-51 0 -84 25t-33 74q0 42 24 74t67 65l8 -12q-24 -8 -41 -9.5t-26 -1.5q-77 0 -139.5 30.5t-99 89t-36.5 140.5q0 81 37 139.5t96 89.5t125 31q77 0 129 -31.5t78.5 -85t26.5 -121.5q0 -20 -2.5 -38.5t-4.5 -27.5h-376v99h277l-23 -28q0 60 -25.5 90.5
t-74.5 30.5q-36 0 -63 -16t-42 -49t-15 -83q0 -51 18 -83.5t52 -48.5t82 -16q34 0 64.5 9t63.5 26l49 -89q-51 -34 -79 -57t-39.5 -42.5t-11.5 -40.5q0 -23 15.5 -34.5t37.5 -11.5q13 0 25 4t21 11l32 -66q-21 -17 -53 -26.5t-60 -9.5z" />
    <glyph glyph-name="Ecaron" unicode="&#x11a;" 
d="M92 0v652h432v-124h-284v-131h241v-123h-241v-150h294v-124h-442zM243 702l-90 110l64 40l104 -84h4l104 84l64 -40l-90 -110h-160z" />
    <glyph glyph-name="ecaron" unicode="&#x11b;" 
d="M330 -12q-77 0 -139.5 30.5t-99 89t-36.5 140.5q0 81 37 139.5t96 89.5t125 31q77 0 129 -31.5t78.5 -85t26.5 -121.5q0 -20 -2.5 -38.5t-4.5 -27.5h-376v99h277l-23 -28q0 60 -25.5 90.5t-74.5 30.5q-36 0 -63 -16t-42 -49t-15 -83q0 -51 18 -83.5t52 -48.5t82 -16
q34 0 64.5 9t63.5 26l49 -89q-43 -27 -95 -42.5t-102 -15.5zM237 577l-108 131l56 52l125 -92h4l125 92l56 -52l-108 -131h-150z" />
    <glyph glyph-name="Gcircumflex" unicode="&#x11c;" 
d="M343 -12q-83 0 -151 37.5t-108 112t-40 184.5q0 109 40 185.5t108.5 116.5t152.5 40q66 0 113 -25.5t78 -57.5l-81 -91q-21 21 -46 34t-64 13q-42 0 -76 -25.5t-53.5 -72.5t-19.5 -112q0 -67 17 -114.5t52 -72.5t86 -25q19 0 36.5 5t27.5 15v112h-95v120h227v-300
q-33 -31 -87.5 -55t-116.5 -24zM224 685l-64 39l90 111h160l90 -111l-64 -39l-104 84h-4z" />
    <glyph glyph-name="gcircumflex" unicode="&#x11d;" 
d="M277 -211q-65 0 -115.5 13.5t-80 41.5t-29.5 72q0 30 19.5 55t57.5 44v4q-21 14 -35.5 34t-14.5 51q0 25 16.5 50t42.5 43v4q-27 18 -46 51t-19 76q0 60 29.5 100t78 60t104.5 20q46 0 82 -12h201v-108h-100q9 -11 15.5 -28.5t6.5 -36.5q0 -57 -27.5 -93.5t-73.5 -54.5
t-104 -18q-14 0 -32 2.5t-36 7.5q-12 -8 -17 -16t-5 -21q0 -19 20.5 -28t63.5 -9h92q98 0 149.5 -29t51.5 -96q0 -52 -36 -92.5t-102.5 -63.5t-156.5 -23zM285 246q21 0 38 9t27 27.5t10 45.5q0 26 -10 44t-27 27.5t-38 9.5q-20 0 -37 -9.5t-27 -27.5t-10 -44
q0 -27 10 -45.5t27 -27.5t37 -9zM298 -118q40 0 70 8t47 21.5t17 30.5q0 25 -22 31.5t-65 6.5h-62q-27 0 -44.5 2t-31.5 5q-19 -12 -27 -23.5t-8 -25.5q0 -27 34 -41.5t92 -14.5zM177 561l-56 52l108 131h150l108 -131l-56 -52l-125 92h-4z" />
    <glyph glyph-name="Gbreve" unicode="&#x11e;" 
d="M343 -12q-83 0 -151 37.5t-108 112t-40 184.5q0 109 40 185.5t108.5 116.5t152.5 40q66 0 113 -25.5t78 -57.5l-81 -91q-21 21 -46 34t-64 13q-42 0 -76 -25.5t-53.5 -72.5t-19.5 -112q0 -67 17 -114.5t52 -72.5t86 -25q19 0 36.5 5t27.5 15v112h-95v120h227v-300
q-33 -31 -87.5 -55t-116.5 -24zM330 697q-50 0 -84.5 16t-54 46.5t-24.5 74.5l80 14q7 -31 28 -48.5t55 -17.5t55 17.5t28 48.5l80 -14q-4 -44 -24 -74.5t-54.5 -46.5t-84.5 -16z" />
    <glyph glyph-name="gbreve" unicode="&#x11f;" 
d="M277 -211q-65 0 -115.5 13.5t-80 41.5t-29.5 72q0 30 19.5 55t57.5 44v4q-21 14 -35.5 34t-14.5 51q0 25 16.5 50t42.5 43v4q-27 18 -46 51t-19 76q0 60 29.5 100t78 60t104.5 20q46 0 82 -12h201v-108h-100q9 -11 15.5 -28.5t6.5 -36.5q0 -57 -27.5 -93.5t-73.5 -54.5
t-104 -18q-14 0 -32 2.5t-36 7.5q-12 -8 -17 -16t-5 -21q0 -19 20.5 -28t63.5 -9h92q98 0 149.5 -29t51.5 -96q0 -52 -36 -92.5t-102.5 -63.5t-156.5 -23zM285 246q21 0 38 9t27 27.5t10 45.5q0 26 -10 44t-27 27.5t-38 9.5q-20 0 -37 -9.5t-27 -27.5t-10 -44
q0 -27 10 -45.5t27 -27.5t37 -9zM298 -118q40 0 70 8t47 21.5t17 30.5q0 25 -22 31.5t-65 6.5h-62q-27 0 -44.5 2t-31.5 5q-19 -12 -27 -23.5t-8 -25.5q0 -27 34 -41.5t92 -14.5zM304 572q-57 0 -94 21t-55.5 56.5t-19.5 79.5l84 14q3 -22 13 -40t28 -28.5t44 -10.5t44 10.5
t28 28.5t13 40l84 -14q-1 -44 -19.5 -79.5t-55 -56.5t-94.5 -21z" />
    <glyph glyph-name="Gdotaccent" unicode="&#x120;" 
d="M343 -12q-83 0 -151 37.5t-108 112t-40 184.5q0 109 40 185.5t108.5 116.5t152.5 40q66 0 113 -25.5t78 -57.5l-81 -91q-21 21 -46 34t-64 13q-42 0 -76 -25.5t-53.5 -72.5t-19.5 -112q0 -67 17 -114.5t52 -72.5t86 -25q19 0 36.5 5t27.5 15v112h-95v120h227v-300
q-33 -31 -87.5 -55t-116.5 -24zM330 701q-39 0 -64.5 23t-25.5 61q0 37 25.5 60t64.5 23q40 0 65 -23t25 -60q0 -38 -25 -61t-65 -23z" />
    <glyph glyph-name="gdotaccent" unicode="&#x121;" 
d="M277 -211q-65 0 -115.5 13.5t-80 41.5t-29.5 72q0 30 19.5 55t57.5 44v4q-21 14 -35.5 34t-14.5 51q0 25 16.5 50t42.5 43v4q-27 18 -46 51t-19 76q0 60 29.5 100t78 60t104.5 20q46 0 82 -12h201v-108h-100q9 -11 15.5 -28.5t6.5 -36.5q0 -57 -27.5 -93.5t-73.5 -54.5
t-104 -18q-14 0 -32 2.5t-36 7.5q-12 -8 -17 -16t-5 -21q0 -19 20.5 -28t63.5 -9h92q98 0 149.5 -29t51.5 -96q0 -52 -36 -92.5t-102.5 -63.5t-156.5 -23zM285 246q21 0 38 9t27 27.5t10 45.5q0 26 -10 44t-27 27.5t-38 9.5q-20 0 -37 -9.5t-27 -27.5t-10 -44
q0 -27 10 -45.5t27 -27.5t37 -9zM298 -118q40 0 70 8t47 21.5t17 30.5q0 25 -22 31.5t-65 6.5h-62q-27 0 -44.5 2t-31.5 5q-19 -12 -27 -23.5t-8 -25.5q0 -27 34 -41.5t92 -14.5zM304 574q-42 0 -70 24.5t-28 64.5q0 41 28 66.5t70 25.5q43 0 70.5 -25.5t27.5 -66.5
q0 -40 -27.5 -64.5t-70.5 -24.5z" />
    <glyph glyph-name="uni0122" unicode="&#x122;" 
d="M343 -12q-83 0 -151 37.5t-108 112t-40 184.5q0 109 40 185.5t108.5 116.5t152.5 40q66 0 113 -25.5t78 -57.5l-81 -91q-21 21 -46 34t-64 13q-42 0 -76 -25.5t-53.5 -72.5t-19.5 -112q0 -67 17 -114.5t52 -72.5t86 -25q19 0 36.5 5t27.5 15v112h-95v120h227v-300
q-33 -31 -87.5 -55t-116.5 -24zM221 -239l-11 59q59 3 81 12.5t22 26.5q0 14 -15 23t-49 12l28 54q81 -7 111 -27t30 -57q0 -51 -51.5 -75.5t-145.5 -27.5z" />
    <glyph glyph-name="uni0123" unicode="&#x123;" 
d="M277 -211q-65 0 -115.5 13.5t-80 41.5t-29.5 72q0 30 19.5 55t57.5 44v4q-21 14 -35.5 34t-14.5 51q0 25 16.5 50t42.5 43v4q-27 18 -46 51t-19 76q0 60 29.5 100t78 60t104.5 20q46 0 82 -12h201v-108h-100q9 -11 15.5 -28.5t6.5 -36.5q0 -57 -27.5 -93.5t-73.5 -54.5
t-104 -18q-14 0 -32 2.5t-36 7.5q-12 -8 -17 -16t-5 -21q0 -19 20.5 -28t63.5 -9h92q98 0 149.5 -29t51.5 -96q0 -52 -36 -92.5t-102.5 -63.5t-156.5 -23zM285 246q21 0 38 9t27 27.5t10 45.5q0 26 -10 44t-27 27.5t-38 9.5q-20 0 -37 -9.5t-27 -27.5t-10 -44
q0 -27 10 -45.5t27 -27.5t37 -9zM298 -118q40 0 70 8t47 21.5t17 30.5q0 25 -22 31.5t-65 6.5h-62q-27 0 -44.5 2t-31.5 5q-19 -12 -27 -23.5t-8 -25.5q0 -27 34 -41.5t92 -14.5zM350 568q-80 7 -110.5 27.5t-30.5 56.5q0 51 52 75.5t145 27.5l11 -59q-59 -3 -81 -12
t-22 -27q0 -14 15 -23t49 -12z" />
    <glyph glyph-name="Hcircumflex" unicode="&#x124;" 
d="M64 0v652h147v-252h178v252h147v-652h-147v272h-178v-272h-147zM194 685l-64 39l90 111h160l90 -111l-64 -39l-104 84h-4z" />
    <glyph glyph-name="hcircumflex" unicode="&#x125;" 
d="M72 0v701h147v-172l-8 -95h3q28 29 68.5 51.5t96.5 22.5q84 0 122.5 -54t38.5 -148v-306h-147v287q0 50 -16.5 73t-56.5 23q-30 0 -52.5 -13.5t-48.5 -38.5v-331h-147zM39 745l-64 39l90 111h160l90 -111l-64 -39l-104 84h-4z" />
    <glyph glyph-name="Hbar" unicode="&#x126;" 
d="M3 484v69l67 6h527v-75h-594zM64 0v652h147v-252h178v252h147v-652h-147v272h-178v-272h-147z" />
    <glyph glyph-name="hbar" unicode="&#x127;" 
d="M72 0v700h147v-190l-9 -96h4q28 29 68.5 51.5t96.5 22.5q84 0 122.5 -54t38.5 -148v-286h-147v267q0 50 -16.5 73t-56.5 23q-30 0 -52.5 -13.5t-48.5 -38.5v-311h-147zM6 553v70l76 6h319v-76h-395z" />
    <glyph glyph-name="Itilde" unicode="&#x128;" 
d="M74 0v124h152v404h-152v124h452v-124h-152v-404h152v-124h-452zM371 692q-26 0 -46.5 9t-36.5 20t-29 20t-25 9q-14 0 -24 -10.5t-13 -38.5l-95 7q5 76 39.5 110t87.5 34q26 0 46.5 -9t36.5 -20t29 -20t25 -9q14 0 24 11t13 38l95 -7q-4 -75 -39 -109.5t-88 -34.5z" />
    <glyph glyph-name="itilde" unicode="&#x129;" 
d="M278 0v381h-200v115h347v-496h-147zM411 573q-23 0 -42 10t-34.5 22.5t-28 22t-24.5 9.5q-15 0 -23.5 -13t-11.5 -42l-92 5q2 52 16.5 85.5t41.5 50t66 16.5q24 0 42.5 -9.5t34 -22t28 -22.5t24.5 -10q15 0 23.5 13t11.5 42l92 -5q-2 -51 -16.5 -85t-41.5 -50.5
t-66 -16.5z" />
    <glyph glyph-name="Imacron" unicode="&#x12a;" 
d="M74 0v124h152v404h-152v124h452v-124h-152v-404h152v-124h-452zM149 721v94h302v-94h-302z" />
    <glyph glyph-name="imacron" unicode="&#x12b;" 
d="M278 0v381h-200v115h347v-496h-147zM197 592v93h296v-93h-296z" />
    <glyph glyph-name="Ibreve" unicode="&#x12c;" 
d="M74 0v124h152v404h-152v124h452v-124h-152v-404h152v-124h-452zM300 697q-50 0 -84.5 16t-54 46.5t-24.5 74.5l80 14q7 -31 28 -48.5t55 -17.5t55 17.5t28 48.5l80 -14q-4 -44 -24 -74.5t-54.5 -46.5t-84.5 -16z" />
    <glyph glyph-name="ibreve" unicode="&#x12d;" 
d="M278 0v381h-200v115h347v-496h-147zM345 572q-57 0 -94 21t-55.5 56.5t-19.5 79.5l84 14q3 -22 13 -40t28 -28.5t44 -10.5t44 10.5t28 28.5t13 40l84 -14q-1 -44 -19.5 -79.5t-55 -56.5t-94.5 -21z" />
    <glyph glyph-name="Iogonek" unicode="&#x12e;" 
d="M307 -227q-49 0 -82.5 25t-33.5 71q0 32 12.5 57.5t30 44t32.5 29.5h-192v124h152v404h-152v124h452v-124h-152v-404h152v-124h-151q-41 -17 -59 -42.5t-18 -50.5q0 -20 14 -29.5t30 -9.5q11 0 21.5 5.5t17.5 10.5l34 -74q-20 -15 -49.5 -26t-58.5 -11z" />
    <glyph glyph-name="iogonek" unicode="&#x12f;" 
d="M351 -227q-49 0 -83 25t-34 74q0 46 27 78t59 50h-42v381h-199v115h346v-497q-50 -17 -71 -43t-21 -50q0 -23 16 -34.5t37 -11.5q13 0 24.5 4.5t21.5 9.5l31 -65q-20 -17 -52 -26.5t-60 -9.5zM345 574q-42 0 -70 24.5t-28 64.5q0 41 28 66.5t70 25.5q43 0 70.5 -25.5
t27.5 -66.5q0 -40 -27.5 -64.5t-70.5 -24.5z" />
    <glyph glyph-name="Idotaccent" unicode="&#x130;" 
d="M74 0v124h152v404h-152v124h452v-124h-152v-404h152v-124h-452zM300 701q-39 0 -64.5 23t-25.5 61q0 37 25.5 60t64.5 23q40 0 65 -23t25 -60q0 -38 -25 -61t-65 -23z" />
    <glyph glyph-name="dotlessi" unicode="&#x131;" 
d="M278 0v381h-200v115h347v-496h-147z" />
    <glyph glyph-name="IJ" unicode="&#x132;" 
d="M74 0v652h148v-652h-148zM343 -182q-33 0 -55 5t-39 11l26 109q12 -4 23.5 -6.5t21.5 -2.5q33 0 45.5 19.5t12.5 60.5v638h148v-634q0 -54 -16.5 -99.5t-56.5 -73t-110 -27.5z" />
    <glyph glyph-name="ij" unicode="&#x133;" 
d="M77 0v496h147v-496h-147zM151 569q-37 0 -61.5 22t-24.5 56q0 35 24.5 56.5t61.5 21.5q38 0 62 -21.5t24 -56.5q0 -34 -24 -56t-62 -22zM357 -196q-30 0 -50.5 4t-36.5 10l26 108q10 -3 19.5 -5t19.5 -2q29 0 40.5 19.5t11.5 60.5v497h147v-493q0 -54 -15.5 -99.5
t-54.5 -72.5t-107 -27zM461 569q-37 0 -61.5 22t-24.5 56q0 35 24.5 56.5t61.5 21.5q38 0 62 -21.5t24 -56.5q0 -34 -24 -56t-62 -22z" />
    <glyph glyph-name="Jcircumflex" unicode="&#x134;" 
d="M273 -12q-54 0 -112.5 24t-101.5 84l85 91q28 -35 60 -53.5t64 -18.5q50 0 75.5 26t25.5 93v295h-255v123h402v-430q0 -64 -23.5 -117t-76 -85t-143.5 -32zM222 685l-64 39l90 111h160l90 -111l-64 -39l-104 84h-4z" />
    <glyph glyph-name="jcircumflex" unicode="&#x135;" 
d="M195 -196q-46 0 -83.5 9.5t-69.5 24.5l43 105q30 -13 54.5 -18.5t46.5 -5.5q36 0 56 11.5t28 34.5t8 59v357h-200v115h347v-466q0 -46 -11 -86.5t-37 -72t-70.5 -49.5t-111.5 -18zM218 561l-56 52l108 131h150l108 -131l-56 -52l-125 92h-4z" />
    <glyph glyph-name="uni0136" unicode="&#x136;" 
d="M68 0v652h149v-267h3l193 267h163l-359 -474v-178h-149zM431 0l-152 303l87 115l228 -418h-163zM223 -239l-11 59q59 3 81 12.5t22 26.5q0 14 -15 23t-49 12l28 54q81 -7 111 -27t30 -57q0 -51 -51.5 -75.5t-145.5 -27.5z" />
    <glyph glyph-name="uni0137" unicode="&#x137;" 
d="M76 0v701h147v-405h4l182 200h161l-347 -371v-125h-147zM426 0l-144 225l84 91l219 -316h-159zM222 -239l-11 59q59 3 81 12.5t22 26.5q0 14 -15 23t-49 12l28 54q81 -7 111 -27t30 -57q0 -51 -51.5 -75.5t-145.5 -27.5z" />
    <glyph glyph-name="kgreenlandic" unicode="&#x138;" 
d="M76 0v496h147v-197l3 1l183 196h161l-188 -204l203 -292h-159l-129 195l-74 -72v-123h-147z" />
    <glyph glyph-name="Lacute" unicode="&#x139;" 
d="M107 0v652h147v-528h290v-124h-437zM156 680l-65 74l171 140l78 -95z" />
    <glyph glyph-name="lacute" unicode="&#x13a;" 
d="M395 -12q-93 0 -141 56t-48 150v391h-155v115h302v-512q0 -46 25 -63.5t55 -17.5q18 0 36.5 4t41.5 12l32 -108q-38 -12 -69.5 -19.5t-78.5 -7.5zM237 740l-65 74l171 140l78 -95z" />
    <glyph glyph-name="uni013B" unicode="&#x13b;" 
d="M107 0v652h147v-528h290v-124h-437zM233 -239l-11 59q59 3 81 12.5t22 26.5q0 14 -15 23t-49 12l28 54q81 -7 111 -27t30 -57q0 -51 -51.5 -75.5t-145.5 -27.5z" />
    <glyph glyph-name="uni013C" unicode="&#x13c;" 
d="M395 -12q-93 0 -141 56t-48 150v391h-155v115h302v-512q0 -46 25 -63.5t55 -17.5q18 0 36.5 4t41.5 12l32 -108q-38 -12 -69.5 -19.5t-78.5 -7.5zM265 -239l-11 59q59 3 81 12.5t22 26.5q0 14 -15 23t-49 12l28 54q81 -7 111 -27t30 -57q0 -51 -51.5 -75.5t-145.5 -27.5z
" />
    <glyph glyph-name="Lcaron" unicode="&#x13d;" 
d="M107 0v652h147v-528h290v-124h-437zM369 510l-6 274h131l-2 -98l-24 -176h-99z" />
    <glyph glyph-name="lcaron" unicode="&#x13e;" 
d="M395 -12q-93 0 -141 56t-48 150v391h-155v115h302v-512q0 -46 25 -63.5t55 -17.5q18 0 36.5 4t41.5 12l32 -108q-38 -12 -69.5 -19.5t-78.5 -7.5zM414 548l-6 274h131l-2 -98l-24 -176h-99z" />
    <glyph glyph-name="Ldot" unicode="&#x13f;" 
d="M107 0v652h147v-528h290v-124h-437zM475 269q-42 0 -70 24.5t-28 64.5q0 41 28 66.5t70 25.5q43 0 70.5 -25.5t27.5 -66.5q0 -40 -27.5 -64.5t-70.5 -24.5z" />
    <glyph glyph-name="ldot" unicode="&#x140;" 
d="M345 -12q-93 0 -141 56t-48 150v391h-155v115h302v-512q0 -46 25 -63.5t55 -17.5q18 0 36.5 4t41.5 12l32 -108q-38 -12 -69.5 -19.5t-78.5 -7.5zM555 267q-42 0 -70 24.5t-28 64.5q0 41 28 66.5t70 25.5q43 0 70.5 -25.5t27.5 -66.5q0 -40 -27.5 -64.5t-70.5 -24.5z" />
    <glyph glyph-name="Lslash" unicode="&#x141;" 
d="M43 170l-50 88l130 73l116 50l195 108l49 -88l-244 -134l-116 -50zM107 0v652h147v-528h290v-124h-437z" />
    <glyph glyph-name="lslash" unicode="&#x142;" 
d="M121 230l-50 91l142 79l112 50l150 84l50 -92l-200 -109l-112 -50zM395 -12q-93 0 -141 56t-48 150v391h-156v116h303v-513q0 -46 25 -63.5t56 -17.5q17 0 35.5 4t41.5 12l33 -108q-39 -13 -70.5 -20t-78.5 -7z" />
    <glyph glyph-name="Nacute" unicode="&#x143;" 
d="M66 0v652h151l137 -324l56 -144h4q-5 52 -13 116t-8 121v231h141v-652h-151l-137 325l-56 142h-4q5 -53 13 -115.5t8 -120.5v-231h-141zM273 680l-65 74l171 140l78 -95z" />
    <glyph glyph-name="nacute" unicode="&#x144;" 
d="M72 0v496h120l11 -66h4q32 32 73.5 55t97.5 23q84 0 123 -54t39 -148v-306h-147v287q0 50 -16.5 73t-56.5 23q-30 0 -52.5 -13.5t-48.5 -38.5v-331h-147zM309 561l-72 72l153 182l100 -98z" />
    <glyph glyph-name="uni0145" unicode="&#x145;" 
d="M66 0v652h151l137 -324l56 -144h4q-5 52 -13 116t-8 121v231h141v-652h-151l-137 325l-56 142h-4q5 -53 13 -115.5t8 -120.5v-231h-141zM198 -239l-11 59q59 3 81 12.5t22 26.5q0 14 -15 23t-49 12l28 54q81 -7 111 -27t30 -57q0 -51 -51.5 -75.5t-145.5 -27.5z" />
    <glyph glyph-name="uni0146" unicode="&#x146;" 
d="M72 0v496h120l11 -66h4q32 32 73.5 55t97.5 23q84 0 123 -54t39 -148v-306h-147v287q0 50 -16.5 73t-56.5 23q-30 0 -52.5 -13.5t-48.5 -38.5v-331h-147zM204 -239l-11 59q59 3 81 12.5t22 26.5q0 14 -15 23t-49 12l28 54q81 -7 111 -27t30 -57q0 -51 -51.5 -75.5
t-145.5 -27.5z" />
    <glyph glyph-name="Ncaron" unicode="&#x147;" 
d="M66 0v652h151l137 -324l56 -144h4q-5 52 -13 116t-8 121v231h141v-652h-151l-137 325l-56 142h-4q5 -53 13 -115.5t8 -120.5v-231h-141zM230 702l-90 110l64 40l104 -84h4l104 84l64 -40l-90 -110h-160z" />
    <glyph glyph-name="ncaron" unicode="&#x148;" 
d="M72 0v496h120l11 -66h4q32 32 73.5 55t97.5 23q84 0 123 -54t39 -148v-306h-147v287q0 50 -16.5 73t-56.5 23q-30 0 -52.5 -13.5t-48.5 -38.5v-331h-147zM240 577l-108 131l56 52l125 -92h4l125 92l56 -52l-108 -131h-150z" />
    <glyph glyph-name="napostrophe" unicode="&#x149;" 
d="M216 0v496h120l11 -64h4q29 31 64.5 53.5t85.5 22.5q74 0 108.5 -53.5t34.5 -146.5v-308h-147v289q0 49 -12.5 71.5t-42.5 22.5q-24 0 -40.5 -13t-38.5 -37v-333h-147zM-8 290l-38 78q55 25 83.5 62.5t28.5 89.5l-7 95l60 -81q-14 -12 -34.5 -21t-39.5 -9
q-40 0 -65.5 25.5t-25.5 66.5q0 45 27 73t69 28q55 0 86 -42t31 -118q0 -82 -44 -144.5t-131 -102.5z" />
    <glyph glyph-name="Eng" unicode="&#x14a;" 
d="M361 -12q-21 0 -44.5 4t-37.5 13l32 128q6 -3 14 -5.5t19 -2.5q20 0 33.5 16.5t20.5 61t7 128.5q0 76 -11 121t-31 65t-49 20q-17 0 -35 -8.5t-35 -25t-31 -40.5v-463h-148v652h143v-62q20 24 42.5 40.5t47.5 25t54 8.5q58 0 104 -32.5t73 -105.5t27 -195
q0 -115 -19.5 -191.5t-61.5 -114t-114 -37.5z" />
    <glyph glyph-name="eng" unicode="&#x14b;" 
d="M369 -187q-30 0 -50.5 4.5t-35.5 9.5l26 109q10 -3 19 -5t18 -2q25 0 36 20t11 61v277q0 50 -16.5 73t-56.5 23q-30 0 -52.5 -13.5t-48.5 -38.5v-331h-147v496h120l11 -66h4q32 32 73.5 55t97.5 23q84 0 123 -54t39 -148v-291q0 -55 -16.5 -101t-54 -73.5t-100.5 -27.5z
" />
    <glyph glyph-name="Omacron" unicode="&#x14c;" 
d="M300 -12q-78 0 -137 39t-92 114.5t-33 187.5q0 109 33 183.5t92 113t137 38.5t137 -38.5t92 -113t33 -183.5q0 -112 -33 -187.5t-92 -114.5t-137 -39zM300 115q34 0 59 24.5t38.5 72t13.5 117.5q0 68 -13.5 114t-38.5 70t-59 24t-59 -24t-38.5 -70t-13.5 -114
q0 -70 13.5 -117.5t38.5 -72t59 -24.5zM149 721v94h302v-94h-302z" />
    <glyph glyph-name="omacron" unicode="&#x14d;" 
d="M300 -12q-65 0 -123 30.5t-94 89t-36 140.5t36 140.5t94 89t123 30.5t123 -30.5t94 -89t36 -140.5t-36 -140.5t-94 -89t-123 -30.5zM300 107q34 0 56.5 17t34 49t11.5 75t-11.5 75t-34 49t-56.5 17t-56.5 -17t-34 -49t-11.5 -75t11.5 -75t34 -49t56.5 -17zM152 592v93
h296v-93h-296z" />
    <glyph glyph-name="Obreve" unicode="&#x14e;" 
d="M300 -12q-78 0 -137 39t-92 114.5t-33 187.5q0 109 33 183.5t92 113t137 38.5t137 -38.5t92 -113t33 -183.5q0 -112 -33 -187.5t-92 -114.5t-137 -39zM300 115q34 0 59 24.5t38.5 72t13.5 117.5q0 68 -13.5 114t-38.5 70t-59 24t-59 -24t-38.5 -70t-13.5 -114
q0 -70 13.5 -117.5t38.5 -72t59 -24.5zM300 697q-50 0 -84.5 16t-54 46.5t-24.5 74.5l80 14q7 -31 28 -48.5t55 -17.5t55 17.5t28 48.5l80 -14q-4 -44 -24 -74.5t-54.5 -46.5t-84.5 -16z" />
    <glyph glyph-name="obreve" unicode="&#x14f;" 
d="M300 -12q-65 0 -123 30.5t-94 89t-36 140.5t36 140.5t94 89t123 30.5t123 -30.5t94 -89t36 -140.5t-36 -140.5t-94 -89t-123 -30.5zM300 107q34 0 56.5 17t34 49t11.5 75t-11.5 75t-34 49t-56.5 17t-56.5 -17t-34 -49t-11.5 -75t11.5 -75t34 -49t56.5 -17zM300 572
q-57 0 -94 21t-55.5 56.5t-19.5 79.5l84 14q3 -22 13 -40t28 -28.5t44 -10.5t44 10.5t28 28.5t13 40l84 -14q-1 -44 -19.5 -79.5t-55 -56.5t-94.5 -21z" />
    <glyph glyph-name="Ohungarumlaut" unicode="&#x150;" 
d="M300 -12q-78 0 -137 39t-92 114.5t-33 187.5q0 109 33 183.5t92 113t137 38.5t137 -38.5t92 -113t33 -183.5q0 -112 -33 -187.5t-92 -114.5t-137 -39zM300 115q34 0 59 24.5t38.5 72t13.5 117.5q0 68 -13.5 114t-38.5 70t-59 24t-59 -24t-38.5 -70t-13.5 -114
q0 -70 13.5 -117.5t38.5 -72t59 -24.5zM234 694l-73 34l101 161l94 -52zM421 694l-72 34l100 161l94 -52z" />
    <glyph glyph-name="ohungarumlaut" unicode="&#x151;" 
d="M300 -12q-65 0 -123 30.5t-94 89t-36 140.5t36 140.5t94 89t123 30.5t123 -30.5t94 -89t36 -140.5t-36 -140.5t-94 -89t-123 -30.5zM300 107q34 0 56.5 17t34 49t11.5 75t-11.5 75t-34 49t-56.5 17t-56.5 -17t-34 -49t-11.5 -75t11.5 -75t34 -49t56.5 -17zM247 565
l-78 35l88 181l98 -44zM426 565l-78 35l88 181l98 -44z" />
    <glyph glyph-name="OE" unicode="&#x152;" 
d="M287 0q-77 0 -137.5 35.5t-95.5 108.5t-35 185t36 183.5t98.5 105.5t141.5 34h290v-123h-160v-132h121v-123h-121v-150h170v-124h-308zM278 119h16v414h-16q-33 0 -57 -18.5t-37.5 -63t-13.5 -122.5q0 -79 13.5 -125t37.5 -65.5t57 -19.5z" />
    <glyph glyph-name="oe" unicode="&#x153;" 
d="M205 107q18 0 30 17t18.5 49t6.5 75t-6.5 75t-18.5 49.5t-30 17.5q-31 0 -46 -38.5t-15 -103.5q0 -64 15 -102.5t46 -38.5zM194 -12q-51 0 -92 30.5t-65.5 89t-24.5 140.5t25 140.5t67.5 89t92.5 30.5q44 0 76.5 -27t51.5 -89h-17q17 62 54.5 89t75.5 27q51 0 85.5 -32.5
t52 -87t17.5 -119.5q0 -20 -2 -37.5t-4 -27.5h-254v93h169l-24 -20q0 64 -12.5 91.5t-41.5 27.5q-26 0 -47 -34t-21 -114q0 -74 29 -109.5t68 -35.5q20 0 37.5 7t36.5 20l51 -95q-28 -23 -63.5 -35t-66.5 -12q-27 0 -55 10.5t-51 35t-34 65.5h18q-19 -61 -52.5 -86
t-79.5 -25z" />
    <glyph glyph-name="Racute" unicode="&#x154;" 
d="M70 0v652h231q69 0 126 -18.5t91.5 -63t34.5 -121.5q0 -75 -34.5 -122t-91.5 -69.5t-126 -22.5h-84v-235h-147zM217 352h72q58 0 88.5 24.5t30.5 72.5t-30.5 67t-88.5 19h-72v-183zM274 273l102 95l208 -368h-165zM264 680l-65 74l171 140l78 -95z" />
    <glyph glyph-name="racute" unicode="&#x155;" 
d="M116 0v496h120l12 -108h3q37 61 89.5 90.5t111.5 29.5q33 0 53.5 -5t42.5 -15l-30 -123q-23 7 -41.5 10.5t-46.5 3.5q-46 0 -90.5 -27t-76.5 -94v-258h-147zM343 561l-72 72l153 182l100 -98z" />
    <glyph glyph-name="uni0156" unicode="&#x156;" 
d="M70 0v652h231q69 0 126 -18.5t91.5 -63t34.5 -121.5q0 -75 -34.5 -122t-91.5 -69.5t-126 -22.5h-84v-235h-147zM217 352h72q58 0 88.5 24.5t30.5 72.5t-30.5 67t-88.5 19h-72v-183zM274 273l102 95l208 -368h-165zM218 -239l-11 59q59 3 81 12.5t22 26.5q0 14 -15 23
t-49 12l28 54q81 -7 111 -27t30 -57q0 -51 -51.5 -75.5t-145.5 -27.5z" />
    <glyph glyph-name="uni0157" unicode="&#x157;" 
d="M116 0v496h120l12 -108h3q37 61 89.5 90.5t111.5 29.5q33 0 53.5 -5t42.5 -15l-30 -123q-23 7 -41.5 10.5t-46.5 3.5q-46 0 -90.5 -27t-76.5 -94v-258h-147zM93 -239l-11 59q59 3 81 12.5t22 26.5q0 14 -15 23t-49 12l28 54q81 -7 111 -27t30 -57q0 -51 -51.5 -75.5
t-145.5 -27.5z" />
    <glyph glyph-name="Rcaron" unicode="&#x158;" 
d="M70 0v652h231q69 0 126 -18.5t91.5 -63t34.5 -121.5q0 -75 -34.5 -122t-91.5 -69.5t-126 -22.5h-84v-235h-147zM217 352h72q58 0 88.5 24.5t30.5 72.5t-30.5 67t-88.5 19h-72v-183zM274 273l102 95l208 -368h-165zM221 702l-90 110l64 40l104 -84h4l104 84l64 -40
l-90 -110h-160z" />
    <glyph glyph-name="rcaron" unicode="&#x159;" 
d="M116 0v496h120l12 -108h3q37 61 89.5 90.5t111.5 29.5q33 0 53.5 -5t42.5 -15l-30 -123q-23 7 -41.5 10.5t-46.5 3.5q-46 0 -90.5 -27t-76.5 -94v-258h-147zM274 577l-108 131l56 52l125 -92h4l125 92l56 -52l-108 -131h-150z" />
    <glyph glyph-name="Sacute" unicode="&#x15a;" 
d="M298 -12q-66 0 -130.5 24t-117.5 70l85 101q37 -30 81.5 -49t91.5 -19t69.5 16t22.5 41q0 23 -12 36.5t-35 24t-54 23.5l-84 36q-36 14 -68 37.5t-51.5 58t-19.5 82.5q0 54 30.5 97.5t84 70t124.5 26.5q59 0 116 -22t101 -64l-75 -93q-34 25 -68 38.5t-82 13.5
q-36 0 -59 -15t-23 -44q0 -19 14 -32t38 -23t55 -22l79 -34q44 -16 75 -39.5t48 -57.5t17 -80q0 -54 -29.5 -100t-86 -74t-137.5 -28zM282 680l-65 74l171 140l78 -95z" />
    <glyph glyph-name="sacute" unicode="&#x15b;" 
d="M296 -12q-66 0 -131 22.5t-112 53.5l63 92q45 -29 95.5 -44t104.5 -15q41 0 60 12.5t19 29.5q0 11 -5.5 18.5t-19 14t-37 12.5t-60.5 14q-101 22 -145 60t-44 95q0 70 61 112.5t167 42.5q67 0 121.5 -21.5t93.5 -46.5l-66 -88q-37 23 -79 35t-83 12q-23 0 -38 -4.5
t-23 -14t-8 -20.5q0 -20 26 -29.5t89 -23.5q76 -17 119 -39t59.5 -50.5t16.5 -69.5q0 -45 -27.5 -81t-82 -57.5t-134.5 -21.5zM306 561l-72 72l153 182l100 -98z" />
    <glyph glyph-name="Scircumflex" unicode="&#x15c;" 
d="M298 -12q-66 0 -130.5 24t-117.5 70l85 101q37 -30 81.5 -49t91.5 -19t69.5 16t22.5 41q0 23 -12 36.5t-35 24t-54 23.5l-84 36q-36 14 -68 37.5t-51.5 58t-19.5 82.5q0 54 30.5 97.5t84 70t124.5 26.5q59 0 116 -22t101 -64l-75 -93q-34 25 -68 38.5t-82 13.5
q-36 0 -59 -15t-23 -44q0 -19 14 -32t38 -23t55 -22l79 -34q44 -16 75 -39.5t48 -57.5t17 -80q0 -54 -29.5 -100t-86 -74t-137.5 -28zM213 685l-64 39l90 111h160l90 -111l-64 -39l-104 84h-4z" />
    <glyph glyph-name="scircumflex" unicode="&#x15d;" 
d="M296 -12q-66 0 -131 22.5t-112 53.5l63 92q45 -29 95.5 -44t104.5 -15q41 0 60 12.5t19 29.5q0 11 -5.5 18.5t-19 14t-37 12.5t-60.5 14q-101 22 -145 60t-44 95q0 70 61 112.5t167 42.5q67 0 121.5 -21.5t93.5 -46.5l-66 -88q-37 23 -79 35t-83 12q-23 0 -38 -4.5
t-23 -14t-8 -20.5q0 -20 26 -29.5t89 -23.5q76 -17 119 -39t59.5 -50.5t16.5 -69.5q0 -45 -27.5 -81t-82 -57.5t-134.5 -21.5zM185 561l-56 52l108 131h150l108 -131l-56 -52l-125 92h-4z" />
    <glyph glyph-name="Scedilla" unicode="&#x15e;" 
d="M298 -12q-66 0 -130.5 24t-117.5 70l85 101q37 -30 81.5 -49t91.5 -19t69.5 16t22.5 41q0 23 -12 36.5t-35 24t-54 23.5l-84 36q-36 14 -68 37.5t-51.5 58t-19.5 82.5q0 54 30.5 97.5t84 70t124.5 26.5q59 0 116 -22t101 -64l-75 -93q-34 25 -68 38.5t-82 13.5
q-36 0 -59 -15t-23 -44q0 -19 14 -32t38 -23t55 -22l79 -34q44 -16 75 -39.5t48 -57.5t17 -80q0 -54 -29.5 -100t-86 -74t-137.5 -28zM203 -239l-11 59q59 3 81 13t22 31q0 16 -15.5 26t-61.5 16l50 105h86l-30 -72q37 -9 56.5 -26t19.5 -49q0 -51 -51.5 -75.5t-145.5 -27.5
z" />
    <glyph glyph-name="scedilla" unicode="&#x15f;" 
d="M296 -12q-66 0 -131 22.5t-112 53.5l63 92q45 -29 95.5 -44t104.5 -15q41 0 60 12.5t19 29.5q0 11 -5.5 18.5t-19 14t-37 12.5t-60.5 14q-101 22 -145 60t-44 95q0 70 61 112.5t167 42.5q67 0 121.5 -21.5t93.5 -46.5l-66 -88q-37 23 -79 35t-83 12q-23 0 -38 -4.5
t-23 -14t-8 -20.5q0 -20 26 -29.5t89 -23.5q76 -17 119 -39t59.5 -50.5t16.5 -69.5q0 -45 -27.5 -81t-82 -57.5t-134.5 -21.5zM209 -239l-11 59q59 3 81 13t22 31q0 16 -15.5 26t-61.5 16l50 105h86l-30 -72q37 -9 56.5 -26t19.5 -49q0 -51 -51.5 -75.5t-145.5 -27.5z" />
    <glyph glyph-name="Scaron" unicode="&#x160;" 
d="M298 -12q-66 0 -130.5 24t-117.5 70l85 101q37 -30 81.5 -49t91.5 -19t69.5 16t22.5 41q0 23 -12 36.5t-35 24t-54 23.5l-84 36q-36 14 -68 37.5t-51.5 58t-19.5 82.5q0 54 30.5 97.5t84 70t124.5 26.5q59 0 116 -22t101 -64l-75 -93q-34 25 -68 38.5t-82 13.5
q-36 0 -59 -15t-23 -44q0 -19 14 -32t38 -23t55 -22l79 -34q44 -16 75 -39.5t48 -57.5t17 -80q0 -54 -29.5 -100t-86 -74t-137.5 -28zM239 702l-90 110l64 40l104 -84h4l104 84l64 -40l-90 -110h-160z" />
    <glyph glyph-name="scaron" unicode="&#x161;" 
d="M296 -12q-66 0 -131 22.5t-112 53.5l63 92q45 -29 95.5 -44t104.5 -15q41 0 60 12.5t19 29.5q0 11 -5.5 18.5t-19 14t-37 12.5t-60.5 14q-101 22 -145 60t-44 95q0 70 61 112.5t167 42.5q67 0 121.5 -21.5t93.5 -46.5l-66 -88q-37 23 -79 35t-83 12q-23 0 -38 -4.5
t-23 -14t-8 -20.5q0 -20 26 -29.5t89 -23.5q76 -17 119 -39t59.5 -50.5t16.5 -69.5q0 -45 -27.5 -81t-82 -57.5t-134.5 -21.5zM237 577l-108 131l56 52l125 -92h4l125 92l56 -52l-108 -131h-150z" />
    <glyph glyph-name="uni0162" unicode="&#x162;" 
d="M226 0v528h-195v124h538v-124h-195v-528h-148zM198 -239l-11 59q59 3 81 13t22 31q0 16 -15.5 26t-61.5 16l50 105h86l-30 -72q37 -9 56.5 -26t19.5 -49q0 -51 -51.5 -75.5t-145.5 -27.5z" />
    <glyph glyph-name="uni0163" unicode="&#x163;" 
d="M388 -12q-79 0 -125.5 27.5t-67.5 76.5t-21 114v175h-124v109l131 6l19 152h121v-152h210v-115h-210v-174q0 -37 11 -60t34 -33.5t59 -10.5q29 0 53 5t46 13l26 -106q-33 -10 -72.5 -18.5t-89.5 -8.5zM273 -239l-11 59q59 3 81 13t22 31q0 16 -15.5 26t-61.5 16l50 105
h86l-30 -72q37 -9 56.5 -26t19.5 -49q0 -51 -51.5 -75.5t-145.5 -27.5z" />
    <glyph glyph-name="Tcaron" unicode="&#x164;" 
d="M226 0v528h-195v124h538v-124h-195v-528h-148zM220 702l-90 110l64 40l104 -84h4l104 84l64 -40l-90 -110h-160z" />
    <glyph glyph-name="tcaron" unicode="&#x165;" 
d="M388 -12q-79 0 -125.5 27.5t-67.5 76.5t-21 114v175h-124v109l131 6l19 152h121v-152h210v-115h-210v-174q0 -37 11 -60t34 -33.5t59 -10.5q29 0 53 5t46 13l26 -106q-33 -10 -72.5 -18.5t-89.5 -8.5zM384 548l-6 274h131l-2 -98l-24 -176h-99z" />
    <glyph glyph-name="Tbar" unicode="&#x166;" 
d="M93 283v69l94 6h320v-75h-414zM226 0v528h-195v124h538v-124h-195v-528h-148z" />
    <glyph glyph-name="tbar" unicode="&#x167;" 
d="M50 217v70l135 6h326v-76h-461zM388 -12q-79 0 -125.5 27.5t-67.5 76.5t-21 114v175h-124v109l131 6l19 152h121v-152h210v-115h-210v-174q0 -37 11 -60t34 -33.5t59 -10.5q29 0 53 5t46 13l26 -106q-33 -10 -72.5 -18.5t-89.5 -8.5z" />
    <glyph glyph-name="Utilde" unicode="&#x168;" 
d="M302 -12q-60 0 -104.5 17.5t-74 51t-44.5 82t-15 112.5v401h147v-416q0 -39 10 -66t30 -41t51 -14t51.5 14t30.5 41t10 66v416h142v-401q0 -64 -14 -112.5t-43.5 -82t-73.5 -51t-103 -17.5zM371 692q-26 0 -46.5 9t-36.5 20t-29 20t-25 9q-14 0 -24 -10.5t-13 -38.5
l-95 7q5 76 39.5 110t87.5 34q26 0 46.5 -9t36.5 -20t29 -20t25 -9q14 0 24 11t13 38l95 -7q-4 -75 -39 -109.5t-88 -34.5z" />
    <glyph glyph-name="utilde" unicode="&#x169;" 
d="M223 -12q-85 0 -123 54t-38 148v306h147v-287q0 -50 15.5 -73t56.5 -23q28 0 50 12t47 45v326h147v-496h-120l-11 71h-4q-33 -37 -73 -60t-94 -23zM362 573q-23 0 -42 10t-34.5 22.5t-28 22t-24.5 9.5q-15 0 -23.5 -13t-11.5 -42l-92 5q2 52 16.5 85.5t41.5 50t66 16.5
q24 0 42.5 -9.5t34 -22t28 -22.5t24.5 -10q15 0 23.5 13t11.5 42l92 -5q-2 -51 -16.5 -85t-41.5 -50.5t-66 -16.5z" />
    <glyph glyph-name="Umacron" unicode="&#x16a;" 
d="M302 -12q-60 0 -104.5 17.5t-74 51t-44.5 82t-15 112.5v401h147v-416q0 -39 10 -66t30 -41t51 -14t51.5 14t30.5 41t10 66v416h142v-401q0 -64 -14 -112.5t-43.5 -82t-73.5 -51t-103 -17.5zM149 721v94h302v-94h-302z" />
    <glyph glyph-name="umacron" unicode="&#x16b;" 
d="M223 -12q-85 0 -123 54t-38 148v306h147v-287q0 -50 15.5 -73t56.5 -23q28 0 50 12t47 45v326h147v-496h-120l-11 71h-4q-33 -37 -73 -60t-94 -23zM148 592v93h296v-93h-296z" />
    <glyph glyph-name="Ubreve" unicode="&#x16c;" 
d="M302 -12q-60 0 -104.5 17.5t-74 51t-44.5 82t-15 112.5v401h147v-416q0 -39 10 -66t30 -41t51 -14t51.5 14t30.5 41t10 66v416h142v-401q0 -64 -14 -112.5t-43.5 -82t-73.5 -51t-103 -17.5zM300 697q-50 0 -84.5 16t-54 46.5t-24.5 74.5l80 14q7 -31 28 -48.5t55 -17.5
t55 17.5t28 48.5l80 -14q-4 -44 -24 -74.5t-54.5 -46.5t-84.5 -16z" />
    <glyph glyph-name="ubreve" unicode="&#x16d;" 
d="M223 -12q-85 0 -123 54t-38 148v306h147v-287q0 -50 15.5 -73t56.5 -23q28 0 50 12t47 45v326h147v-496h-120l-11 71h-4q-33 -37 -73 -60t-94 -23zM296 572q-57 0 -94 21t-55.5 56.5t-19.5 79.5l84 14q3 -22 13 -40t28 -28.5t44 -10.5t44 10.5t28 28.5t13 40l84 -14
q-1 -44 -19.5 -79.5t-55 -56.5t-94.5 -21z" />
    <glyph glyph-name="Uring" unicode="&#x16e;" 
d="M302 -12q-60 0 -104.5 17.5t-74 51t-44.5 82t-15 112.5v401h147v-416q0 -39 10 -66t30 -41t51 -14t51.5 14t30.5 41t10 66v416h142v-401q0 -64 -14 -112.5t-43.5 -82t-73.5 -51t-103 -17.5zM300 697q-51 0 -82.5 27t-31.5 72t31.5 71.5t82.5 26.5q50 0 82 -26.5t32 -71.5
t-32 -72t-82 -27zM300 752q17 0 29.5 11.5t12.5 32.5q0 19 -12.5 31t-29.5 12q-18 0 -30 -12t-12 -31q0 -21 12 -32.5t30 -11.5z" />
    <glyph glyph-name="uring" unicode="&#x16f;" 
d="M223 -12q-85 0 -123 54t-38 148v306h147v-287q0 -50 15.5 -73t56.5 -23q28 0 50 12t47 45v326h147v-496h-120l-11 71h-4q-33 -37 -73 -60t-94 -23zM296 568q-65 0 -98.5 30.5t-33.5 73.5t33.5 73t98.5 30q66 0 99 -30t33 -73t-33 -73.5t-99 -30.5zM296 623q18 0 30.5 14
t12.5 35t-12.5 34.5t-30.5 13.5t-30.5 -13.5t-12.5 -34.5t12.5 -35t30.5 -14z" />
    <glyph glyph-name="Uhungarumlaut" unicode="&#x170;" 
d="M302 -12q-60 0 -104.5 17.5t-74 51t-44.5 82t-15 112.5v401h147v-416q0 -39 10 -66t30 -41t51 -14t51.5 14t30.5 41t10 66v416h142v-401q0 -64 -14 -112.5t-43.5 -82t-73.5 -51t-103 -17.5zM234 694l-73 34l101 161l94 -52zM421 694l-72 34l100 161l94 -52z" />
    <glyph glyph-name="uhungarumlaut" unicode="&#x171;" 
d="M223 -12q-85 0 -123 54t-38 148v306h147v-287q0 -50 15.5 -73t56.5 -23q28 0 50 12t47 45v326h147v-496h-120l-11 71h-4q-33 -37 -73 -60t-94 -23zM243 565l-78 35l88 181l98 -44zM422 565l-78 35l88 181l98 -44z" />
    <glyph glyph-name="Uogonek" unicode="&#x172;" 
d="M322 -227q-49 0 -82.5 25t-33.5 71q0 31 12 55t28 41t25 25q-68 5 -114 37t-69.5 88t-23.5 136v401h147v-416q0 -39 10 -66t30 -41t50 -14q32 0 52 14t30.5 41t10.5 66v416h142v-401q0 -62 -14 -109.5t-42 -81t-72 -53.5q-40 -18 -60 -35.5t-27.5 -33.5t-7.5 -31
q0 -20 13.5 -29.5t30.5 -9.5q11 0 21 5.5t17 10.5l35 -74q-20 -15 -49.5 -26t-58.5 -11z" />
    <glyph glyph-name="uogonek" unicode="&#x173;" 
d="M436 -227q-48 0 -82.5 25t-34.5 74q0 31 13.5 55t34.5 41.5t39 28.5l-12 74h-4q-33 -37 -73 -60t-94 -23q-85 0 -123 54t-38 148v306h147v-287q0 -50 15.5 -73t56.5 -23q28 0 50 12t47 45v326h147v-497q-57 -16 -82 -42.5t-25 -50.5q0 -23 16.5 -34.5t36.5 -11.5
q13 0 26 4.5t20 9.5l31 -65q-20 -17 -52 -26.5t-60 -9.5z" />
    <glyph glyph-name="Wcircumflex" unicode="&#x174;" 
d="M91 0l-87 652h153l20 -347q0 -28 1 -54.5t1.5 -53t0.5 -56.5h4q4 30 9.5 56.5t11.5 53.5t11 54l44 182h94l41 -182q6 -27 11 -53t11 -53.5t10 -57.5h4q1 30 1.5 57.5t1 53.5t1.5 53l18 347h143l-80 -652h-158l-38 202q-6 31 -11 63t-7 61h-3q-3 -29 -7 -61t-10 -63
l-38 -202h-153zM194 685l-64 39l90 111h160l90 -111l-64 -39l-104 84h-4z" />
    <glyph glyph-name="wcircumflex" unicode="&#x175;" 
d="M85 0l-81 496h142l31 -230q5 -36 8.5 -72.5t7.5 -74.5h3q5 38 10.5 75t12.5 72l31 164h107l32 -164q7 -36 13.5 -72.5t11.5 -74.5h4q5 38 7.5 74.5t6.5 72.5l28 230h136l-76 -496h-173l-27 161q-4 33 -8.5 69t-9.5 78h-4q-3 -31 -7 -65.5t-10 -81.5l-26 -161h-170z
M173 561l-56 52l108 131h150l108 -131l-56 -52l-125 92h-4z" />
    <glyph glyph-name="Ycircumflex" unicode="&#x176;" 
d="M226 0v220l-210 432h158l66 -157q15 -37 29.5 -73.5t29.5 -75.5h4q16 39 31.5 75.5t29.5 73.5l66 157h154l-210 -432v-220h-148zM194 685l-64 39l90 111h160l90 -111l-64 -39l-104 84h-4z" />
    <glyph glyph-name="ycircumflex" unicode="&#x177;" 
d="M143 -194q-22 0 -41 3t-35 7l26 112q10 -3 20 -4.5t19 -1.5q43 0 67.5 18.5t36.5 46.5l10 26l-215 483h146l83 -213q14 -35 26 -72.5t24 -76.5h4q10 37 22 75t23 74l73 213h139l-196 -501q-23 -62 -53.5 -104t-73 -63.5t-105.5 -21.5zM181 561l-56 52l108 131h150
l108 -131l-56 -52l-125 92h-4z" />
    <glyph glyph-name="Ydieresis" unicode="&#x178;" 
d="M226 0v220l-210 432h158l66 -157q15 -37 29.5 -73.5t29.5 -75.5h4q16 39 31.5 75.5t29.5 73.5l66 157h154l-210 -432v-220h-148zM189 700q-32 0 -52.5 21.5t-20.5 52.5t20.5 51.5t52.5 20.5t53 -20.5t21 -51.5t-21 -52.5t-53 -21.5zM411 700q-32 0 -53 21.5t-21 52.5
t21 51.5t53 20.5t52.5 -20.5t20.5 -51.5t-20.5 -52.5t-52.5 -21.5z" />
    <glyph glyph-name="Zacute" unicode="&#x179;" 
d="M56 0v89l305 440h-276v123h458v-89l-305 -439h309v-124h-491zM282 680l-65 74l171 140l78 -95z" />
    <glyph glyph-name="zacute" unicode="&#x17a;" 
d="M70 0v79l259 302h-228v115h432v-78l-260 -303h267v-115h-470zM322 561l-72 72l153 182l100 -98z" />
    <glyph glyph-name="Zdotaccent" unicode="&#x17b;" 
d="M56 0v89l305 440h-276v123h458v-89l-305 -439h309v-124h-491zM319 701q-39 0 -64.5 23t-25.5 61q0 37 25.5 60t64.5 23q40 0 65 -23t25 -60q0 -38 -25 -61t-65 -23z" />
    <glyph glyph-name="zdotaccent" unicode="&#x17c;" 
d="M70 0v79l259 302h-228v115h432v-78l-260 -303h267v-115h-470zM328 574q-42 0 -70 24.5t-28 64.5q0 41 28 66.5t70 25.5q43 0 70.5 -25.5t27.5 -66.5q0 -40 -27.5 -64.5t-70.5 -24.5z" />
    <glyph glyph-name="Zcaron" unicode="&#x17d;" 
d="M56 0v89l305 440h-276v123h458v-89l-305 -439h309v-124h-491zM239 702l-90 110l64 40l104 -84h4l104 84l64 -40l-90 -110h-160z" />
    <glyph glyph-name="zcaron" unicode="&#x17e;" 
d="M70 0v79l259 302h-228v115h432v-78l-260 -303h267v-115h-470zM253 577l-108 131l56 52l125 -92h4l125 92l56 -52l-108 -131h-150z" />
    <glyph glyph-name="longs" unicode="&#x17f;" 
d="M213 0v509q0 57 23.5 103.5t72 73.5t126.5 27q43 0 81 -8.5t69 -18.5l-28 -108q-24 9 -49.5 14t-54.5 5q-47 0 -70 -21t-23 -66v-510h-147zM82 381v109l136 6h89v-115h-225z" />
    <glyph glyph-name="uni0180" unicode="&#x180;" 
d="M338 -12q-34 0 -69 17t-66 49h-4l-12 -54h-115v700h147l-3 -196l-2 -73h4q28 27 63.5 42t71.5 15q63 0 107.5 -29.5t68.5 -84t24 -127.5q0 -82 -30.5 -140t-79.5 -88.5t-105 -30.5zM305 108q27 0 49 14t35 44.5t13 77.5q0 42 -10 69t-30 41t-51 14q-24 0 -46 -10.5
t-46 -35.5v-181q21 -18 43.5 -25.5t42.5 -7.5zM6 553v70l76 6h319v-76h-395z" />
    <glyph glyph-name="uni018A" unicode="&#x18a;" 
d="M188 0v586h133v-467h13q33 0 57.5 20t38.5 67.5t14 128.5q0 78 -16 124t-47.5 66t-77.5 20h-60q-45 0 -73 -14t-41 -37.5t-13 -53.5q0 -34 13 -55.5t40 -37.5l-55 -94q-52 26 -81 68.5t-29 109.5q0 68 29 120.5t89.5 82.5t157.5 30q96 0 163 -35.5t102.5 -108
t35.5 -185.5q0 -115 -34 -189t-94 -110t-139 -36h-126z" />
    <glyph glyph-name="uni018F" unicode="&#x18f;" 
d="M303 -12q-74 0 -131.5 40t-89.5 115t-32 180q0 12 1 24t2 25h398v-108h-279l20 63q0 -82 14 -128t39 -65t58 -19q32 0 57 19t39.5 65t14.5 128q0 73 -14 119.5t-42.5 68.5t-69.5 22q-35 0 -62 -13.5t-47 -33.5l-68 101q34 32 80.5 52.5t108.5 20.5q78 0 136.5 -40
t91 -115t32.5 -182q0 -106 -33 -182t-91 -116.5t-133 -40.5z" />
    <glyph glyph-name="florin" unicode="&#x192;" 
d="M142 -96q-32 0 -57.5 4.5t-38.5 11.5l20 108q13 -4 26.5 -6t27.5 -3q27 1 43 13t26.5 42t17.5 87l34 296q12 73 35.5 118.5t66 67t111.5 21.5q14 0 32.5 -2.5t36 -7t27.5 -9.5l-28 -110q-11 4 -24.5 8t-31.5 4q-25 0 -42 -10t-27 -27.5t-14 -40.5l-42 -351
q-7 -59 -26.5 -108t-60.5 -77.5t-112 -28.5zM137 307v101l75 6h279v-107h-354z" />
    <glyph glyph-name="uni0193" unicode="&#x193;" 
d="M536 581l-119 -4q-15 26 -25 55t-10 53q0 37 17 67t48.5 48t75.5 18q31 0 50.5 -4t34.5 -9l-26 -109q-7 3 -13 5t-15 2q-22 0 -36.5 -12t-14.5 -36q0 -23 10 -40.5t23 -33.5zM343 -12q-83 0 -151 37.5t-108 112t-40 184.5q0 109 40 185.5t108.5 116.5t152.5 40
q66 0 113 -25.5t78 -57.5l-81 -91q-21 21 -46 34t-64 13q-42 0 -76 -25.5t-53.5 -72.5t-19.5 -112q0 -67 17 -114.5t52 -72.5t86 -25q19 0 36.5 5t27.5 15v112h-95v120h227v-300q-33 -31 -87.5 -55t-116.5 -24z" />
    <glyph glyph-name="Ohorn" unicode="&#x1a0;" 
d="M478 588l-68 49q31 9 46.5 28.5t15.5 56.5q0 19 -5 36.5t-10 28.5l109 44q11 -16 20 -42.5t9 -56.5q0 -56 -28.5 -92t-88.5 -52zM300 -12q-78 0 -137 39t-92 114.5t-33 187.5q0 109 33 183.5t92 113t137 38.5t137 -38.5t92 -113t33 -183.5q0 -112 -33 -187.5t-92 -114.5
t-137 -39zM300 115q34 0 59 24.5t38.5 71.5t13.5 118q0 68 -13.5 114t-38.5 70t-59 24t-59 -24t-38.5 -70t-13.5 -114q0 -71 13.5 -118t38.5 -71.5t59 -24.5z" />
    <glyph glyph-name="ohorn" unicode="&#x1a1;" 
d="M463 436l-69 48q34 9 55 32t21 70q0 19 -3.5 37t-11.5 28l108 48q13 -18 21.5 -45t8.5 -58q0 -43 -17 -75t-46 -53t-67 -32zM300 -12q-65 0 -123 30.5t-94 89t-36 140.5t36 140.5t94 89t123 30.5t123 -30.5t94 -89t36 -140.5t-36 -140.5t-94 -89t-123 -30.5zM300 107
q34 0 56.5 17t34 49t11.5 75t-11.5 75t-34 49t-56.5 17t-56.5 -17t-34 -49t-11.5 -75t11.5 -75t34 -49t56.5 -17z" />
    <glyph glyph-name="Uhorn" unicode="&#x1af;" 
d="M536 598l-72 54q19 1 35.5 6.5t27 21t10.5 45.5q0 20 -5 37t-10 28l109 44q11 -16 20 -42t9 -56q0 -41 -14.5 -69t-42.5 -45t-67 -24zM302 -12q-60 0 -104.5 17.5t-74 51t-44.5 82t-15 112.5v401h147v-416q0 -39 10 -66t30 -41t51 -14t51.5 14t30.5 41t10 66v416h142
v-401q0 -64 -14 -112.5t-43.5 -82t-73.5 -51t-103 -17.5z" />
    <glyph glyph-name="uhorn" unicode="&#x1b0;" 
d="M508 450l-97 46q20 1 40.5 8t34.5 26.5t14 57.5q0 19 -4 37t-12 28l109 47q13 -17 21 -44.5t8 -57.5q0 -40 -15 -69t-41 -48.5t-58 -30.5zM223 -12q-85 0 -123 54t-38 148v306h147v-287q0 -50 15.5 -73t56.5 -23q28 0 50 12t47 45v326h147v-496h-120l-11 71h-4
q-33 -37 -73 -60t-94 -23z" />
    <glyph glyph-name="uni01C2" unicode="&#x1c2;" 
d="M227 -184v884h146v-884h-146zM67 328v70l162 5h304v-75h-466zM67 132v70l162 5h304v-75h-466z" />
    <glyph glyph-name="uni01CD" unicode="&#x1cd;" 
d="M9 0l203 652h176l203 -652h-156l-84 330q-12 49 -26 104t-26 106h-4q-12 -51 -25 -106t-26 -104l-85 -330h-150zM143 155v115h312v-115h-312zM220 702l-90 110l64 40l104 -84h4l104 84l64 -40l-90 -110h-160z" />
    <glyph glyph-name="uni01CE" unicode="&#x1ce;" 
d="M224 -12q-50 0 -86.5 20t-56.5 54t-20 76q0 83 75.5 127t251.5 54q-3 23 -15 39t-34.5 24.5t-56.5 8.5q-24 0 -48 -5.5t-49.5 -16t-53.5 -24.5l-52 96q34 20 71.5 35t78 23.5t82.5 8.5q70 0 120 -24.5t77 -74t27 -125.5v-284h-120l-11 56h-4q-37 -28 -82 -48t-94 -20z
M271 102q33 0 62 13.5t55 33.5v82q-73 -4 -113.5 -15t-56.5 -28t-16 -39q0 -15 8.5 -26t24 -16t36.5 -5zM245 577l-108 131l56 52l125 -92h4l125 92l56 -52l-108 -131h-150z" />
    <glyph glyph-name="uni01CF" unicode="&#x1cf;" 
d="M74 0v124h152v404h-152v124h452v-124h-152v-404h152v-124h-452zM220 702l-90 110l64 40l104 -84h4l104 84l64 -40l-90 -110h-160z" />
    <glyph glyph-name="uni01D0" unicode="&#x1d0;" 
d="M278 0v381h-200v115h347v-496h-147zM270 577l-108 131l56 52l125 -92h4l125 92l56 -52l-108 -131h-150z" />
    <glyph glyph-name="uni01D1" unicode="&#x1d1;" 
d="M300 -12q-78 0 -137 39t-92 114.5t-33 187.5q0 109 33 183.5t92 113t137 38.5t137 -38.5t92 -113t33 -183.5q0 -112 -33 -187.5t-92 -114.5t-137 -39zM300 115q34 0 59 24.5t38.5 72t13.5 117.5q0 68 -13.5 114t-38.5 70t-59 24t-59 -24t-38.5 -70t-13.5 -114
q0 -70 13.5 -117.5t38.5 -72t59 -24.5zM220 702l-90 110l64 40l104 -84h4l104 84l64 -40l-90 -110h-160z" />
    <glyph glyph-name="uni01D2" unicode="&#x1d2;" 
d="M300 -12q-65 0 -123 30.5t-94 89t-36 140.5t36 140.5t94 89t123 30.5t123 -30.5t94 -89t36 -140.5t-36 -140.5t-94 -89t-123 -30.5zM300 107q34 0 56.5 17t34 49t11.5 75t-11.5 75t-34 49t-56.5 17t-56.5 -17t-34 -49t-11.5 -75t11.5 -75t34 -49t56.5 -17zM225 577
l-108 131l56 52l125 -92h4l125 92l56 -52l-108 -131h-150z" />
    <glyph glyph-name="uni01D3" unicode="&#x1d3;" 
d="M302 -12q-60 0 -104.5 17.5t-74 51t-44.5 82t-15 112.5v401h147v-416q0 -39 10 -66t30 -41t51 -14t51.5 14t30.5 41t10 66v416h142v-401q0 -64 -14 -112.5t-43.5 -82t-73.5 -51t-103 -17.5zM220 702l-90 110l64 40l104 -84h4l104 84l64 -40l-90 -110h-160z" />
    <glyph glyph-name="uni01D4" unicode="&#x1d4;" 
d="M223 -12q-85 0 -123 54t-38 148v306h147v-287q0 -50 15.5 -73t56.5 -23q28 0 50 12t47 45v326h147v-496h-120l-11 71h-4q-33 -37 -73 -60t-94 -23zM221 577l-108 131l56 52l125 -92h4l125 92l56 -52l-108 -131h-150z" />
    <glyph glyph-name="uni01D5" unicode="&#x1d5;" 
d="M302 -12q-60 0 -104.5 17.5t-74 51t-44.5 82t-15 112.5v401h147v-416q0 -39 10 -66t30 -41t51 -14t51.5 14t30.5 41t10 66v416h142v-401q0 -64 -14 -112.5t-43.5 -82t-73.5 -51t-103 -17.5zM189 700q-27 0 -44 18t-17 44t17 43.5t44 17.5t44.5 -17.5t17.5 -43.5
t-17.5 -44t-44.5 -18zM411 700q-27 0 -44.5 18t-17.5 44t17.5 43.5t44.5 17.5t44 -17.5t17 -43.5t-17 -44t-44 -18zM149 872v69h302v-69h-302z" />
    <glyph glyph-name="uni01D6" unicode="&#x1d6;" 
d="M223 -12q-85 0 -123 54t-38 148v306h147v-287q0 -50 15.5 -73t56.5 -23q28 0 50 12t47 45v326h147v-496h-120l-11 71h-4q-33 -37 -73 -60t-94 -23zM187 571q-27 0 -44.5 18t-17.5 43q0 27 17.5 44.5t44.5 17.5t44.5 -17.5t17.5 -44.5q0 -25 -17.5 -43t-44.5 -18zM405 571
q-27 0 -44.5 18t-17.5 43q0 27 17.5 44.5t44.5 17.5t44.5 -17.5t17.5 -44.5q0 -25 -17.5 -43t-44.5 -18zM148 756v69h296v-69h-296z" />
    <glyph glyph-name="uni01D7" unicode="&#x1d7;" 
d="M302 -12q-60 0 -104.5 17.5t-74 51t-44.5 82t-15 112.5v401h147v-416q0 -39 10 -66t30 -41t51 -14t51.5 14t30.5 41t10 66v416h142v-401q0 -64 -14 -112.5t-43.5 -82t-73.5 -51t-103 -17.5zM189 700q-27 0 -44 18t-17 44t17 43.5t44 17.5t44.5 -17.5t17.5 -43.5
t-17.5 -44t-44.5 -18zM411 700q-27 0 -44.5 18t-17.5 44t17.5 43.5t44.5 17.5t44 -17.5t17 -43.5t-17 -44t-44 -18zM308 825l-63 39l95 145l92 -57z" />
    <glyph glyph-name="uni01D8" unicode="&#x1d8;" 
d="M223 -12q-85 0 -123 54t-38 148v306h147v-287q0 -50 15.5 -73t56.5 -23q28 0 50 12t47 45v326h147v-496h-120l-11 71h-4q-33 -37 -73 -60t-94 -23zM187 571q-27 0 -44.5 18t-17.5 43q0 27 17.5 44.5t44.5 17.5t44.5 -17.5t17.5 -44.5q0 -25 -17.5 -43t-44.5 -18zM405 571
q-27 0 -44.5 18t-17.5 43q0 27 17.5 44.5t44.5 17.5t44.5 -17.5t17.5 -44.5q0 -25 -17.5 -43t-44.5 -18zM303 713l-56 36l78 133l78 -52z" />
    <glyph glyph-name="uni01D9" unicode="&#x1d9;" 
d="M302 -12q-60 0 -104.5 17.5t-74 51t-44.5 82t-15 112.5v401h147v-416q0 -39 10 -66t30 -41t51 -14t51.5 14t30.5 41t10 66v416h142v-401q0 -64 -14 -112.5t-43.5 -82t-73.5 -51t-103 -17.5zM189 700q-27 0 -44 18t-17 44t17 43.5t44 17.5t44.5 -17.5t17.5 -43.5
t-17.5 -44t-44.5 -18zM411 700q-27 0 -44.5 18t-17.5 44t17.5 43.5t44.5 17.5t44 -17.5t17 -43.5t-17 -44t-44 -18zM237 854l-92 102l59 39l94 -73h4l94 73l59 -39l-92 -102h-126z" />
    <glyph glyph-name="uni01DA" unicode="&#x1da;" 
d="M223 -12q-85 0 -123 54t-38 148v306h147v-287q0 -50 15.5 -73t56.5 -23q28 0 50 12t47 45v326h147v-496h-120l-11 71h-4q-33 -37 -73 -60t-94 -23zM187 571q-27 0 -44.5 18t-17.5 43q0 27 17.5 44.5t44.5 17.5t44.5 -17.5t17.5 -44.5q0 -25 -17.5 -43t-44.5 -18zM405 571
q-27 0 -44.5 18t-17.5 43q0 27 17.5 44.5t44.5 17.5t44.5 -17.5t17.5 -44.5q0 -25 -17.5 -43t-44.5 -18zM238 737l-92 92l48 44l100 -65h4l100 65l48 -44l-92 -92h-116z" />
    <glyph glyph-name="uni01DB" unicode="&#x1db;" 
d="M302 -12q-60 0 -104.5 17.5t-74 51t-44.5 82t-15 112.5v401h147v-416q0 -39 10 -66t30 -41t51 -14t51.5 14t30.5 41t10 66v416h142v-401q0 -64 -14 -112.5t-43.5 -82t-73.5 -51t-103 -17.5zM189 700q-27 0 -44 18t-17 44t17 43.5t44 17.5t44.5 -17.5t17.5 -43.5
t-17.5 -44t-44.5 -18zM411 700q-27 0 -44.5 18t-17.5 44t17.5 43.5t44.5 17.5t44 -17.5t17 -43.5t-17 -44t-44 -18zM292 825l-124 127l92 57l95 -145z" />
    <glyph glyph-name="uni01DC" unicode="&#x1dc;" 
d="M223 -12q-85 0 -123 54t-38 148v306h147v-287q0 -50 15.5 -73t56.5 -23q28 0 50 12t47 45v326h147v-496h-120l-11 71h-4q-33 -37 -73 -60t-94 -23zM187 571q-27 0 -44.5 18t-17.5 43q0 27 17.5 44.5t44.5 17.5t44.5 -17.5t17.5 -44.5q0 -25 -17.5 -43t-44.5 -18zM405 571
q-27 0 -44.5 18t-17.5 43q0 27 17.5 44.5t44.5 17.5t44.5 -17.5t17.5 -44.5q0 -25 -17.5 -43t-44.5 -18zM289 713l-100 117l78 52l78 -133z" />
    <glyph glyph-name="uni01E2" unicode="&#x1e2;" 
d="M-3 0l218 652h371v-124h-145v-129h118v-124h-118v-151h154v-124h-284v541h-3q-13 -48 -27 -95t-26 -90l-107 -356h-151zM132 149v114h236v-114h-236zM240 721v94h302v-94h-302z" />
    <glyph glyph-name="uni01E3" unicode="&#x1e3;" 
d="M149 -12q-59 0 -96 40t-37 102q0 55 27.5 93t83 61.5t140.5 32.5v-87q-46 -5 -72 -16.5t-37 -28.5t-11 -37q0 -23 13.5 -34.5t33.5 -11.5q16 0 35.5 10.5t44.5 41.5l41 -66q-44 -54 -84 -77t-82 -23zM445 -12q-64 0 -109 32.5t-69 85.5t-24 116v70q0 60 -18 79.5
t-44 19.5q-27 0 -50.5 -9t-49.5 -25l-52 96q41 25 81.5 40t80.5 15q45 0 77 -22.5t55 -79.5h-30q30 57 66 79.5t77 22.5q52 0 87 -32.5t52.5 -87t17.5 -119.5q0 -20 -2 -37.5t-4 -27.5h-259v93h174l-24 -20q0 64 -12.5 91.5t-41.5 27.5q-18 0 -34.5 -14t-27 -46.5
t-10.5 -87.5q0 -48 13 -80t35 -48.5t51 -16.5q20 0 38.5 7t37.5 20l51 -95q-29 -23 -65 -35t-68 -12zM162 592v93h296v-93h-296z" />
    <glyph glyph-name="Gcaron" unicode="&#x1e6;" 
d="M343 -12q-83 0 -151 37.5t-108 112t-40 184.5q0 109 40 185.5t108.5 116.5t152.5 40q66 0 113 -25.5t78 -57.5l-81 -91q-21 21 -46 34t-64 13q-42 0 -76 -25.5t-53.5 -72.5t-19.5 -112q0 -67 17 -114.5t52 -72.5t86 -25q19 0 36.5 5t27.5 15v112h-95v120h227v-300
q-33 -31 -87.5 -55t-116.5 -24zM250 702l-90 110l64 40l104 -84h4l104 84l64 -40l-90 -110h-160z" />
    <glyph glyph-name="gcaron" unicode="&#x1e7;" 
d="M277 -211q-65 0 -115.5 13.5t-80 41.5t-29.5 72q0 30 19.5 55t57.5 44v4q-21 14 -35.5 34t-14.5 51q0 25 16.5 50t42.5 43v4q-27 18 -46 51t-19 76q0 60 29.5 100t78 60t104.5 20q46 0 82 -12h201v-108h-100q9 -11 15.5 -28.5t6.5 -36.5q0 -57 -27.5 -93.5t-73.5 -54.5
t-104 -18q-14 0 -32 2.5t-36 7.5q-12 -8 -17 -16t-5 -21q0 -19 20.5 -28t63.5 -9h92q98 0 149.5 -29t51.5 -96q0 -52 -36 -92.5t-102.5 -63.5t-156.5 -23zM285 246q21 0 38 9t27 27.5t10 45.5q0 26 -10 44t-27 27.5t-38 9.5q-20 0 -37 -9.5t-27 -27.5t-10 -44
q0 -27 10 -45.5t27 -27.5t37 -9zM298 -118q40 0 70 8t47 21.5t17 30.5q0 25 -22 31.5t-65 6.5h-62q-27 0 -44.5 2t-31.5 5q-19 -12 -27 -23.5t-8 -25.5q0 -27 34 -41.5t92 -14.5zM229 577l-108 131l56 52l125 -92h4l125 92l56 -52l-108 -131h-150z" />
    <glyph glyph-name="uni01EA" unicode="&#x1ea;" 
d="M322 -227q-49 0 -82.5 25t-33.5 71q0 41 21.5 71t44.5 50q-79 9 -131 56.5t-77.5 121t-25.5 161.5q0 106 33 181t92 114.5t137 39.5t137 -39.5t92 -114.5t33 -181q0 -133 -48 -212t-128 -115q-39 -17 -56 -43.5t-17 -51.5q0 -20 13.5 -29.5t30.5 -9.5q11 0 21 5.5
t17 10.5l35 -74q-20 -15 -49.5 -26t-58.5 -11zM300 112q34 0 59 23.5t38.5 71t13.5 122.5q0 68 -13.5 114t-38.5 70t-59 24t-59 -24t-38.5 -70t-13.5 -114q0 -75 13.5 -122.5t38.5 -71t59 -23.5z" />
    <glyph glyph-name="uni01EB" unicode="&#x1eb;" 
d="M320 -227q-48 0 -81 24.5t-33 74.5q0 41 21 71t42 47q-60 8 -110.5 40.5t-81 88t-30.5 129.5q0 82 36 140.5t94 89t123 30.5q66 0 123.5 -30.5t93.5 -89t36 -140.5q0 -66 -22 -112.5t-60.5 -79.5t-90.5 -55q-38 -18 -56 -44.5t-18 -50.5t16 -35t33 -11t29.5 4.5t19.5 9.5
l32 -65q-20 -16 -52 -26t-64 -10zM300 103q34 0 56.5 18t34 50t11.5 77q0 43 -11.5 75t-34 49t-56.5 17t-56.5 -17t-34 -49t-11.5 -75q0 -45 11.5 -77t34 -50t56.5 -18z" />
    <glyph glyph-name="uni01F4" unicode="&#x1f4;" 
d="M343 -12q-83 0 -151 37.5t-108 112t-40 184.5q0 109 40 185.5t108.5 116.5t152.5 40q66 0 113 -25.5t78 -57.5l-81 -91q-21 21 -46 34t-64 13q-42 0 -76 -25.5t-53.5 -72.5t-19.5 -112q0 -67 17 -114.5t52 -72.5t86 -25q19 0 36.5 5t27.5 15v112h-95v120h227v-300
q-33 -31 -87.5 -55t-116.5 -24zM293 680l-65 74l171 140l78 -95z" />
    <glyph glyph-name="uni01F5" unicode="&#x1f5;" 
d="M277 -211q-65 0 -115.5 13.5t-80 41.5t-29.5 72q0 30 19.5 55t57.5 44v4q-21 14 -35.5 34t-14.5 51q0 25 16.5 50t42.5 43v4q-27 18 -46 51t-19 76q0 60 29.5 100t78 60t104.5 20q46 0 82 -12h201v-108h-100q9 -11 15.5 -28.5t6.5 -36.5q0 -57 -27.5 -93.5t-73.5 -54.5
t-104 -18q-14 0 -32 2.5t-36 7.5q-12 -8 -17 -16t-5 -21q0 -19 20.5 -28t63.5 -9h92q98 0 149.5 -29t51.5 -96q0 -52 -36 -92.5t-102.5 -63.5t-156.5 -23zM285 246q21 0 38 9t27 27.5t10 45.5q0 26 -10 44t-27 27.5t-38 9.5q-20 0 -37 -9.5t-27 -27.5t-10 -44
q0 -27 10 -45.5t27 -27.5t37 -9zM298 -118q40 0 70 8t47 21.5t17 30.5q0 25 -22 31.5t-65 6.5h-62q-27 0 -44.5 2t-31.5 5q-19 -12 -27 -23.5t-8 -25.5q0 -27 34 -41.5t92 -14.5zM298 561l-72 72l153 182l100 -98z" />
    <glyph glyph-name="uni01F8" unicode="&#x1f8;" 
d="M66 0v652h151l137 -324l56 -144h4q-5 52 -13 116t-8 121v231h141v-652h-151l-137 325l-56 142h-4q5 -53 13 -115.5t8 -120.5v-231h-141zM347 680l-184 119l78 95l171 -140z" />
    <glyph glyph-name="uni01F9" unicode="&#x1f9;" 
d="M72 0v496h120l11 -66h4q32 32 73.5 55t97.5 23q84 0 123 -54t39 -148v-306h-147v287q0 50 -16.5 73t-56.5 23q-30 0 -52.5 -13.5t-48.5 -38.5v-331h-147zM321 561l-181 156l100 98l153 -182z" />
    <glyph glyph-name="Aringacute" unicode="&#x1fa;" 
d="M264 844l-46 22l157 141l59 -82zM9 0l203 652h176l203 -652h-156l-84 330q-12 49 -26 104t-26 106h-4q-12 -51 -25 -106t-26 -104l-85 -330h-150zM143 155v115h312v-115h-312zM300 697q-51 0 -82.5 27t-31.5 72t31.5 71.5t82.5 26.5q50 0 82 -26.5t32 -71.5t-32 -72
t-82 -27zM300 752q17 0 29.5 11.5t12.5 32.5q0 19 -12.5 31t-29.5 12q-18 0 -30 -12t-12 -31q0 -21 12 -32.5t30 -11.5z" />
    <glyph glyph-name="aringacute" unicode="&#x1fb;" 
d="M292 734l-62 16l157 128l59 -74zM224 -12q-50 0 -86.5 20t-56.5 54t-20 76q0 83 75.5 127t251.5 54q-3 23 -15 39t-34.5 24.5t-56.5 8.5q-24 0 -48 -5.5t-49.5 -16t-53.5 -24.5l-52 96q34 20 71.5 35t78 23.5t82.5 8.5q70 0 120 -24.5t77 -74t27 -125.5v-284h-120l-11 56
h-4q-37 -28 -82 -48t-94 -20zM271 102q33 0 62 13.5t55 33.5v82q-73 -4 -113.5 -15t-56.5 -28t-16 -39q0 -15 8.5 -26t24 -16t36.5 -5zM320 568q-65 0 -98.5 30.5t-33.5 73.5t33.5 73t98.5 30q66 0 99 -30t33 -73t-33 -73.5t-99 -30.5zM320 623q18 0 30.5 14t12.5 35
t-12.5 34.5t-30.5 13.5t-30.5 -13.5t-12.5 -34.5t12.5 -35t30.5 -14z" />
    <glyph glyph-name="AEacute" unicode="&#x1fc;" 
d="M-3 0l218 652h371v-124h-145v-129h118v-124h-118v-151h154v-124h-284v541h-3q-13 -48 -27 -95t-26 -90l-107 -356h-151zM132 149v114h236v-114h-236zM354 680l-65 74l171 140l78 -95z" />
    <glyph glyph-name="aeacute" unicode="&#x1fd;" 
d="M149 -12q-59 0 -96 40t-37 102q0 55 27.5 93t83 61.5t140.5 32.5v-87q-46 -5 -72 -16.5t-37 -28.5t-11 -37q0 -23 13.5 -34.5t33.5 -11.5q16 0 35.5 10.5t44.5 41.5l41 -66q-44 -54 -84 -77t-82 -23zM445 -12q-64 0 -109 32.5t-69 85.5t-24 116v70q0 60 -18 79.5
t-44 19.5q-27 0 -50.5 -9t-49.5 -25l-52 96q41 25 81.5 40t80.5 15q45 0 77 -22.5t55 -79.5h-30q30 57 66 79.5t77 22.5q52 0 87 -32.5t52.5 -87t17.5 -119.5q0 -20 -2 -37.5t-4 -27.5h-259v93h174l-24 -20q0 64 -12.5 91.5t-41.5 27.5q-18 0 -34.5 -14t-27 -46.5
t-10.5 -87.5q0 -48 13 -80t35 -48.5t51 -16.5q20 0 38.5 7t37.5 20l51 -95q-29 -23 -65 -35t-68 -12zM304 561l-72 72l153 182l100 -98z" />
    <glyph glyph-name="Oslashacute" unicode="&#x1fe;" 
d="M19 10l481 684l80 -52l-481 -684zM300 -12q-78 0 -137 39t-92 114.5t-33 187.5q0 109 33 183.5t92 113t137 38.5t137 -38.5t92 -113t33 -183.5q0 -112 -33 -187.5t-92 -114.5t-137 -39zM300 115q34 0 59 24.5t38.5 72t13.5 117.5q0 68 -13.5 114t-38.5 70t-59 24t-59 -24
t-38.5 -70t-13.5 -114q0 -70 13.5 -117.5t38.5 -72t59 -24.5zM263 680l-65 74l171 140l78 -95z" />
    <glyph glyph-name="oslashacute" unicode="&#x1ff;" 
d="M300 -12q-65 0 -123 30.5t-94 89t-36 140.5t36 140.5t94 89t123 30.5t123 -30.5t94 -89t36 -140.5t-36 -140.5t-94 -89t-123 -30.5zM300 102q34 0 56.5 18.5t34 51.5t11.5 76t-11.5 76t-34 51.5t-56.5 18.5t-56.5 -18.5t-34 -51.5t-11.5 -76t11.5 -76t34 -51.5
t56.5 -18.5zM118 -27l-57 46l421 506l57 -47zM294 561l-72 72l153 182l100 -98z" />
    <glyph glyph-name="uni0218" unicode="&#x218;" 
d="M298 -12q-66 0 -130.5 24t-117.5 70l85 101q37 -30 81.5 -49t91.5 -19t69.5 16t22.5 41q0 23 -12 36.5t-35 24t-54 23.5l-84 36q-36 14 -68 37.5t-51.5 58t-19.5 82.5q0 54 30.5 97.5t84 70t124.5 26.5q59 0 116 -22t101 -64l-75 -93q-34 25 -68 38.5t-82 13.5
q-36 0 -59 -15t-23 -44q0 -19 14 -32t38 -23t55 -22l79 -34q44 -16 75 -39.5t48 -57.5t17 -80q0 -54 -29.5 -100t-86 -74t-137.5 -28zM202 -239l-11 59q59 3 81 12.5t22 26.5q0 14 -15 23t-49 12l28 54q81 -7 111 -27t30 -57q0 -51 -51.5 -75.5t-145.5 -27.5z" />
    <glyph glyph-name="uni0219" unicode="&#x219;" 
d="M296 -12q-66 0 -131 22.5t-112 53.5l63 92q45 -29 95.5 -44t104.5 -15q41 0 60 12.5t19 29.5q0 11 -5.5 18.5t-19 14t-37 12.5t-60.5 14q-101 22 -145 60t-44 95q0 70 61 112.5t167 42.5q67 0 121.5 -21.5t93.5 -46.5l-66 -88q-37 23 -79 35t-83 12q-23 0 -38 -4.5
t-23 -14t-8 -20.5q0 -20 26 -29.5t89 -23.5q76 -17 119 -39t59.5 -50.5t16.5 -69.5q0 -45 -27.5 -81t-82 -57.5t-134.5 -21.5zM205 -239l-11 59q59 3 81 12.5t22 26.5q0 14 -15 23t-49 12l28 54q81 -7 111 -27t30 -57q0 -51 -51.5 -75.5t-145.5 -27.5z" />
    <glyph glyph-name="uni021A" unicode="&#x21a;" 
d="M226 0v528h-195v124h538v-124h-195v-528h-148zM198 -239l-11 59q59 3 81 12.5t22 26.5q0 14 -15 23t-49 12l28 54q81 -7 111 -27t30 -57q0 -51 -51.5 -75.5t-145.5 -27.5z" />
    <glyph glyph-name="uni021B" unicode="&#x21b;" 
d="M388 -12q-79 0 -125.5 27.5t-67.5 76.5t-21 114v175h-124v109l131 6l19 152h121v-152h210v-115h-210v-174q0 -37 11 -60t34 -33.5t59 -10.5q29 0 53 5t46 13l26 -106q-33 -10 -72.5 -18.5t-89.5 -8.5zM266 -239l-11 59q59 3 81 12.5t22 26.5q0 14 -15 23t-49 12l28 54
q81 -7 111 -27t30 -57q0 -51 -51.5 -75.5t-145.5 -27.5z" />
    <glyph glyph-name="uni0237" unicode="&#x237;" 
d="M195 -196q-46 0 -83.5 9.5t-69.5 24.5l43 105q30 -13 54.5 -18.5t46.5 -5.5q36 0 56 11.5t28 34.5t8 59v357h-200v115h347v-466q0 -46 -11 -86.5t-37 -72t-70.5 -49.5t-111.5 -18z" />
    <glyph glyph-name="uni0243" unicode="&#x243;" 
d="M84 0v652h211q67 0 121 -14.5t85 -49t31 -93.5q0 -42 -26.5 -79.5t-83.5 -51.5v-4q70 -13 106 -52.5t36 -108.5q0 -68 -33.5 -112.5t-90 -65.5t-127.5 -21h-229zM9 171v69l77 6h251v-75h-328zM231 108h70q60 0 88.5 25.5t28.5 76.5t-28 73.5t-89 22.5h-70v-198zM231 397
h57q53 0 78 20.5t25 59.5q0 36 -25.5 51.5t-76.5 15.5h-58v-147z" />
    <glyph glyph-name="uni0250" unicode="&#x250;" 
d="M296 -12q-69 0 -119.5 24.5t-77.5 74t-27 125.5v284h120l11 -56h4q38 28 83 48t93 20q50 0 86.5 -20t56.5 -54t20 -75q0 -84 -75.5 -128t-251.5 -54q3 -23 15 -39t34.5 -24.5t56.5 -8.5q24 0 48 5.5t49.5 16.5t53.5 25l52 -97q-34 -20 -71.5 -34.5t-78 -23.5t-82.5 -9z
M219 265q73 4 113.5 15.5t56.5 28.5t16 38q0 16 -8.5 26.5t-24 15.5t-36.5 5q-33 0 -62 -13.5t-55 -33.5v-82z" />
    <glyph glyph-name="uni0251" unicode="&#x251;" 
d="M256 -12q-63 0 -110 31t-73 89.5t-26 139.5t30.5 139t79.5 89.5t105 31.5q38 0 71.5 -15t63.5 -48h4l12 51h115v-496h-120l-11 51h-3q-27 -27 -64.5 -45t-73.5 -18zM294 108q25 0 46.5 10.5t40.5 35.5v201q-20 18 -40.5 25.5t-42.5 7.5q-27 0 -50 -15t-36.5 -45.5
t-13.5 -77.5q0 -73 25 -107.5t71 -34.5z" />
    <glyph glyph-name="uni0252" unicode="&#x252;" 
d="M337 -12q-33 0 -68 17t-66 49h-4l-12 -54h-115v496h120l11 -51h3q27 28 66.5 45.5t81.5 17.5q62 0 106.5 -31t68.5 -87.5t24 -131.5q0 -86 -30.5 -146t-80 -92t-105.5 -32zM303 108q27 0 50 15t36 46t13 79q0 47 -10.5 78.5t-31.5 46.5t-52 15q-26 0 -48 -10.5t-41 -35.5
v-201q21 -18 42.5 -25.5t41.5 -7.5z" />
    <glyph glyph-name="uni0253" unicode="&#x253;" 
d="M339 -12q-35 0 -70.5 16.5t-65.5 49.5h-4l-12 -54h-115v500q0 58 21.5 106.5t69 77.5t125.5 29q36 0 65 -7.5t48 -14.5l-27 -108q-16 6 -33 10t-32 4q-43 0 -64.5 -20t-25.5 -66l-6 -76h4q29 27 64.5 42t71.5 15q62 0 106 -30t68 -85t24 -129q0 -82 -30 -140.5t-78.5 -89
t-103.5 -30.5zM305 108q27 0 48.5 14.5t34.5 45t13 78.5q0 42 -10 69.5t-29.5 41.5t-50.5 14q-24 0 -46.5 -10.5t-45.5 -35.5v-184q21 -18 43.5 -25.5t42.5 -7.5z" />
    <glyph glyph-name="uni0254" unicode="&#x254;" 
d="M253 -12q-53 0 -106 18t-95 55l60 93q25 -19 56 -33t68 -14q44 0 77 17t51 49t18 75t-17.5 75t-48 49t-67.5 17q-31 0 -60 -9t-61 -30l-68 91q33 30 85 48.5t114 18.5q73 0 135.5 -30.5t100.5 -89t38 -140.5t-37.5 -140.5t-101 -89t-141.5 -30.5z" />
    <glyph glyph-name="uni0255" unicode="&#x255;" 
d="M193 -96l-114 49q39 105 96.5 176.5t120 107t114.5 35.5q69 0 108 -34.5t39 -95.5q0 -42 -22.5 -77t-66 -56t-105.5 -21q-84 0 -151 30.5t-106 89t-39 140.5t40 140.5t105 89t141 30.5q61 0 107.5 -18.5t78.5 -48.5l-64 -88q-25 22 -54 32.5t-60 10.5q-43 0 -77.5 -18
t-54.5 -51.5t-20 -78.5q0 -50 21.5 -82.5t57.5 -49t80 -16.5q39 0 59.5 13t20.5 29t-11.5 24.5t-37.5 8.5q-21 0 -49 -19t-57 -55t-55.5 -85.5t-44.5 -111.5z" />
    <glyph glyph-name="uni0256" unicode="&#x256;" 
d="M543 -170q-55 0 -91 21t-53.5 55.5t-17.5 74.5l2 63h-4q-23 -24 -56 -40t-69 -16q-62 0 -109 31t-72.5 89.5t-25.5 139.5t30.5 139t78.5 89.5t101 31.5q42 0 70 -14.5t52 -38.5h4l-7 77v169h147v-685q0 -37 9.5 -54t33.5 -17q8 0 15 2t14 5l26 -108q-14 -6 -32 -10
t-46 -4zM292 108q24 0 45 10.5t39 35.5v201q-20 18 -42 25.5t-43 7.5q-24 0 -45.5 -15t-34.5 -45.5t-13 -77.5q0 -73 25.5 -107.5t68.5 -34.5z" />
    <glyph glyph-name="uni0257" unicode="&#x257;" 
d="M252 -12q-93 0 -149 69.5t-56 190.5q0 81 30 139t78 89.5t100 31.5q40 0 69 -14t54 -39h3l-2 77v21q0 43 17 79.5t54.5 58.5t100.5 22q24 0 40.5 -2.5t28.5 -7.5l-26 -108q-5 2 -9.5 2.5t-10.5 0.5q-29 0 -41 -17.5t-12 -54.5v-526h-120l-10 51h-4q-26 -27 -62 -45
t-73 -18zM291 108q24 0 44.5 10.5t38.5 35.5v201q-20 18 -42 25.5t-43 7.5q-24 0 -45 -15t-33.5 -45.5t-12.5 -77.5q0 -73 25 -107.5t68 -34.5z" />
    <glyph glyph-name="uni0258" unicode="&#x258;" 
d="M270 -12q-49 0 -101.5 15.5t-94.5 42.5l48 88q33 -16 64 -25t64 -9q48 0 82 16t52 48.5t18 83.5q0 50 -14 83t-40.5 49t-63.5 16q-33 0 -55.5 -13.5t-34.5 -40.5t-12 -67l-23 28h277v-99h-376q-1 9 -3.5 28t-2.5 38q0 68 29 121.5t83.5 85t130.5 31.5q66 0 122.5 -31.5
t91 -89.5t34.5 -139q0 -82 -36.5 -140t-99 -89t-139.5 -31z" />
    <glyph glyph-name="uni0259" unicode="&#x259;" 
d="M291 -12q-78 0 -130.5 32t-79 86.5t-26.5 121.5q0 21 2.5 39t3.5 27h377v-98h-277l23 28q0 -60 25.5 -92t76.5 -32q56 0 87 37t31 111q0 77 -36.5 112.5t-105.5 35.5q-33 0 -64 -9t-64 -25l-48 88q42 28 94.5 43t101.5 15q76 0 135.5 -31t94 -89t34.5 -140
q0 -81 -36 -139.5t-94 -89.5t-125 -31z" />
    <glyph glyph-name="uni025A" unicode="&#x25a;" 
d="M203 -12q-67 0 -110 31t-65.5 83t-25.5 115l451 215l67 -26q1 -37 5.5 -58t14.5 -29.5t24 -8.5q9 0 16 3.5t13 7.5l30 -70q-14 -9 -31 -17t-37 -8q-22 0 -44 7.5t-39.5 28t-28.5 58.5l-336 -163l12 37q10 -58 32 -77t51 -19q21 0 38 12t26 35.5t9 57.5q0 76 -12.5 118
t-36 59.5t-55.5 17.5q-26 0 -49.5 -9t-45.5 -24l-49 93q39 26 79.5 38t78.5 12q73 0 123.5 -32.5t76.5 -93t26 -143.5q0 -74 -25.5 -130.5t-72.5 -88.5t-110 -32z" />
    <glyph glyph-name="uni025B" unicode="&#x25b;" 
d="M317 -12q-70 0 -126 17.5t-88.5 52t-32.5 85.5q0 50 31 77t84 40v4q-46 15 -70 44.5t-24 59.5q0 50 31 80.5t86 45t125 14.5q55 0 107.5 -15t96.5 -43l-53 -93q-32 20 -68.5 29.5t-73.5 9.5q-57 0 -81.5 -13t-24.5 -36q0 -24 26 -34t75 -10h67v-99h-82q-55 0 -81.5 -10.5
t-26.5 -36.5q0 -27 31 -42t100 -15q43 0 79.5 13t63.5 35l58 -93q-46 -37 -99.5 -52t-129.5 -15z" />
    <glyph glyph-name="uni025C" unicode="&#x25c;" 
d="M279 -12q-61 0 -116.5 15t-114.5 57l57 93q41 -28 82.5 -40.5t76.5 -12.5q71 0 101.5 14.5t30.5 41.5q0 26 -22.5 37t-68.5 11h-120v99h111q41 0 62 12t21 35q0 22 -24.5 34t-87.5 12q-43 0 -79.5 -10t-76.5 -37l-54 95q50 34 104.5 49t115.5 15q73 0 127.5 -14.5t85 -46
t30.5 -81.5q0 -30 -18.5 -59.5t-69.5 -43.5v-4q55 -13 81.5 -40t26.5 -78q0 -50 -34.5 -84t-93 -51.5t-133.5 -17.5z" />
    <glyph glyph-name="uni025E" unicode="&#x25e;" 
d="M316 -12q-76 0 -136.5 29t-96.5 86.5t-36 143.5q0 88 37.5 145.5t98.5 86.5t130 29q58 0 106 -14.5t77 -46t29 -81.5q0 -34 -20.5 -63t-66.5 -40v-4q34 -6 58.5 -21.5t37 -39t12.5 -57.5q0 -50 -30 -84t-82 -51.5t-118 -17.5zM321 100q36 0 58.5 14.5t22.5 41.5
q0 26 -21.5 37t-57.5 11h-32v99h31q29 0 46.5 11t17.5 34t-17.5 35.5t-48.5 12.5q-38 0 -66.5 -15.5t-44.5 -48.5t-16 -85q0 -81 34 -114t94 -33z" />
    <glyph glyph-name="uni025F" unicode="&#x25f;" 
d="M105 187v70l174 6h279v-76h-453zM195 -196q-46 0 -83.5 9.5t-69.5 24.5l43 105q30 -13 54.5 -18.5t46.5 -5.5q36 0 56 11.5t28 34.5t8 59v357h-200v115h347v-466q0 -46 -11 -86.5t-37 -72t-70.5 -49.5t-111.5 -18z" />
    <glyph glyph-name="uni0260" unicode="&#x260;" 
d="M268 -194q-41 0 -92.5 14t-95.5 41l49 97q35 -20 72 -28.5t67 -8.5q56 0 80.5 23t27.5 57l5 63h-3q-24 -23 -57 -37t-67 -14q-62 0 -108.5 31t-71.5 86t-25 127q0 76 31 132.5t79.5 87.5t100.5 31q38 0 66 -14.5t52 -38.5h3l-2 35q0 40 16.5 77.5t55 61.5t102.5 24
q24 0 40 -2.5t29 -7.5l-26 -109q-5 3 -10 3.5t-11 0.5q-28 0 -40 -18.5t-12 -53.5v-461q0 -97 -66.5 -148t-188.5 -51zM292 131q24 0 44 11t40 37v176q-20 19 -42 26t-43 7q-25 0 -46.5 -15t-34 -43.5t-12.5 -70.5q0 -61 25.5 -94.5t68.5 -33.5z" />
    <glyph glyph-name="uni0261" unicode="&#x261;" 
d="M270 -196q-41 0 -94.5 12.5t-97.5 39.5l49 100q36 -20 74.5 -28.5t68.5 -8.5q56 0 84.5 24t31.5 58l5 63h-4q-24 -23 -60 -37t-71 -14q-63 0 -110 31t-73 86t-26 127q0 76 30 132.5t79 87.5t106 31q39 0 73 -15.5t62 -47.5h4l12 51h115v-480q0 -100 -65.5 -156
t-192.5 -56zM294 131q24 0 45.5 11t41.5 37v176q-20 18 -40.5 25.5t-44.5 7.5q-25 0 -48 -15t-37.5 -43.5t-14.5 -70.5q0 -61 27.5 -94.5t70.5 -33.5z" />
    <glyph glyph-name="uni0262" unicode="&#x262;" 
d="M337 -12q-73 0 -135 27.5t-100 85t-38 144.5q0 64 22.5 112.5t62 82t89.5 51t103 17.5q69 0 112 -18.5t78 -47.5l-66 -88q-27 19 -50 30.5t-64 11.5q-36 0 -67.5 -16t-51 -49.5t-19.5 -85.5q0 -46 16.5 -78.5t45.5 -49.5t67 -17q19 0 34.5 4t29.5 12v83h-92v98h218v-241
q-33 -30 -85.5 -49t-109.5 -19z" />
    <glyph glyph-name="uni0263" unicode="&#x263;" 
d="M218 60l-187 436h148l82 -224q10 -32 20 -58t20 -61h4q11 35 21 61t20 58l82 224h141l-182 -436h-169zM303 -211q-73 0 -116.5 40t-43.5 106q0 30 11 57t32 59.5t47 79.5h141q27 -47 47 -79.5t31.5 -59.5t11.5 -57q0 -66 -43.5 -106t-117.5 -40zM303 -119q19 0 30.5 14.5
t11.5 37.5q0 19 -10.5 39.5t-29.5 52.5h-5q-18 -31 -28 -52.5t-10 -39.5q0 -23 12 -37.5t29 -14.5z" />
    <glyph glyph-name="uni0264" unicode="&#x264;" 
d="M300 -12q-89 0 -144.5 47t-55.5 135q0 44 27 90t74 88q-20 22 -40.5 31.5t-41.5 9.5q-28 0 -46 -14l-42 107q18 13 48.5 19.5t60.5 6.5q41 0 82 -18.5t78 -60.5q37 42 78.5 60.5t81.5 18.5q30 0 61 -6.5t48 -19.5l-42 -107q-19 14 -46 14q-22 0 -42 -9.5t-40 -31.5
q47 -42 74 -88t27 -90q0 -88 -55 -135t-145 -47zM300 107q30 0 46.5 18.5t16.5 48.5q0 27 -17 55t-46 53q-29 -25 -46 -53t-17 -55q0 -30 16.5 -48.5t46.5 -18.5z" />
    <glyph glyph-name="uni0265" unicode="&#x265;" 
d="M381 -184v151l8 95q-29 -28 -70 -51t-98 -23q-83 0 -122 54t-39 148v306h147v-287q0 -50 16.5 -73t56.5 -23q30 0 53 13.5t48 38.5v331h147v-680h-147z" />
    <glyph glyph-name="uni0266" unicode="&#x266;" 
d="M72 0v500q0 58 21.5 106.5t69 77.5t125.5 29q36 0 65 -7.5t48 -14.5l-27 -108q-16 6 -33 10t-32 4q-43 0 -64.5 -20t-25.5 -66l-9 -93h4q28 28 68.5 51t96.5 23q84 0 122.5 -54t38.5 -148v-290h-147v271q0 49 -16.5 72t-56.5 23q-30 0 -52.5 -13t-48.5 -38v-315h-147z
" />
    <glyph glyph-name="uni0267" unicode="&#x267;" 
d="M361 -187q-31 0 -52.5 4.5t-37.5 9.5l27 109q11 -3 20 -5t20 -2q31 0 43 20t12 61v261q0 49 -16.5 72t-56.5 23q-30 0 -52.5 -13t-48.5 -38v-315h-147v500q0 58 21.5 106.5t69 77.5t125.5 29q36 0 65 -7.5t48 -14.5l-27 -108q-17 5 -33.5 9.5t-31.5 4.5q-43 0 -64.5 -20
t-25.5 -66l-9 -93h4q28 28 68.5 51t96.5 23q84 0 122.5 -54t38.5 -148v-275q0 -55 -16.5 -101t-55.5 -73.5t-107 -27.5z" />
    <glyph glyph-name="uni0268" unicode="&#x268;" 
d="M115 188v69l164 6h279v-75h-443zM278 0v381h-200v115h347v-496h-147zM345 574q-42 0 -70 24.5t-28 64.5q0 41 28 66.5t70 25.5q43 0 70.5 -25.5t27.5 -66.5q0 -40 -27.5 -64.5t-70.5 -24.5z" />
    <glyph glyph-name="uni026A" unicode="&#x26a;" 
d="M79 0v115h147v266h-147v115h442v-115h-148v-266h148v-115h-442z" />
    <glyph glyph-name="uni026B" unicode="&#x26b;" 
d="M395 -12q-93 0 -141 56t-48 150v391h-155v115h302v-512q0 -46 25 -63.5t55 -17.5q18 0 36.5 4t41.5 12l32 -108q-38 -12 -69.5 -19.5t-78.5 -7.5zM394 285q-38 0 -68 10t-55.5 22.5t-47.5 22t-44 9.5q-15 0 -23.5 -12.5t-11.5 -39.5l-92 19q2 45 15.5 75t37.5 45t57 15
q39 0 69 -9.5t55 -22t47.5 -22.5t44.5 -10q14 0 22.5 12.5t11.5 39.5l92 -18q-2 -46 -15.5 -76t-37.5 -45t-57 -15z" />
    <glyph glyph-name="uni026C" unicode="&#x26c;" 
d="M197 273q-83 0 -119.5 31.5t-36.5 77.5q0 44 29.5 72t75.5 28q37 0 59 -17t33.5 -42.5t15.5 -50t4 -39.5l-52 23q0 17 -12 35.5t-42 18.5q-13 0 -21 -8t-8 -20q0 -15 13.5 -24t43.5 -9h303v-76h-286zM395 -12q-93 0 -141 56t-48 150v391h-155v115h302v-512
q0 -46 25 -63.5t55 -17.5q18 0 36.5 4t41.5 12l32 -108q-38 -12 -69.5 -19.5t-78.5 -7.5z" />
    <glyph glyph-name="uni026D" unicode="&#x26d;" 
d="M395 -187q-93 0 -141 56t-48 150v566h-156v116h303v-688q0 -45 25 -63t55 -18q34 0 78 16l33 -108q-38 -12 -70 -19.5t-79 -7.5z" />
    <glyph glyph-name="uni026E" unicode="&#x26e;" 
d="M41 0v701h147v-701h-147zM369 -196q-71 0 -122 24t-85 57l66 91q24 -22 55 -37.5t69 -15.5q29 0 51.5 12.5t35.5 36t13 57.5q0 45 -26.5 69t-69.5 24q-21 0 -32 -2.5t-28 -9.5l-49 71l153 200h-216v115h392v-78l-168 -220l-12 27q68 -1 113.5 -27t67.5 -69.5t22 -96.5
q0 -73 -31.5 -124t-83.5 -77.5t-115 -26.5z" />
    <glyph glyph-name="uni026F" unicode="&#x26f;" 
d="M565 496v-496h-111l-10 61h-4q-14 -30 -39 -51.5t-68 -21.5q-32 0 -55 20.5t-31 60.5q-14 -34 -40.5 -57.5t-69.5 -23.5q-53 0 -82 43t-29 117v348h140v-338q0 -45 27 -45q14 0 24.5 11.5t20.5 36.5v335h115v-338q0 -23 7 -34t21 -11t24 11.5t20 36.5v335h140z" />
    <glyph glyph-name="uni0270" unicode="&#x270;" 
d="M426 -184v150l10 97h-4q-15 -31 -37 -53t-63 -22q-32 0 -54.5 20.5t-31.5 60.5q-13 -33 -40 -57t-69 -24q-52 0 -81.5 43t-29.5 117v348h140v-338q0 -45 27 -45q14 0 24.5 12t20.5 36v335h115v-338q0 -23 7 -34t21 -11t24 12t20 36v335h140v-680h-139z" />
    <glyph glyph-name="uni0271" unicode="&#x271;" 
d="M424 -187q-25 0 -43.5 3.5t-32.5 8.5l26 109q7 -2 14 -3.5t13 -1.5q20 0 26.5 15.5t6.5 47.5v346q0 45 -27 45q-14 0 -24.5 -11.5t-20.5 -36.5v-335h-115v338q0 23 -7 34t-21 11t-24 -11.5t-20 -36.5v-335h-140v496h111l10 -62h4q14 31 39 52.5t68 21.5q32 0 55 -20.5
t31 -60.5q14 34 41 57.5t69 23.5q52 0 81.5 -43t29.5 -117v-360q0 -48 -14 -87.5t-46.5 -63.5t-89.5 -24z" />
    <glyph glyph-name="uni0272" unicode="&#x272;" 
d="M62 -187q-28 0 -46 4t-32 10l26 108q8 -3 14.5 -4.5t14.5 -1.5q24 0 33.5 17t9.5 53v497h120l11 -66h4q32 32 71.5 55t91.5 23q84 0 122 -54t38 -148v-306h-147v287q0 55 -16 75.5t-51 20.5q-29 0 -50 -13.5t-47 -38.5v-327q0 -53 -15.5 -96t-51.5 -69t-100 -26z" />
    <glyph glyph-name="uni0273" unicode="&#x273;" 
d="M550 -187q-64 0 -100.5 26t-51.5 69t-15 96v283q0 55 -16 75.5t-51 20.5q-29 0 -50 -13.5t-47 -38.5v-331h-147v496h120l11 -66h4q32 32 71.5 55t92.5 23q83 0 121 -54t38 -148v-307q0 -36 9.5 -53t33.5 -17q7 0 14 1.5t14 4.5l27 -108q-14 -6 -32 -10t-46 -4z" />
    <glyph glyph-name="uni0274" unicode="&#x274;" 
d="M74 0v496h136l132 -209q13 -22 28.5 -52t27.5 -52h3q-4 45 -8.5 91.5t-4.5 83.5v138h138v-496h-136l-132 209q-13 21 -28.5 51t-27.5 53h-4q5 -46 9.5 -92t4.5 -83v-138h-138z" />
    <glyph glyph-name="uni0275" unicode="&#x275;" 
d="M300 -12q-66 0 -124 29t-93.5 87.5t-35.5 143.5t35.5 143t93.5 87.5t124 29.5q67 0 124.5 -29.5t93 -87.5t35.5 -143t-35.5 -143.5t-93 -87.5t-124.5 -29zM300 98q37 0 63 17.5t39.5 51t13.5 81.5t-13.5 81.5t-39.5 51.5t-63 18t-63 -18t-39.5 -51.5t-13.5 -81.5
t13.5 -81.5t39.5 -51t63 -17.5zM158 204v99h280v-99h-280z" />
    <glyph glyph-name="uni0276" unicode="&#x276;" 
d="M241 -12q-56 0 -107 28t-83 85.5t-32 145.5t32 145.5t83 86.5t107 29q27 0 49.5 -2.5t55.5 -9.5h237v-116h-158v-77h128v-99h-128v-88h168v-116h-247q-31 -7 -54.5 -9.5t-50.5 -2.5zM254 103q10 0 20.5 2.5t19.5 5.5v272q-8 3 -18.5 5t-21.5 2q-32 0 -58 -33t-26 -110
q0 -54 12 -85.5t31 -45t41 -13.5z" />
    <glyph glyph-name="uni0278" unicode="&#x278;" 
d="M254 -8q-60 0 -112 30t-84.5 87t-32.5 139q0 83 32.5 139.5t84.5 86.5t112 30l-8 -110q-28 0 -48.5 -17t-32 -49t-11.5 -80q0 -47 11.5 -79.5t32 -49t48.5 -17.5zM346 -8l8 110q28 1 48.5 17.5t32 49t11.5 79.5q0 48 -11.5 80t-32 49t-48.5 17l-8 110q60 0 112 -30
t84.5 -86.5t32.5 -139.5q0 -82 -32.5 -139t-84.5 -87t-112 -30zM238 -185v885h124v-884z" />
    <glyph glyph-name="uni0279" unicode="&#x279;" 
d="M484 496v-496h-120l-12 108h-3q-37 -61 -89.5 -90.5t-111.5 -29.5q-33 0 -53.5 5t-42.5 15l30 123q23 -7 41.5 -10.5t46.5 -3.5q46 0 90.5 27t76.5 94v258h147z" />
    <glyph glyph-name="uni027A" unicode="&#x27a;" 
d="M148 -12q-32 0 -53 5t-43 15l30 124q24 -8 42.5 -11.5t45.5 -3.5q46 0 90.5 27t76.5 94v463h147v-701h-120l-12 108h-3q-37 -60 -89.5 -90t-111.5 -30z" />
    <glyph glyph-name="uni027B" unicode="&#x27b;" 
d="M465 -187q-62 0 -96.5 24t-49 63t-14.5 86v109h-4q-28 -53 -72.5 -80t-92.5 -27q-19 0 -40.5 5t-43.5 15l30 124q18 -8 33.5 -11.5t35.5 -3.5q22 0 48 10t50 34t39 64v271h147v-493q0 -41 12 -57.5t40 -16.5q11 0 22.5 3.5t21.5 7.5l31 -107q-18 -7 -41.5 -13.5
t-55.5 -6.5z" />
    <glyph glyph-name="uni027D" unicode="&#x27d;" 
d="M329 -187q-78 0 -125 27.5t-67.5 76.5t-20.5 114v465h120l12 -108h3q37 61 89.5 90.5t111.5 29.5q33 0 53.5 -5t42.5 -15l-30 -123q-23 7 -41.5 10.5t-46.5 3.5q-46 0 -90.5 -27t-76.5 -94v-225q0 -37 11 -60.5t34 -33.5t59 -10q28 0 52 5t46 13l27 -107
q-33 -10 -73 -18.5t-90 -8.5z" />
    <glyph glyph-name="uni027E" unicode="&#x27e;" 
d="M116 0v257q0 71 28 127.5t87 90t152 33.5q54 0 95.5 -5.5t69.5 -14.5l-30 -123q-24 7 -40.5 10t-33 4.5t-40.5 1.5q-31 0 -63.5 -14.5t-55 -49t-22.5 -92.5v-225h-147z" />
    <glyph glyph-name="uni0280" unicode="&#x280;" 
d="M74 0v496h252q57 0 103.5 -15.5t74 -51t27.5 -97.5q0 -47 -18.5 -79.5t-49 -52.5t-67 -29.5t-71.5 -9.5h-104v-161h-147zM221 261h86q40 0 59.5 18.5t19.5 48.5q0 31 -19.5 45.5t-59.5 14.5h-86v-127zM401 0l-135 200l126 40l174 -240h-165z" />
    <glyph glyph-name="uni0281" unicode="&#x281;" 
d="M74 496v-496h252q57 0 103.5 15.5t74 51t27.5 97.5q0 47 -18.5 79.5t-49 52.5t-67 29.5t-71.5 9.5h-104v161h-147zM221 235h86q40 0 59.5 -18.5t19.5 -48.5q0 -31 -19.5 -45.5t-59.5 -14.5h-86v127zM401 496l-135 -200l126 -40l174 240h-165z" />
    <glyph glyph-name="uni0282" unicode="&#x282;" 
d="M214 -187q-88 0 -124.5 53t-36.5 147v51l129 -18v-59q0 -30 12.5 -46t41.5 -16q10 0 19.5 2t19.5 5l26 -105q-15 -6 -35.5 -10t-51.5 -4zM296 -12q-66 0 -131 22.5t-112 53.5l63 92q45 -29 95.5 -44t104.5 -15q41 0 60 12.5t19 29.5q0 11 -5.5 18.5t-19 14t-37 12.5
t-60.5 14q-101 22 -145 60t-44 95q0 70 61 112.5t167 42.5q67 0 121.5 -21.5t93.5 -46.5l-66 -88q-37 23 -79 35t-83 12q-23 0 -38 -4.5t-23 -14t-8 -20.5q0 -20 26 -29.5t89 -23.5q76 -17 119 -39t59.5 -50.5t16.5 -69.5q0 -45 -27.5 -81t-82 -57.5t-134.5 -21.5z" />
    <glyph glyph-name="uni0283" unicode="&#x283;" 
d="M185 -196q-49 0 -81.5 9.5t-60.5 23.5l42 102q21 -9 39.5 -14.5t37.5 -5.5q25 0 39.5 9.5t20.5 29t6 48.5v500q0 57 18.5 104t62.5 75t120 28q46 0 76.5 -9t54.5 -20l-36 -105q-20 9 -37 14t-35 5q-29 0 -45.5 -9.5t-24 -29t-7.5 -48.5v-501q0 -56 -16.5 -103t-58.5 -75
t-115 -28z" />
    <glyph glyph-name="uni0284" unicode="&#x284;" 
d="M81 221v69l151 6h293v-75h-444zM185 -196q-49 0 -81.5 9.5t-60.5 23.5l42 102q21 -9 39.5 -14.5t37.5 -5.5q25 0 39.5 9.5t20.5 29t6 48.5v500q0 57 18.5 104t62.5 75t120 28q46 0 76.5 -9t54.5 -20l-36 -105q-20 9 -37 14t-35 5q-29 0 -45.5 -9.5t-24 -29t-7.5 -48.5
v-501q0 -56 -16.5 -103t-58.5 -75t-115 -28z" />
    <glyph glyph-name="uni0287" unicode="&#x287;" 
d="M212 508q79 0 125.5 -27.5t67.5 -76.5t21 -114v-175h124v-109l-131 -6l-19 -152h-121v152h-210v115h210v174q0 37 -11 60t-34 33.5t-59 10.5q-29 0 -53 -5t-46 -13l-26 106q33 10 72.5 18.5t89.5 8.5z" />
    <glyph glyph-name="uni0288" unicode="&#x288;" 
d="M388 -187q-79 0 -125.5 27.5t-67.5 76.5t-21 114v350h-125v109l132 6l19 152h121v-152h210v-115h-210v-348q0 -37 11 -60.5t34 -33.5t59 -10q29 0 53 5t46 13l26 -107q-33 -10 -73.5 -18.5t-88.5 -8.5z" />
    <glyph glyph-name="uni0289" unicode="&#x289;" 
d="M224 -12q-80 0 -116.5 53.5t-36.5 146.5v308h147v-289q0 -54 15 -74t46 -20q28 0 47.5 13t40.5 42v328h147v-496h-120l-10 69h-3q-32 -37 -69 -59t-88 -22zM-11 266v69l82 6h529v-75h-611z" />
    <glyph glyph-name="uni028A" unicode="&#x28a;" 
d="M300 -12q-79 0 -134.5 31t-85 80.5t-29.5 101.5q0 40 10.5 73t28 59t36.5 45v3h-87v115h221v-95q-29 -37 -45.5 -74t-16.5 -95q0 -35 11 -63.5t33.5 -45t57.5 -16.5t57.5 16.5t33.5 45t11 63.5q0 58 -16.5 95t-45.5 74v95h221v-115h-87v-3q20 -19 37 -45t27.5 -59
t10.5 -73q0 -52 -29 -101.5t-84.5 -80.5t-135.5 -31z" />
    <glyph glyph-name="uni028B" unicode="&#x28b;" 
d="M298 -12q-72 0 -125 27t-82 80t-29 132v269h147v-267q0 -42 11.5 -69.5t33 -40t50.5 -12.5q32 0 53.5 20.5t33 59.5t11.5 92q0 59 -13 87t-43 28q-7 0 -11 -0.5t-10 -2.5l-17 109q14 5 30 6.5t40 1.5q50 0 89.5 -21.5t62.5 -67.5t23 -118q0 -94 -28.5 -164.5t-85 -109.5
t-141.5 -39z" />
    <glyph glyph-name="uni028C" unicode="&#x28c;" 
d="M382 496l187 -496h-148l-78 234q-12 37 -23 75t-22 78h-4q-11 -40 -21.5 -78t-22.5 -75l-78 -234h-141l182 496h169z" />
    <glyph glyph-name="uni028D" unicode="&#x28d;" 
d="M515 496l81 -496h-142l-31 230q-5 36 -8.5 72.5t-7.5 74.5h-3q-5 -38 -10.5 -75t-12.5 -72l-31 -164h-107l-32 164q-7 36 -13.5 72.5t-11.5 74.5h-4q-5 -38 -7.5 -74.5t-6.5 -72.5l-28 -230h-136l76 496h173l27 -161q4 -33 8.5 -69t9.5 -78h4q3 31 7 65.5t10 81.5l26 161
h170z" />
    <glyph glyph-name="uni028E" unicode="&#x28e;" 
d="M29 0l204 521q24 62 53 104.5t71 65t103 22.5q22 0 40.5 -2.5t34.5 -7.5l-27 -112q-10 3 -19 4.5t-18 1.5q-41 0 -64 -19.5t-35 -49.5l-18 -45l215 -483h-146l-83 213q-14 35 -25.5 73t-24.5 76h-4q-10 -36 -22 -74t-23 -75l-73 -213h-139z" />
    <glyph glyph-name="uni028F" unicode="&#x28f;" 
d="M228 0v150l-195 346h155l54 -107l28.5 -66.5t29.5 -69.5h4q15 37 29 69t31 67l52 107h153l-194 -346v-150h-147z" />
    <glyph glyph-name="uni0290" unicode="&#x290;" 
d="M557 -187q-64 0 -100.5 25.5t-51.5 65.5t-15 83v13h-320v79l257 302h-226v115h431v-78l-259 -303h264v-116q0 -36 9 -53t33 -17q8 0 15 1.5t14 4.5l26 -108q-13 -6 -31.5 -10t-45.5 -4z" />
    <glyph glyph-name="uni0291" unicode="&#x291;" 
d="M359 -113l-74 14q20 108 47.5 187.5t65 123t84.5 43.5q49 0 78 -27.5t29 -81.5q0 -40 -19 -73.5t-58 -53t-100 -19.5h-342v79l239 302h-208v115h391v-79l-237 -302q53 -3 99.5 -5.5t96.5 -2.5q29 0 43 13t14 29q0 13 -7 19.5t-21 6.5q-18 0 -39.5 -27.5t-42.5 -90.5
t-39 -170z" />
    <glyph glyph-name="uni0292" unicode="&#x292;" 
d="M282 -196q-53 0 -95 13t-75 34t-60 45l67 92q19 -18 41.5 -33t48.5 -23.5t55 -8.5q36 0 63.5 13t43 37.5t15.5 59.5q0 46 -32.5 72t-87.5 26q-28 0 -42 -5t-39 -16l-48 71l196 200h-248v115h425v-78l-207 -224l-24 15q15 8 25 11.5t26 3.5q62 0 107.5 -25.5t71 -68
t25.5 -94.5q0 -74 -35 -126t-92 -79t-125 -27z" />
    <glyph glyph-name="uni0294" unicode="&#x294;" 
d="M205 0v313q67 40 104.5 68.5t54 55.5t16.5 59q0 47 -32.5 72.5t-88.5 25.5q-42 0 -77 -20.5t-59 -49.5l-73 93q24 26 57 48t75 35t93 13q68 0 125.5 -23.5t92 -70t34.5 -117.5q0 -54 -22 -95t-61 -76t-92 -73v-258h-147z" />
    <glyph glyph-name="uni0295" unicode="&#x295;" 
d="M245 0v258q-53 38 -92.5 73t-61.5 76t-22 95q0 71 35 117.5t92.5 70t125.5 23.5q51 0 93 -13t74.5 -35t57.5 -48l-73 -93q-24 29 -59.5 49.5t-76.5 20.5q-55 0 -88 -25.5t-33 -72.5q0 -32 16 -59t54.5 -55.5t104.5 -68.5v-313h-147z" />
    <glyph glyph-name="uni0298" unicode="&#x298;" 
d="M300 -12q-73 0 -130.5 40t-90 121t-32.5 203t32.5 202.5t90 119.5t130.5 39t130.5 -39.5t90.5 -119.5t33 -202t-33 -203t-90.5 -121t-130.5 -40zM300 107q31 0 57.5 22t43.5 75.5t17 147.5q0 92 -17 145t-43.5 75t-57.5 22t-57.5 -22t-43 -75t-16.5 -145
q0 -94 16.5 -147.5t43 -75.5t57.5 -22zM300 282q-29 0 -50.5 20.5t-21.5 49.5q0 32 21.5 53.5t50.5 21.5q30 0 51 -21.5t21 -53.5q0 -29 -21 -49.5t-51 -20.5z" />
    <glyph glyph-name="uni0299" unicode="&#x299;" 
d="M110 0v496h234q58 0 105.5 -12t76 -40.5t28.5 -78.5q0 -31 -19.5 -60.5t-64.5 -41.5v-4q31 -8 54.5 -22.5t36 -37.5t12.5 -56q0 -51 -29.5 -82.5t-78.5 -46t-108 -14.5h-247zM254 303h81q42 0 60 12t18 35q0 22 -17.5 34.5t-59.5 12.5h-82v-94zM254 99h94q45 0 63.5 15
t18.5 39q0 22 -20 36.5t-63 14.5h-93v-105z" />
    <glyph glyph-name="uni029C" unicode="&#x29c;" 
d="M72 0v496h147v-179h162v179h147v-496h-147v189h-162v-189h-147z" />
    <glyph glyph-name="uni029D" unicode="&#x29d;" 
d="M414 -228q-49 116 -106 166t-118 50q-29 0 -42 -9t-13 -24t16 -27t49 -12q27 0 44.5 9t25.5 26t8 39v391h-199v115h346v-475q0 -58 -24 -107.5t-73 -79.5t-123 -30q-56 0 -96.5 20t-61.5 53t-21 75q0 60 43.5 96.5t122.5 36.5q56 0 117.5 -24.5t118 -82t99.5 -156.5z
M345 574q-42 0 -70 24.5t-28 64.5q0 41 28 66.5t70 25.5q43 0 70.5 -25.5t27.5 -66.5q0 -40 -27.5 -64.5t-70.5 -24.5z" />
    <glyph glyph-name="uni029E" unicode="&#x29e;" 
d="M377 -184v384h-4l-188 -200h-170l362 371v125h147v-680h-147zM244 180l-213 316h149l146 -225z" />
    <glyph glyph-name="uni029F" unicode="&#x29f;" 
d="M121 0v496h147v-381h268v-115h-415z" />
    <glyph glyph-name="uni02A1" unicode="&#x2a1;" 
d="M205 0v239h-151v69l76 6h93q81 48 119 94t38 88q0 48 -30.5 73t-82.5 25q-44 0 -81 -20.5t-63 -49.5l-73 92q25 27 59 49t77.5 34.5t96.5 12.5q67 0 122 -23t88.5 -69.5t33.5 -117.5q0 -37 -16 -71t-43.5 -63t-59.5 -54h132v-75h-188v-239h-147z" />
    <glyph glyph-name="uni02A2" unicode="&#x2a2;" 
d="M245 0v239h-188v69l76 6h56q-32 25 -59 54t-43.5 63t-16.5 71q0 71 33.5 117.5t89 69.5t121.5 23q53 0 96.5 -12.5t77.5 -34.5t59 -49l-73 -92q-26 29 -63 49.5t-81 20.5q-52 0 -82.5 -25t-30.5 -73q0 -42 38.5 -88t118.5 -94h169v-75h-151v-239h-147z" />
    <glyph glyph-name="uni02A4" unicode="&#x2a4;" 
d="M146 -12q-44 0 -79 32t-54.5 90t-19.5 138q0 78 20.5 137t55.5 91t78 32q23 0 45 -11.5t37 -34.5h2l-6 91v147h115v-700h-89l-12 44h-4q-18 -27 -40 -41.5t-49 -14.5zM181 108q15 0 27 13.5t17 37.5v196q-8 16 -19.5 24.5t-24.5 8.5q-17 0 -31 -15.5t-21.5 -46
t-7.5 -77.5q0 -70 16 -105.5t44 -35.5zM438 -196q-46 0 -79.5 14.5t-60.5 39.5l57 94q16 -14 32.5 -22t34.5 -8q29 0 48.5 25.5t19.5 81.5q0 47 -18 70t-44 23q-9 0 -15 -1.5t-15 -7.5l-46 81l110 187h-159v115h293v-79l-127 -230l-44 20q8 7 18 13t24 6q47 -1 81 -27
t52 -70.5t18 -101.5q0 -63 -21.5 -113.5t-61.5 -80t-97 -29.5z" />
    <glyph glyph-name="uni02A6" unicode="&#x2a6;" 
d="M331 -12q-91 0 -147.5 24.5t-82.5 69.5t-26 105v194h-68v109l74 6l19 152h122v-152h188v-115h-188v-191q0 -34 14.5 -54.5t41.5 -29.5t67 -9q45 0 70 6.5t35.5 18.5t10.5 29q0 21 -12.5 36t-32.5 28.5t-42 28.5t-42 33t-32.5 42.5t-12.5 57.5q0 60 44 95.5t115 35.5
q40 0 76.5 -13t65.5 -38l-49 -79q-22 16 -40 22t-37 6t-29 -9t-10 -26q0 -13 12 -24.5t31 -24t40.5 -27t40.5 -34.5t31 -48t12 -66q0 -49 -24.5 -84.5t-81 -55t-153.5 -19.5z" />
    <glyph glyph-name="uni02A7" unicode="&#x2a7;" 
d="M240 -12q-89 0 -127.5 53.5t-38.5 138.5v201h-68v109l75 6l18 152h122v-152h217v-115h-217v-199q0 -42 14.5 -60.5t36.5 -18.5q15 0 27.5 2.5t24.5 7.5l23 -107q-19 -6 -45 -12t-62 -6zM370 -196q-30 0 -50 4t-35 10l26 108q11 -3 20 -5t19 -2q25 0 35 19.5t10 60.5v521
q0 51 17.5 95t57 71t107.5 27q26 0 43 -4t31 -10l-26 -108q-7 3 -14 5t-15 2q-30 0 -42 -19t-12 -61v-515q0 -54 -16.5 -99.5t-54 -72.5t-101.5 -27z" />
    <glyph glyph-name="uni02B0" unicode="&#x2b0;" 
d="M156 375v468h104v-117l-5 -61q18 17 44.5 32.5t62.5 15.5q56 0 81.5 -36.5t25.5 -98.5v-203h-104v190q0 31 -10 45t-35 14q-18 0 -31 -7.5t-29 -22.5v-219h-104z" />
    <glyph glyph-name="uni02B2" unicode="&#x2b2;" 
d="M230 247q-30 0 -53.5 6.5t-43.5 16.5l30 73q19 -9 33.5 -12t26.5 -3q34 0 47 16t13 51v229h-126v81h230v-307q0 -40 -14 -74.5t-48 -55.5t-95 -21zM332 749q-30 0 -49 17t-19 45q0 27 19 45.5t49 18.5t49 -18.5t19 -45.5q0 -28 -19 -45t-49 -17z" />
    <glyph glyph-name="uni02B3" unicode="&#x2b3;" 
d="M214 375v330h86l8 -73h3q22 41 54 61t67 20q22 0 36 -4t27 -10l-20 -87q-16 5 -28 7.5t-31 2.5q-25 0 -52 -18t-46 -61v-168h-104z" />
    <glyph glyph-name="uni02B7" unicode="&#x2b7;" 
d="M120 375l-82 329h102l30 -147l14 -100h3l19 100l38 147h83l40 -147l19 -100h3l15 100l30 147h95l-79 -329h-120l-29 127l-16 90h-2l-16 -90l-28 -127h-119z" />
    <glyph glyph-name="uni02B8" unicode="&#x2b8;" 
d="M204 249q-15 0 -26.5 2t-21.5 5l18 77q5 -1 11.5 -2.5t10.5 -1.5q25 0 38.5 11.5t19.5 28.5l5 16l-130 320h104l47 -137q8 -22 13.5 -45.5t12.5 -47.5h2q6 22 11.5 46t11.5 47l40 137h99l-116 -330q-15 -42 -34.5 -70.5t-47 -42t-68.5 -13.5z" />
    <glyph glyph-name="uni02B9" unicode="&#x2b9;" 
d="M230 355l21 331h147l-25 -145l-47 -186h-96z" />
    <glyph glyph-name="uni02BB" unicode="&#x2bb;" 
d="M301 290q-55 0 -86 42.5t-31 117.5q0 81 43.5 144t131.5 103l38 -78q-55 -25 -83.5 -62.5t-28.5 -89.5l6 -95l-59 81q14 12 34.5 20.5t39.5 8.5q40 0 65.5 -25t25.5 -66q0 -46 -27 -73.5t-69 -27.5z" />
    <glyph glyph-name="uni02BC" unicode="&#x2bc;" 
d="M241 290l-39 78q56 25 84 62.5t28 89.5l-6 95l59 -81q-14 -12 -34 -21t-39 -9q-40 0 -66 25.5t-26 66.5q0 45 27.5 73t68.5 28q56 0 86.5 -42t30.5 -118q0 -82 -43.5 -144.5t-130.5 -102.5z" />
    <glyph glyph-name="uni02BE" unicode="&#x2be;" 
d="M222 538v79q48 0 70.5 17.5t22.5 50.5t-22.5 50.5t-70.5 17.5v79q71 2 115 -16t64 -52t20 -79t-20 -79t-64 -52t-115 -16z" />
    <glyph glyph-name="uni02BF" unicode="&#x2bf;" 
d="M378 538q-71 -2 -115 16t-64 52t-20 79t20 79t64 52t115 16v-79q-48 0 -70.5 -17.5t-22.5 -50.5t22.5 -50.5t70.5 -17.5v-79z" />
    <glyph glyph-name="uni02C1" unicode="&#x2c1;" 
d="M260 451v80q-48 37 -80.5 73t-32.5 91q0 46 23.5 76.5t62 46t83.5 15.5q51 0 87 -17.5t60 -43.5l-51 -64q-16 18 -38 30t-48 12q-32 0 -53.5 -14.5t-21.5 -44.5q0 -33 25.5 -60t88.5 -64v-116h-105z" />
    <glyph glyph-name="circumflex" unicode="&#x2c6;" 
d="M173 561l-56 52l108 131h150l108 -131l-56 -52l-125 92h-4z" />
    <glyph glyph-name="caron" unicode="&#x2c7;" 
d="M225 577l-108 131l56 52l125 -92h4l125 92l56 -52l-108 -131h-150z" />
    <glyph glyph-name="uni02C8" unicode="&#x2c8;" 
d="M255 377l-31 363h152l-31 -363h-90z" />
    <glyph glyph-name="uni02C9" unicode="&#x2c9;" 
d="M152 592v93h296v-93h-296z" />
    <glyph glyph-name="uni02CA" unicode="&#x2ca;" 
d="M294 561l-72 72l153 182l100 -98z" />
    <glyph glyph-name="uni02CB" unicode="&#x2cb;" 
d="M306 561l-181 156l100 98l153 -182z" />
    <glyph glyph-name="uni02CC" unicode="&#x2cc;" 
d="M224 -265l31 363h90l31 -363h-152z" />
    <glyph glyph-name="uni02D0" unicode="&#x2d0;" 
d="M164 0l129 218h14l129 -218h-272zM293 316l-129 218h272l-129 -218h-14z" />
    <glyph glyph-name="uni02D1" unicode="&#x2d1;" 
d="M293 316l-129 218h272l-129 -218h-14z" />
    <glyph glyph-name="breve" unicode="&#x2d8;" 
d="M300 572q-57 0 -94 21t-55.5 56.5t-19.5 79.5l84 14q3 -22 13 -40t28 -28.5t44 -10.5t44 10.5t28 28.5t13 40l84 -14q-1 -44 -19.5 -79.5t-55 -56.5t-94.5 -21z" />
    <glyph glyph-name="dotaccent" unicode="&#x2d9;" 
d="M300 574q-42 0 -70 24.5t-28 64.5q0 41 28 66.5t70 25.5q43 0 70.5 -25.5t27.5 -66.5q0 -40 -27.5 -64.5t-70.5 -24.5z" />
    <glyph glyph-name="ring" unicode="&#x2da;" 
d="M300 568q-65 0 -98.5 30.5t-33.5 73.5t33.5 73t98.5 30q66 0 99 -30t33 -73t-33 -73.5t-99 -30.5zM300 623q18 0 30.5 14t12.5 35t-12.5 34.5t-30.5 13.5t-30.5 -13.5t-12.5 -34.5t12.5 -35t30.5 -14z" />
    <glyph glyph-name="ogonek" unicode="&#x2db;" 
d="M309 -227q-47 0 -80 25t-33 74q0 32 13.5 58t32 44.5t32.5 27.5h83q-29 -23 -45.5 -47t-16.5 -49q0 -24 16 -35t33 -11q18 0 30.5 4.5t19.5 9.5l31 -65q-20 -16 -52 -26t-64 -10z" />
    <glyph glyph-name="tilde" unicode="&#x2dc;" 
d="M366 573q-23 0 -42 10t-34.5 22.5t-28 22t-24.5 9.5q-15 0 -23.5 -13t-11.5 -42l-92 5q2 52 16.5 85.5t41.5 50t66 16.5q24 0 42.5 -9.5t34 -22t28 -22.5t24.5 -10q15 0 23.5 13t11.5 42l92 -5q-2 -51 -16.5 -85t-41.5 -50.5t-66 -16.5z" />
    <glyph glyph-name="hungarumlaut" unicode="&#x2dd;" 
d="M247 565l-78 35l88 181l98 -44zM426 565l-78 35l88 181l98 -44z" />
    <glyph glyph-name="uni02DE" unicode="&#x2de;" 
d="M335 226q-36 0 -67 20.5t-50 76.5l-128 -55v105l188 81q9 -58 19.5 -89t22.5 -43.5t24 -12.5q13 0 23 3t18 8l30 -69q-15 -10 -35 -17.5t-45 -7.5z" />
    <glyph glyph-name="uni02E0" unicode="&#x2e0;" 
d="M243 417l-112 287h104l42 -134q5 -21 11.5 -38t12.5 -40h3q7 23 13.5 40t12.5 38l41 134h99l-109 -287h-118zM303 237q-48 0 -77.5 27t-29.5 71q0 31 15.5 58t41.5 73h99q27 -46 42 -73t15 -58q0 -44 -28.5 -71t-77.5 -27zM303 301q10 0 16.5 7.5t6.5 18.5q0 14 -5 29.5
t-18 36.5h-3q-10 -21 -15 -37t-5 -29q0 -11 6.5 -18.5t16.5 -7.5z" />
    <glyph glyph-name="uni02E1" unicode="&#x2e1;" 
d="M378 367q-67 0 -97.5 38t-30.5 100v257h-69v81h173v-342q0 -29 14 -40t37 -11q10 0 20.5 3t23.5 7l17 -80q-23 -5 -42 -9t-46 -4z" />
    <glyph glyph-name="uni02E2" unicode="&#x2e2;" 
d="M300 367q-41 0 -83 13.5t-72 34.5l47 63q27 -16 53.5 -25.5t56.5 -9.5t42.5 7t12.5 19q0 10 -11 17t-29 12.5t-39 11.5q-25 9 -51.5 21t-43.5 31t-17 46q0 47 40.5 76t109.5 29q43 0 77.5 -14t59.5 -30l-47 -61q-21 13 -43 20t-46 7q-25 0 -36.5 -5.5t-11.5 -17.5
q0 -14 23 -22t53 -17q27 -7 53.5 -19t44 -30.5t17.5 -48.5q0 -45 -41 -76.5t-119 -31.5z" />
    <glyph glyph-name="uni02E3" unicode="&#x2e3;" 
d="M124 375l111 171l-104 159h111l31 -52q7 -13 16 -27.5t17 -28.5h3q5 14 12 28.5t13 27.5l26 52h108l-105 -171l111 -159h-111l-34 52q-9 14 -18.5 28.5t-18.5 28.5h-2q-7 -14 -14.5 -28.5t-14.5 -28.5l-29 -52h-108z" />
    <glyph glyph-name="uni02E4" unicode="&#x2e4;" 
d="M260 375v169q-48 36 -80.5 72t-32.5 92q0 45 23.5 75.5t62 46t83.5 15.5q51 0 87 -17t60 -43l-51 -65q-16 18 -38 30t-48 12q-32 0 -53.5 -14.5t-21.5 -43.5q0 -33 25.5 -60.5t88.5 -63.5v-205h-105z" />
    <glyph glyph-name="gravecomb" unicode="&#x300;" 
d="M306 561l-181 156l100 98l153 -182z" />
    <glyph glyph-name="acutecomb" unicode="&#x301;" 
d="M294 561l-72 72l153 182l100 -98z" />
    <glyph glyph-name="uni0302" unicode="&#x302;" 
d="M173 561l-56 52l108 131h150l108 -131l-56 -52l-125 92h-4z" />
    <glyph glyph-name="tildecomb" unicode="&#x303;" 
d="M366 573q-23 0 -42 10t-34.5 22.5t-28 22t-24.5 9.5q-15 0 -23.5 -13t-11.5 -42l-92 5q2 52 16.5 85.5t41.5 50t66 16.5q24 0 42.5 -9.5t34 -22t28 -22.5t24.5 -10q15 0 23.5 13t11.5 42l92 -5q-2 -51 -16.5 -85t-41.5 -50.5t-66 -16.5z" />
    <glyph glyph-name="uni0304" unicode="&#x304;" 
d="M152 592v93h296v-93h-296z" />
    <glyph glyph-name="uni0305" unicode="&#x305;" 
d="M152 592v93h296v-93h-296z" />
    <glyph glyph-name="uni0306" unicode="&#x306;" 
d="M300 572q-57 0 -94 21t-55.5 56.5t-19.5 79.5l84 14q3 -22 13 -40t28 -28.5t44 -10.5t44 10.5t28 28.5t13 40l84 -14q-1 -44 -19.5 -79.5t-55 -56.5t-94.5 -21z" />
    <glyph glyph-name="uni0307" unicode="&#x307;" 
d="M300 574q-42 0 -70 24.5t-28 64.5q0 41 28 66.5t70 25.5q43 0 70.5 -25.5t27.5 -66.5q0 -40 -27.5 -64.5t-70.5 -24.5z" />
    <glyph glyph-name="uni0308" unicode="&#x308;" 
d="M189 571q-35 0 -57.5 23.5t-22.5 56.5q0 34 22.5 57.5t57.5 23.5q36 0 58 -23.5t22 -57.5q0 -33 -22 -56.5t-58 -23.5zM411 571q-36 0 -58 23.5t-22 56.5q0 34 22 57.5t58 23.5q35 0 57.5 -23.5t22.5 -57.5q0 -33 -22.5 -56.5t-57.5 -23.5z" />
    <glyph glyph-name="hookabovecomb" unicode="&#x309;" 
d="M257 568l-12 58q19 4 32 11.5t13 23.5q0 19 -18 29t-62 13l9 90q65 -1 104.5 -17t56.5 -42.5t17 -61.5q0 -34 -19.5 -56t-51.5 -33.5t-69 -14.5z" />
    <glyph glyph-name="uni030A" unicode="&#x30a;" 
d="M300 568q-65 0 -98.5 30.5t-33.5 73.5t33.5 73t98.5 30q66 0 99 -30t33 -73t-33 -73.5t-99 -30.5zM300 623q18 0 30.5 14t12.5 35t-12.5 34.5t-30.5 13.5t-30.5 -13.5t-12.5 -34.5t12.5 -35t30.5 -14z" />
    <glyph glyph-name="uni030B" unicode="&#x30b;" 
d="M247 565l-78 35l88 181l98 -44zM426 565l-78 35l88 181l98 -44z" />
    <glyph glyph-name="uni030C" unicode="&#x30c;" 
d="M225 577l-108 131l56 52l125 -92h4l125 92l56 -52l-108 -131h-150z" />
    <glyph glyph-name="uni030F" unicode="&#x30f;" 
d="M174 565l-108 172l98 44l88 -181zM353 565l-108 172l98 44l88 -181z" />
    <glyph glyph-name="uni0310" unicode="&#x310;" 
d="M300 572q-59 0 -98.5 21t-59.5 56.5t-23 79.5l76 14q4 -24 17 -44t35.5 -32t52.5 -12q31 0 53 12t35.5 32t16.5 44l76 -14q-3 -44 -23 -79.5t-59.5 -56.5t-98.5 -21zM300 702q-32 0 -54 20t-22 53t22 54t54 21q33 0 54.5 -21t21.5 -54t-21.5 -53t-54.5 -20z" />
    <glyph glyph-name="uni0311" unicode="&#x311;" 
d="M215 565l-84 14q1 44 19.5 79.5t55 56.5t94.5 21t94.5 -21t55 -56.5t19.5 -79.5l-84 -14q-3 22 -13 40t-28 29t-44 11t-44 -11t-28 -29t-13 -40z" />
    <glyph glyph-name="uni0312" unicode="&#x312;" 
d="M310 562q-37 0 -60 25t-23 70q0 46 29.5 81t89.5 51l22 -48q-36 -11 -54.5 -27t-19.5 -39l15 -58l-35 52q9 8 19 14t20 6q25 0 44 -16t19 -47q0 -29 -19 -46.5t-47 -17.5z" />
    <glyph glyph-name="uni0313" unicode="&#x313;" 
d="M254 562l-22 49q36 12 54.5 27.5t19.5 38.5l-15 58l35 -52q-9 -7 -19 -13.5t-20 -6.5q-25 0 -44 16t-19 47q0 29 19.5 46t46.5 17q37 0 60 -24.5t23 -69.5t-29.5 -80t-89.5 -53z" />
    <glyph glyph-name="uni0318" unicode="&#x318;" 
d="M330 -257v66h-117v71h117v66h84v-203h-84z" />
    <glyph glyph-name="uni0319" unicode="&#x319;" 
d="M186 -257v203h84v-66h117v-71h-117v-66h-84z" />
    <glyph glyph-name="uni031A" unicode="&#x31a;" 
d="M321 574v79h-108v71h186v-150h-78z" />
    <glyph glyph-name="uni031B" unicode="&#x31b;" 
d="M301 427l-11 59q31 6 49 26t18 64q0 17 -5 31.5t-11 25.5l109 47q12 -15 21 -40.5t9 -53.5q0 -53 -25 -87t-66 -51.5t-88 -20.5z" />
    <glyph glyph-name="uni031C" unicode="&#x31c;" 
d="M368 -258q-89 -2 -127.5 26.5t-38.5 75.5t38.5 75.5t127.5 25.5v-54q-35 0 -51.5 -13t-16.5 -34t16.5 -34t51.5 -13v-55z" />
    <glyph glyph-name="uni031D" unicode="&#x31d;" 
d="M173 -229v71h85v104h84v-104h85v-71h-254z" />
    <glyph glyph-name="uni031E" unicode="&#x31e;" 
d="M258 -257v105h-85v70h254v-70h-85v-105h-84z" />
    <glyph glyph-name="uni031F" unicode="&#x31f;" 
d="M258 -257v66h-85v71h85v66h84v-66h85v-71h-85v-66h-84z" />
    <glyph glyph-name="uni0320" unicode="&#x320;" 
d="M173 -154v71h254v-71h-254z" />
    <glyph glyph-name="dotbelowcomb" unicode="&#x323;" 
d="M300 -246q-42 0 -70 24.5t-28 64.5q0 41 28 66.5t70 25.5q43 0 70.5 -25.5t27.5 -66.5q0 -40 -27.5 -64.5t-70.5 -24.5z" />
    <glyph glyph-name="uni0324" unicode="&#x324;" 
d="M189 -232q-35 0 -57.5 23.5t-22.5 56.5q0 34 22.5 57.5t57.5 23.5q36 0 58 -23.5t22 -57.5q0 -33 -22 -56.5t-58 -23.5zM411 -232q-36 0 -58 23.5t-22 56.5q0 34 22 57.5t58 23.5q35 0 57.5 -23.5t22.5 -57.5q0 -33 -22.5 -56.5t-57.5 -23.5z" />
    <glyph glyph-name="uni0325" unicode="&#x325;" 
d="M300 -256q-65 0 -98.5 30.5t-33.5 73.5t33.5 73t98.5 30q66 0 99 -30t33 -73t-33 -73.5t-99 -30.5zM300 -201q18 0 30.5 14t12.5 35t-12.5 34.5t-30.5 13.5t-30.5 -13.5t-12.5 -34.5t12.5 -35t30.5 -14z" />
    <glyph glyph-name="uni0326" unicode="&#x326;" 
d="M198 -239l-11 59q59 3 81 12.5t22 26.5q0 14 -15 23t-49 12l28 54q81 -7 111 -27t30 -57q0 -51 -51.5 -75.5t-145.5 -27.5z" />
    <glyph glyph-name="uni0327" unicode="&#x327;" 
d="M198 -239l-11 59q59 3 81 13t22 31q0 16 -15.5 26t-61.5 16l50 105h86l-30 -72q37 -9 56.5 -26t19.5 -49q0 -51 -51.5 -75.5t-145.5 -27.5z" />
    <glyph glyph-name="uni0328" unicode="&#x328;" 
d="M309 -227q-47 0 -80 25t-33 74q0 32 13.5 58t32 44.5t32.5 27.5h83q-29 -23 -45.5 -47t-16.5 -49q0 -24 16 -35t33 -11q18 0 30.5 4.5t19.5 9.5l31 -65q-20 -16 -52 -26t-64 -10z" />
    <glyph glyph-name="uni0329" unicode="&#x329;" 
d="M241 -269l6 205h106l6 -205h-118z" />
    <glyph glyph-name="uni032A" unicode="&#x32a;" 
d="M169 -220v142h262v-142h-76v71h-110v-71h-76z" />
    <glyph glyph-name="uni032C" unicode="&#x32c;" 
d="M225 -225l-108 131l56 52l125 -92h4l125 92l56 -52l-108 -131h-150z" />
    <glyph glyph-name="uni032E" unicode="&#x32e;" 
d="M300 -233q-57 0 -94 21t-55.5 56.5t-19.5 79.5l84 14q3 -22 13 -40t28 -28.5t44 -10.5t44 10.5t28 28.5t13 40l84 -14q-1 -44 -19.5 -79.5t-55 -56.5t-94.5 -21z" />
    <glyph glyph-name="uni032F" unicode="&#x32f;" 
d="M215 -247l-84 14q1 44 19.5 79.5t55 56.5t94.5 21t94.5 -21t55 -56.5t19.5 -79.5l-84 -14q-3 22 -13 40t-28 29t-44 11t-44 -11t-28 -29t-13 -40z" />
    <glyph glyph-name="uni0330" unicode="&#x330;" 
d="M366 -227q-23 0 -42 10t-34.5 22.5t-28 22t-24.5 9.5q-15 0 -23.5 -13t-11.5 -42l-92 5q2 52 16.5 85.5t41.5 50t66 16.5q24 0 42.5 -9.5t34 -22t28 -22.5t24.5 -10q15 0 23.5 13t11.5 42l92 -5q-2 -51 -16.5 -85t-41.5 -50.5t-66 -16.5z" />
    <glyph glyph-name="uni0331" unicode="&#x331;" 
d="M152 -188v93h296v-93h-296z" />
    <glyph glyph-name="uni0334" unicode="&#x334;" 
d="M416 166q-38 0 -68 10t-55.5 22.5t-47.5 22t-44 9.5q-15 0 -23.5 -12.5t-11.5 -39.5l-92 19q2 45 15.5 75t37.5 45t57 15q39 0 69 -9.5t55 -22t47.5 -22.5t44.5 -10q14 0 22.5 12.5t11.5 39.5l92 -18q-2 -46 -15.5 -76t-37.5 -45t-57 -15z" />
    <glyph glyph-name="uni0339" unicode="&#x339;" 
d="M232 -258v55q36 0 52 12.5t16 34.5q0 21 -16 34t-52 13v54q90 3 128 -25.5t38 -75.5t-38 -75.5t-128 -26.5z" />
    <glyph glyph-name="uni033A" unicode="&#x33a;" 
d="M169 -214v142h76v-71h110v71h76v-142h-262z" />
    <glyph glyph-name="uni033B" unicode="&#x33b;" 
d="M169 -247v181h262v-181h-262zM245 -193h110v74h-110v-74z" />
    <glyph glyph-name="uni033C" unicode="&#x33c;" 
d="M191 -245l-83 10q-1 81 27.5 120t87.5 39q27 0 46.5 -13t28.5 -40h4q9 27 29 40t46 13q60 0 88 -39t27 -120l-83 -10q0 47 -9.5 62.5t-28.5 15.5q-20 0 -28 -15.5t-8 -39.5v-22h-70v22q0 24 -8 39.5t-29 15.5q-18 0 -27.5 -15.5t-9.5 -62.5z" />
    <glyph glyph-name="uni033D" unicode="&#x33d;" 
d="M235 566l-49 44l63 56l-63 57l49 44l65 -55l65 55l49 -44l-63 -57l63 -56l-49 -44l-65 55z" />
    <glyph glyph-name="uni0341" unicode="&#x341;" 
d="M344 558l-99 15l35 257l144 -22z" />
    <glyph glyph-name="uni0342" unicode="&#x342;" 
d="M366 573q-23 0 -42 10t-34.5 22.5t-28 22t-24.5 9.5q-15 0 -23.5 -13t-11.5 -42l-92 5q2 52 16.5 85.5t41.5 50t66 16.5q24 0 42.5 -9.5t34 -22t28 -22.5t24.5 -10q15 0 23.5 13t11.5 42l92 -5q-2 -51 -16.5 -85t-41.5 -50.5t-66 -16.5z" />
    <glyph glyph-name="uni0343" unicode="&#x343;" 
d="M257 568l-12 58q19 4 32 11.5t13 23.5q0 19 -18 29t-62 13l9 90q65 -1 104.5 -17t56.5 -42.5t17 -61.5q0 -34 -19.5 -56t-51.5 -33.5t-69 -14.5z" />
    <glyph glyph-name="uni0344" unicode="&#x344;" 
d="M164 584q-25 0 -42.5 16.5t-17.5 43.5q0 28 17.5 44t42.5 16t42.5 -16t17.5 -44q0 -27 -17.5 -43.5t-42.5 -16.5zM248 581l38 249l104 -17l-77 -243zM436 584q-25 0 -42.5 16.5t-17.5 43.5q0 28 17.5 44t42.5 16t42.5 -16t17.5 -44q0 -27 -17.5 -43.5t-42.5 -16.5z" />
    <glyph glyph-name="uni0345" unicode="&#x345;" 
d="M354 -216q-61 0 -86 34.5t-25 92.5v34h106q-1 -10 -1.5 -21.5t-0.5 -18.5q0 -20 11 -26.5t26 -6.5h7.5t9.5 2l14 -79q-10 -5 -25 -8t-36 -3z" />
    <glyph glyph-name="uni035F" unicode="&#x35f;" 
d="M-208 -189v94h1016v-94h-1016z" />
    <glyph glyph-name="uni0361" unicode="&#x361;" 
d="M-119 586l-38 67q103 63 220 93.5t237 30.5t237.5 -30.5t219.5 -93.5l-38 -67q-65 36 -138 57.5t-145.5 30.5t-135.5 9t-135.5 -9t-145.5 -30.5t-138 -57.5z" />
    <glyph glyph-name="uni0374" unicode="&#x374;" 
d="M232 388l19 298h147l-23 -127l-47 -171h-96z" />
    <glyph glyph-name="uni0375" unicode="&#x375;" 
d="M202 0l23 127l47 171h96l-19 -298h-147z" />
    <glyph glyph-name="uni037A" unicode="&#x37a;" 
d="M354 -216q-61 0 -86 34.5t-25 92.5v34h106q-1 -10 -1.5 -21.5t-0.5 -18.5q0 -20 11 -26.5t26 -6.5h7.5t9.5 2l14 -79q-10 -5 -25 -8t-36 -3z" />
    <glyph glyph-name="uni037E" unicode="&#x37e;" 
d="M300 311q-51 0 -83.5 34t-32.5 83t32.5 83.5t83.5 34.5q52 0 84 -34.5t32 -83.5t-32 -83t-84 -34zM219 -217l-37 86q67 23 99.5 60t30.5 85l-5 119l60 -100q-14 -12 -30.5 -17.5t-35.5 -5.5q-28 0 -53 12t-40 34.5t-15 55.5q0 46 33 74.5t79 28.5q62 0 93 -45.5
t31 -126.5q0 -95 -53.5 -161.5t-156.5 -98.5z" />
    <glyph glyph-name="tonos" unicode="&#x384;" 
d="M344 558l-99 15l35 257l144 -22z" />
    <glyph glyph-name="dieresistonos" unicode="&#x385;" 
d="M164 584q-25 0 -42.5 16.5t-17.5 43.5q0 28 17.5 44t42.5 16t42.5 -16t17.5 -44q0 -27 -17.5 -43.5t-42.5 -16.5zM248 581l38 249l104 -17l-77 -243zM436 584q-25 0 -42.5 16.5t-17.5 43.5q0 28 17.5 44t42.5 16t42.5 -16t17.5 -44q0 -27 -17.5 -43.5t-42.5 -16.5z" />
    <glyph glyph-name="Alphatonos" unicode="&#x386;" 
d="M58 0l179 652h176l178 -652h-156l-69 330q-11 49 -20.5 93.5t-22.5 100.5h-4q-11 -56 -20 -100.5t-19 -93.5l-71 -330h-151zM192 155v115h263v-115h-263zM97 347l-94 17l45 326l126 -17z" />
    <glyph glyph-name="anoteleia" unicode="&#x387;" 
d="M300 292q-51 0 -83.5 34t-32.5 83t32.5 83.5t83.5 34.5q52 0 84 -34.5t32 -83.5t-32 -83t-84 -34z" />
    <glyph glyph-name="Epsilontonos" unicode="&#x388;" 
d="M210 0v652h314v-124h-183v-131h140v-123h-140v-150h193v-124h-324zM93 347l-93 17l44 326l126 -17z" />
    <glyph glyph-name="Etatonos" unicode="&#x389;" 
d="M197 0v652h131v-251h94v251h130v-652h-130v272h-94v-272h-131zM93 347l-93 17l44 326l126 -17z" />
    <glyph glyph-name="Iotatonos" unicode="&#x38a;" 
d="M200 0v124h89v404h-89v124h326v-124h-89v-404h89v-124h-326zM93 347l-93 17l44 326l126 -17z" />
    <glyph glyph-name="Omicrontonos" unicode="&#x38c;" 
d="M354 -12q-61 0 -108.5 40.5t-73.5 116.5t-26 184q0 111 26 185.5t73.5 112t108.5 37.5q62 0 108.5 -37.5t73 -112t26.5 -185.5q0 -112 -26.5 -187.5t-73 -114.5t-108.5 -39zM354 115q22 0 37 20.5t23.5 67.5t8.5 126q0 78 -8.5 123.5t-23.5 65t-37 19.5
q-21 0 -36.5 -19.5t-24 -65t-8.5 -123.5q0 -79 8.5 -126t24 -67.5t36.5 -20.5zM93 347l-93 17l44 326l126 -17z" />
    <glyph glyph-name="Upsilontonos" unicode="&#x38e;" 
d="M348 0v220l-146 432h134l40 -157q10 -40 18.5 -75.5t17.5 -73.5h4q9 38 19 73.5t19 75.5l41 157h129l-146 -432v-220h-130zM105 347l-94 17l45 326l126 -17z" />
    <glyph glyph-name="Omegatonos" unicode="&#x38f;" 
d="M137 0v119h82v4q-31 50 -51.5 109.5t-20.5 143.5q0 85 26 150t72 101.5t109 36.5q62 0 108.5 -36.5t72 -101.5t25.5 -150q0 -84 -20.5 -143.5t-51.5 -109.5v-4h82v-119h-192v106q17 43 26.5 78.5t13.5 73t4 87.5q0 64 -8 106.5t-23 64t-37 21.5t-37 -21.5t-23.5 -64
t-8.5 -106.5q0 -50 4 -87.5t14 -73t26 -78.5v-106h-192zM93 347l-93 17l44 326l126 -17z" />
    <glyph glyph-name="iotadieresistonos" unicode="&#x390;" 
d="M393 -12q-71 0 -112 25.5t-58 71.5t-17 109v187h-145v115h293q-1 -51 -3.5 -108.5t-4.5 -110t-2 -89.5q0 -46 21.5 -63.5t65.5 -17.5q15 0 36.5 4.5t40.5 12.5l32 -108q-25 -11 -61 -19.5t-86 -8.5zM142 584q-25 0 -42.5 16.5t-17.5 43.5q0 28 17.5 44t42.5 16t42.5 -16
t17.5 -44q0 -27 -17.5 -43.5t-42.5 -16.5zM226 581l38 249l104 -17l-77 -243zM414 584q-25 0 -42.5 16.5t-17.5 43.5q0 28 17.5 44t42.5 16t42.5 -16t17.5 -44q0 -27 -17.5 -43.5t-42.5 -16.5z" />
    <glyph glyph-name="Alpha" unicode="&#x391;" 
d="M9 0l203 652h176l203 -652h-156l-84 330q-12 49 -26 104t-26 106h-4q-12 -51 -25 -106t-26 -104l-85 -330h-150zM143 155v115h312v-115h-312z" />
    <glyph glyph-name="Beta" unicode="&#x392;" 
d="M74 0v652h219q68 0 122 -14.5t85.5 -49.5t31.5 -98q0 -44 -27 -85t-85 -56v-4q70 -12 106 -49.5t36 -103.5t-33 -108.5t-89.5 -63t-127.5 -20.5h-238zM221 390h65q54 0 78 21.5t24 58.5q0 36 -24.5 51.5t-76.5 15.5h-66v-147zM221 115h79q60 0 89 22t29 66q0 43 -29 62
t-89 19h-79v-169z" />
    <glyph glyph-name="Gamma" unicode="&#x393;" 
d="M108 0v652h429v-124h-281v-528h-148z" />
    <glyph glyph-name="uni0394" unicode="&#x394;" 
d="M31 0v89l181 563h176l181 -563v-89h-538zM189 124h219l-57 205q-12 49 -26 104t-26 107h-4q-12 -52 -25.5 -107t-25.5 -104z" />
    <glyph glyph-name="Epsilon" unicode="&#x395;" 
d="M92 0v652h432v-124h-284v-131h241v-123h-241v-150h294v-124h-442z" />
    <glyph glyph-name="Zeta" unicode="&#x396;" 
d="M56 0v89l305 440h-276v123h458v-89l-305 -439h309v-124h-491z" />
    <glyph glyph-name="Eta" unicode="&#x397;" 
d="M64 0v652h147v-252h178v252h147v-652h-147v272h-178v-272h-147z" />
    <glyph glyph-name="Theta" unicode="&#x398;" 
d="M300 -12q-78 0 -137 41t-92 117t-33 183q0 106 33 181t92 114.5t137 39.5t137 -39.5t92 -114.5t33 -181q0 -107 -33 -183t-92 -117t-137 -41zM300 115q34 0 59 26.5t38.5 74t13.5 113.5q0 65 -13.5 111.5t-38.5 71.5t-59 25t-59 -25t-38.5 -71.5t-13.5 -111.5
q0 -66 13.5 -113.5t38.5 -74t59 -26.5zM232 272v129h136v-129h-136z" />
    <glyph glyph-name="Iota" unicode="&#x399;" 
d="M74 0v124h152v404h-152v124h452v-124h-152v-404h152v-124h-452z" />
    <glyph glyph-name="Kappa" unicode="&#x39a;" 
d="M68 0v652h149v-267h3l193 267h163l-359 -474v-178h-149zM431 0l-152 303l87 115l228 -418h-163z" />
    <glyph glyph-name="Lambda" unicode="&#x39b;" 
d="M15 0l196 652h177l197 -652h-156l-78 304q-14 53 -25.5 104t-26.5 105h-4q-15 -54 -26.5 -105t-26.5 -104l-77 -304h-150z" />
    <glyph glyph-name="Mu" unicode="&#x39c;" 
d="M58 0v652h154l64 -231l22 -90h4l22 90l64 231h154v-652h-124v202q0 27 2 67.5t5 84.5t6.5 84t5.5 66h-3l-50 -174l-50 -157h-72l-51 157l-47 174h-3q2 -26 5.5 -66t6.5 -84t5 -84.5t2 -67.5v-202h-122z" />
    <glyph glyph-name="Nu" unicode="&#x39d;" 
d="M66 0v652h151l137 -324l56 -144h4q-5 52 -13 116t-8 121v231h141v-652h-151l-137 325l-56 142h-4q5 -53 13 -115.5t8 -120.5v-231h-141z" />
    <glyph glyph-name="Xi" unicode="&#x39e;" 
d="M66 0v124h468v-124h-468zM134 274v123h332v-123h-332zM76 528v124h448v-124h-448z" />
    <glyph glyph-name="Omicron" unicode="&#x39f;" 
d="M300 -12q-78 0 -137 39t-92 114.5t-33 187.5q0 109 33 183.5t92 113t137 38.5t137 -38.5t92 -113t33 -183.5q0 -112 -33 -187.5t-92 -114.5t-137 -39zM300 115q34 0 59 24.5t38.5 72t13.5 117.5q0 68 -13.5 114t-38.5 70t-59 24t-59 -24t-38.5 -70t-13.5 -114
q0 -70 13.5 -117.5t38.5 -72t59 -24.5z" />
    <glyph glyph-name="Pi" unicode="&#x3a0;" 
d="M64 0v652h472v-652h-147v528h-178v-528h-147z" />
    <glyph glyph-name="Rho" unicode="&#x3a1;" 
d="M75 0v652h231q71 0 128.5 -19.5t92 -65.5t34.5 -125q0 -76 -35 -125t-93 -72.5t-127 -23.5h-84v-221h-147zM222 338h75q61 0 90.5 27t29.5 77q0 52 -30.5 72.5t-89.5 20.5h-75v-197z" />
    <glyph glyph-name="Sigma" unicode="&#x3a3;" 
d="M63 0v89l202 240l-199 234v89h447v-124h-263l163 -195l-166 -209h293v-124h-477z" />
    <glyph glyph-name="Tau" unicode="&#x3a4;" 
d="M226 0v528h-195v124h538v-124h-195v-528h-148z" />
    <glyph glyph-name="Upsilon" unicode="&#x3a5;" 
d="M226 0v220l-210 432h158l66 -157q15 -37 29.5 -73.5t29.5 -75.5h4q16 39 31.5 75.5t29.5 73.5l66 157h154l-210 -432v-220h-148z" />
    <glyph glyph-name="Phi" unicode="&#x3a6;" 
d="M277 61q-78 0 -137 31t-91.5 91t-32.5 146t32.5 144.5t91.5 88.5t137 30h46q78 0 137 -30t91.5 -88.5t32.5 -144.5t-32.5 -146t-91.5 -91t-137 -31h-46zM268 172h64q36 0 63.5 19t43 54.5t15.5 83.5t-15.5 82t-43 52.5t-63.5 18.5h-64q-36 0 -63.5 -18.5t-43 -52.5
t-15.5 -82t15.5 -83.5t43 -54.5t63.5 -19zM242 -22v696h116v-696h-116z" />
    <glyph glyph-name="Chi" unicode="&#x3a7;" 
d="M18 0l190 335l-179 317h165l63 -123q11 -22 23 -48t27 -57h4q11 31 22 57t22 48l58 123h158l-179 -324l190 -328h-164l-71 133q-13 26 -25.5 51.5t-26.5 55.5h-4q-12 -30 -24 -55.5t-24 -51.5l-68 -133h-157z" />
    <glyph glyph-name="Psi" unicode="&#x3a8;" 
d="M273 217q-116 0 -184 58t-68 176v201h136v-193q0 -65 28 -95.5t80 -30.5h70q53 0 80.5 30.5t27.5 95.5v193h136v-201q0 -118 -68 -176t-184 -58h-54zM238 0v652h124v-652h-124z" />
    <glyph glyph-name="uni03A9" unicode="&#x3a9;" 
d="M31 0v119h100v4q-21 22 -43 56.5t-36 79.5t-14 99q0 90 32.5 159t91.5 108t138 39q80 0 138.5 -39t91 -108t32.5 -159q0 -54 -14 -99t-35.5 -79.5t-43.5 -56.5v-4h100v-119h-227v106q24 38 39.5 73t22.5 74t7 90q0 57 -13 100.5t-37.5 68.5t-60.5 25t-60.5 -25
t-37.5 -68.5t-13 -100.5q0 -51 7.5 -90t22.5 -74t39 -73v-106h-227z" />
    <glyph glyph-name="Iotadieresis" unicode="&#x3aa;" 
d="M74 0v124h152v404h-152v124h452v-124h-152v-404h152v-124h-452zM189 700q-32 0 -52.5 21.5t-20.5 52.5t20.5 51.5t52.5 20.5t53 -20.5t21 -51.5t-21 -52.5t-53 -21.5zM411 700q-32 0 -53 21.5t-21 52.5t21 51.5t53 20.5t52.5 -20.5t20.5 -51.5t-20.5 -52.5t-52.5 -21.5z
" />
    <glyph glyph-name="Upsilondieresis" unicode="&#x3ab;" 
d="M226 0v220l-210 432h158l66 -157q15 -37 29.5 -73.5t29.5 -75.5h4q16 39 31.5 75.5t29.5 73.5l66 157h154l-210 -432v-220h-148zM189 700q-32 0 -52.5 21.5t-20.5 52.5t20.5 51.5t52.5 20.5t53 -20.5t21 -51.5t-21 -52.5t-53 -21.5zM411 700q-32 0 -53 21.5t-21 52.5
t21 51.5t53 20.5t52.5 -20.5t20.5 -51.5t-20.5 -52.5t-52.5 -21.5z" />
    <glyph glyph-name="alphatonos" unicode="&#x3ac;" 
d="M238 -12q-88 0 -142 68.5t-54 189.5q0 82 30 140.5t77 90t101 31.5q29 0 55 -9.5t48 -31t39 -58.5h3l16 87h145q-10 -43 -21 -91t-21 -95.5t-16 -88t-6 -69.5q0 -24 13.5 -34.5t34.5 -10.5q7 0 15.5 1.5t16.5 4.5l18 -108q-14 -7 -35.5 -12t-51.5 -5q-51 0 -82.5 18.5
t-45.5 63.5h-3q-50 -82 -134 -82zM273 108q21 0 40 14.5t31.5 39t15.5 53.5l6 86q-7 22 -17 38.5t-21.5 27t-23.5 16t-23 5.5q-22 0 -42 -14.5t-33 -45.5t-13 -81q0 -72 21.5 -105.5t58.5 -33.5zM372 558l-99 15l35 257l144 -22z" />
    <glyph glyph-name="epsilontonos" unicode="&#x3ad;" 
d="M330 -12q-77 0 -136 17t-91.5 51t-32.5 85q0 34 14 57t40 37.5t60 23.5v4q-47 15 -70 44.5t-23 58.5q0 50 31 81.5t86 46t125 14.5q52 0 105.5 -15t96.5 -44l-54 -95q-32 22 -68 32t-72 10q-56 0 -81 -13.5t-25 -36.5q0 -22 25.5 -32.5t74.5 -10.5q16 0 34 1l36 2v-105
q-22 2 -43.5 2.5t-42.5 0.5q-54 0 -79.5 -10.5t-25.5 -37.5q0 -26 30.5 -41t99.5 -15q31 0 69 9.5t75 37.5l58 -94q-57 -40 -108.5 -52.5t-107.5 -12.5zM376 558l-99 15l35 257l144 -22z" />
    <glyph glyph-name="etatonos" unicode="&#x3ae;" 
d="M383 -177q1 59 3.5 122.5t3.5 126.5t2 118.5t1 98.5q0 54 -15 74t-53 20q-19 0 -36 -7.5t-33 -22.5t-33 -40v-313h-147v344q0 29 -2 70t-9 82h130l11 -84h4q33 42 72.5 69t93.5 27q86 0 120.5 -53.5t34.5 -146.5v-485h-148zM366 558l-99 15l35 257l144 -22z" />
    <glyph glyph-name="iotatonos" unicode="&#x3af;" 
d="M393 -12q-71 0 -112 25.5t-58 71.5t-17 109v187h-145v115h293q-1 -51 -3.5 -108.5t-4.5 -110t-2 -89.5q0 -46 21.5 -63.5t65.5 -17.5q15 0 36.5 4.5t40.5 12.5l32 -108q-25 -11 -61 -19.5t-86 -8.5zM322 558l-99 15l35 257l144 -22z" />
    <glyph glyph-name="upsilondieresistonos" unicode="&#x3b0;" 
d="M294 -12q-78 0 -128 28.5t-73.5 79t-23.5 115.5q0 34 2 66.5t2 66.5q0 29 -1.5 70t-9.5 82h142q6 -25 8 -56t2 -66q0 -29 -3 -79t-3 -96q0 -30 11 -50.5t31 -31t44 -10.5q32 0 53 16.5t32 51.5t11 90q0 45 -7.5 96.5t-24.5 115.5l142 31q15 -57 26.5 -116.5t11.5 -119.5
q0 -88 -28 -151.5t-82 -98t-134 -34.5zM156 584q-25 0 -42.5 16.5t-17.5 43.5q0 28 17.5 44t42.5 16t42.5 -16t17.5 -44q0 -27 -17.5 -43.5t-42.5 -16.5zM240 581l38 249l104 -17l-77 -243zM428 584q-25 0 -42.5 16.5t-17.5 43.5q0 28 17.5 44t42.5 16t42.5 -16t17.5 -44
q0 -27 -17.5 -43.5t-42.5 -16.5z" />
    <glyph glyph-name="alpha" unicode="&#x3b1;" 
d="M238 -12q-88 0 -142 68.5t-54 189.5q0 82 30 140.5t77 90t101 31.5q29 0 55 -9.5t48 -31t39 -58.5h3l16 87h145q-10 -43 -21 -91t-21 -95.5t-16 -88t-6 -69.5q0 -24 13.5 -34.5t34.5 -10.5q7 0 15.5 1.5t16.5 4.5l18 -108q-14 -7 -35.5 -12t-51.5 -5q-51 0 -82.5 18.5
t-45.5 63.5h-3q-50 -82 -134 -82zM273 108q21 0 40 14.5t31.5 39t15.5 53.5l6 86q-7 22 -17 38.5t-21.5 27t-23.5 16t-23 5.5q-22 0 -42 -14.5t-33 -45.5t-13 -81q0 -72 21.5 -105.5t58.5 -33.5z" />
    <glyph glyph-name="beta" unicode="&#x3b2;" 
d="M72 -177v651q0 67 23.5 121.5t72 86t123.5 31.5q55 0 104 -19.5t80 -60t31 -102.5q0 -50 -21 -87t-64 -63v-4q39 -7 70 -31.5t49 -62t18 -83.5q0 -74 -29.5 -120.5t-74.5 -69t-92 -22.5q-37 0 -76.5 14.5t-74.5 52.5q2 -59 4.5 -116.5t5.5 -115.5h-149zM319 108
q26 0 47.5 11.5t34.5 34t13 55.5q0 40 -21 67.5t-64 27.5q-22 0 -40 -6l-18 107q36 6 56.5 21.5t29 39t8.5 51.5q0 41 -22 60.5t-51 19.5q-38 0 -57 -36t-21 -104q-1 -73 -3 -144t-2 -144q28 -36 56 -48.5t54 -12.5z" />
    <glyph glyph-name="gamma" unicode="&#x3b3;" 
d="M218 -177q3 21 4.5 39t2 40.5t0.5 56.5q0 47 -16 111.5t-44.5 136.5t-65.5 142t-78 127l150 32q24 -34 50 -87t51 -118.5t43 -136.5h4q40 80 65 160.5t31 169.5h146q-11 -63 -26 -118t-37.5 -110.5t-56.5 -117t-84 -137.5q8 -47 10.5 -97.5t2.5 -92.5h-152z" />
    <glyph glyph-name="delta" unicode="&#x3b4;" 
d="M297 -12q-66 0 -121.5 27t-89 78t-33.5 123q0 60 29 103.5t75.5 73t97.5 45.5l67 -79q-60 -13 -95 -47.5t-35 -93.5q0 -36 15 -61t40 -37.5t54 -12.5q30 0 53.5 12t37 38t13.5 67q0 38 -19.5 66.5t-51 52t-69.5 46.5q-38 25 -76 53t-63 64t-25 85t46.5 85.5t143.5 36.5
q58 0 119.5 -11.5t117.5 -30.5l-33 -109q-57 19 -110 30.5t-94 11.5q-26 0 -38 -7.5t-12 -19.5q0 -18 20 -36t54 -39t77 -49q51 -32 85.5 -64.5t52 -72.5t17.5 -93q0 -70 -30 -123t-85.5 -82.5t-134.5 -29.5z" />
    <glyph glyph-name="epsilon" unicode="&#x3b5;" 
d="M330 -12q-77 0 -136 17t-91.5 51t-32.5 85q0 34 14 57t40 37.5t60 23.5v4q-47 15 -70 44.5t-23 58.5q0 50 31 81.5t86 46t125 14.5q52 0 105.5 -15t96.5 -44l-54 -95q-32 22 -68 32t-72 10q-56 0 -81 -13.5t-25 -36.5q0 -22 25.5 -32.5t74.5 -10.5q16 0 34 1l36 2v-105
q-22 2 -43.5 2.5t-42.5 0.5q-54 0 -79.5 -10.5t-25.5 -37.5q0 -26 30.5 -41t99.5 -15q31 0 69 9.5t75 37.5l58 -94q-57 -40 -108.5 -52.5t-107.5 -12.5z" />
    <glyph glyph-name="zeta" unicode="&#x3b6;" 
d="M474 -187l-115 38q21 28 33.5 47.5t12.5 39.5q0 13 -10 21.5t-35 16t-71 16.5q-38 8 -74.5 23t-65.5 41.5t-46 68.5t-17 103q0 38 12 76.5t35.5 76t57.5 73.5t77.5 71.5t95.5 68.5q-18 -1 -48.5 -1.5t-66.5 -1t-70 -2t-62 -4.5v116h410v-116h-6q-63 -30 -115 -73
t-90.5 -91.5t-59 -96t-20.5 -88.5q0 -40 13 -65t43 -39t83 -25q86 -17 122.5 -44.5t36.5 -85.5q0 -25 -14 -70.5t-46 -93.5z" />
    <glyph glyph-name="eta" unicode="&#x3b7;" 
d="M383 -177q1 59 3.5 122.5t3.5 126.5t2 118.5t1 98.5q0 54 -15 74t-53 20q-19 0 -36 -7.5t-33 -22.5t-33 -40v-313h-147v344q0 29 -2 70t-9 82h130l11 -84h4q33 42 72.5 69t93.5 27q86 0 120.5 -53.5t34.5 -146.5v-485h-148z" />
    <glyph glyph-name="theta" unicode="&#x3b8;" 
d="M300 -12q-73 0 -128.5 40t-86 121t-30.5 203t30.5 202.5t86 119.5t128.5 39q74 0 129 -39.5t85.5 -119.5t30.5 -202t-30.5 -203t-85.5 -121t-129 -40zM300 107q29 0 52.5 20t37 73.5t13.5 151.5q0 75 -8 122t-22 73.5t-32.5 36.5t-40.5 10t-40.5 -10t-32.5 -36.5
t-22 -73.5t-8 -122q0 -98 13.5 -151.5t37.5 -73.5t52 -20zM134 304v97h332v-97h-332z" />
    <glyph glyph-name="iota" unicode="&#x3b9;" 
d="M393 -12q-71 0 -112 25.5t-58 71.5t-17 109v187h-145v115h293q-1 -51 -3.5 -108.5t-4.5 -110t-2 -89.5q0 -46 21.5 -63.5t65.5 -17.5q15 0 36.5 4.5t40.5 12.5l32 -108q-25 -11 -61 -19.5t-86 -8.5z" />
    <glyph glyph-name="kappa" unicode="&#x3ba;" 
d="M85 0v344q0 29 -2 71t-10 81h146q6 -23 7.5 -55t1.5 -67v-93h4q38 58 82.5 106.5t97.5 80t113 40.5l12 -137q-32 -7 -62 -20t-61 -35t-68 -55.5t-81 -82.5q-19 -21 -30.5 -57t-11.5 -92v-29h-138zM420 -11q-21 27 -44 60.5t-47 74t-48 88.5l94 95q26 -50 61.5 -106.5
t74.5 -109t75 -91.5z" />
    <glyph glyph-name="lambda" unicode="&#x3bb;" 
d="M193 -11l-159 11l216 498l-3 15q-7 26 -20.5 43t-32.5 25t-40 8q-23 0 -38.5 -4t-32.5 -12l-32 119q25 10 50.5 15.5t69.5 5.5q58 0 100 -21.5t72 -67.5t52 -119l181 -505h-159l-99 334h-4z" />
    <glyph glyph-name="uni03BC" unicode="&#x3bc;" 
d="M64 -196v692h147v-287q0 -54 17.5 -75t49.5 -21q20 0 36.5 7.5t32 24t29.5 43.5v308h148q-2 -58 -4.5 -123t-4 -124t-1.5 -101q0 -23 10.5 -32t24.5 -9q5 0 8.5 0.5t9.5 1.5l18 -109q-12 -5 -30.5 -8.5t-43.5 -3.5q-48 0 -77 23t-42 70h-3q-20 -43 -51 -65.5t-67 -22.5
q-19 0 -37.5 4.5t-31.5 20.5q1 -40 2 -75t3 -68.5t5 -70.5h-148z" />
    <glyph glyph-name="nu" unicode="&#x3bd;" 
d="M222 0q-15 94 -46 179.5t-70.5 160.5t-80.5 136l150 32q20 -34 42 -78.5t41.5 -94t34.5 -97t22 -88.5h4q26 57 45.5 115t32 116t16.5 115h146q-15 -88 -40 -166t-63 -157.5t-95 -172.5h-139z" />
    <glyph glyph-name="xi" unicode="&#x3be;" 
d="M474 -187l-115 38q22 28 34.5 47.5t12.5 38.5q0 14 -10.5 22.5t-35 16t-70.5 16.5q-56 13 -103 33.5t-74.5 58.5t-27.5 100q0 43 20 79.5t53 62.5t73 39v4q-48 19 -74.5 53.5t-26.5 79.5q0 26 12 51t35 41q-19 -1 -35.5 -2t-36 -2.5t-46.5 -4.5v115h468v-115h-141
q-32 0 -57 -10.5t-38.5 -30.5t-13.5 -47q0 -23 12.5 -43.5t36 -33.5t56.5 -13q26 0 46 1.5t45 7.5v-116q-28 7 -51.5 8t-48.5 1q-38 0 -69.5 -12.5t-50 -35.5t-18.5 -53q0 -35 16 -53t49 -28t84 -20q61 -11 93.5 -27t45 -40.5t12.5 -62.5q0 -25 -13.5 -69.5t-47.5 -94.5z
" />
    <glyph glyph-name="omicron" unicode="&#x3bf;" 
d="M300 -12q-65 0 -122 30.5t-92 89t-35 140.5t35 140.5t92 89t122 30.5t122 -30.5t92 -89t35 -140.5t-35 -140.5t-92 -89t-122 -30.5zM300 107q33 0 55 17t32.5 49t10.5 75t-10.5 75t-32.5 49t-55 17t-54.5 -17t-32.5 -49t-11 -75t11 -75t32.5 -49t54.5 -17z" />
    <glyph glyph-name="pi" unicode="&#x3c0;" 
d="M511 -12q-55 0 -87.5 21t-46.5 59t-14 90q0 11 0.5 35t1.5 56t1.5 66t0.5 65h-122q0 -88 -4 -189t-10 -200l-147 9q13 101 18.5 199.5t5.5 180.5h-98v110l75 6h505v-116h-82q-2 -32 -3.5 -68t-2 -69.5t-1 -58t-0.5 -32.5q0 -25 11.5 -35t33.5 -10q5 0 10 1.5t13 2.5
l18 -108q-13 -6 -32 -10.5t-44 -4.5z" />
    <glyph glyph-name="rho" unicode="&#x3c1;" 
d="M72 -177v414q0 95 32 154.5t87 88t124 28.5q112 0 175 -66t63 -186q0 -85 -30.5 -145t-79 -91.5t-102.5 -31.5q-33 0 -68 11.5t-62 43.5q1 -38 3 -74.5t3.5 -72.5t3.5 -73h-149zM307 108q26 0 47.5 15t34.5 47.5t13 83.5q0 45 -10 74.5t-30 44.5t-52 15q-29 0 -51.5 -17
t-35 -47.5t-12.5 -72.5v-103q23 -25 47.5 -32.5t48.5 -7.5z" />
    <glyph glyph-name="sigma1" unicode="&#x3c2;" 
d="M460 -186l-115 38q21 28 35 50t14 41q0 16 -8 27t-28 19.5t-55 17.5q-42 10 -82.5 27.5t-74 45.5t-53.5 71.5t-20 105.5q0 60 23.5 106.5t63.5 79t91.5 49t106.5 16.5q57 0 103 -17.5t77 -49.5l-67 -91q-29 24 -52.5 31.5t-50.5 7.5q-42 0 -74.5 -16.5t-51.5 -46
t-19 -69.5q0 -41 16.5 -66.5t48 -40.5t76.5 -25q62 -14 96.5 -32t48.5 -44.5t14 -67.5q0 -27 -15 -73t-48 -94z" />
    <glyph glyph-name="sigma" unicode="&#x3c3;" 
d="M284 -12q-65 0 -119 29.5t-86 86t-32 138.5q0 86 35 142.5t91 84t118 27.5h285v-121q-40 5 -71.5 8t-70.5 3v-4q39 -21 59 -63.5t20 -99.5q0 -71 -29 -123t-80.5 -80t-119.5 -28zM286 107q27 0 46.5 15t30 43.5t10.5 68.5t-10 72.5t-29 51.5t-48 19q-27 0 -47 -13.5
t-30.5 -43.5t-10.5 -78q0 -43 10.5 -73.5t30.5 -46t47 -15.5z" />
    <glyph glyph-name="tau" unicode="&#x3c4;" 
d="M385 -12q-59 0 -94 22.5t-50 63t-15 95.5v212h-176v109l74 6h426v-115h-180q-2 -61 -3.5 -118t-1.5 -100q0 -31 16 -43.5t42 -12.5q16 0 31 3t35 10l19 -110q-26 -9 -57.5 -15.5t-65.5 -6.5z" />
    <glyph glyph-name="upsilon" unicode="&#x3c5;" 
d="M294 -12q-78 0 -128 28.5t-73.5 79t-23.5 115.5q0 34 2 66.5t2 66.5q0 29 -1.5 70t-9.5 82h142q6 -25 8 -56t2 -66q0 -29 -3 -79t-3 -96q0 -30 11 -50.5t31 -31t44 -10.5q32 0 53 16.5t32 51.5t11 90q0 45 -7.5 96.5t-24.5 115.5l142 31q15 -57 26.5 -116.5t11.5 -119.5
q0 -88 -28 -151.5t-82 -98t-134 -34.5z" />
    <glyph glyph-name="phi" unicode="&#x3c6;" 
d="M254 -8q-59 0 -111.5 30t-85 87t-32.5 139q0 83 32.5 139.5t85 86.5t111.5 30l-8 -110q-27 0 -48 -17t-32.5 -49t-11.5 -80q0 -47 11.5 -79.5t32.5 -49t48 -17.5zM346 -8l8 110q28 1 48.5 17.5t32 49t11.5 79.5q0 48 -11.5 80t-32 49t-48.5 17l-8 110q60 0 112 -30
t84.5 -86.5t32.5 -139.5q0 -82 -32.5 -139t-84.5 -87t-112 -30zM238 -177v805h124v-805h-124z" />
    <glyph glyph-name="chi" unicode="&#x3c7;" 
d="M193 -189l-151 12l192 342l-193 311l145 32l119 -214h4l91 202h153l-174 -328l201 -325l-145 -32l-126 237h-4z" />
    <glyph glyph-name="psi" unicode="&#x3c8;" 
d="M250 -12q-82 0 -130 31.5t-69 85t-21 116.5v123q0 29 -2 70t-9 82h135q5 -25 7 -56t2 -66q0 -23 -0.5 -53.5t-1 -60.5t-0.5 -51q0 -28 7.5 -52t25 -39t48.5 -15zM353 -12v115q45 0 68.5 34.5t23.5 119.5q0 33 -2.5 67t-10 71.5t-20.5 81.5l131 31q13 -39 21.5 -79
t12.5 -81.5t4 -83.5q0 -132 -58 -204t-170 -72zM239 -177v805h123v-805h-123z" />
    <glyph glyph-name="omega" unicode="&#x3c9;" 
d="M196 -12q-53 0 -92 30.5t-60.5 89.5t-21.5 145q0 41 10 86t28 89t40 80l131 -52q-25 -41 -41.5 -79t-25 -75t-8.5 -78q0 -52 11.5 -84.5t35.5 -32.5q15 0 25 10t15 30.5t5 52.5q0 23 -1.5 41.5t-4 39.5t-6.5 50h124q-3 -29 -5.5 -50t-4.5 -39.5t-2 -41.5q0 -35 4.5 -55.5
t14 -29t22.5 -8.5q21 0 34 35.5t13 103.5q0 41 -6 74t-19.5 66.5t-37.5 72.5l131 49q23 -35 39 -74t25.5 -82.5t9.5 -94.5q0 -128 -44 -198.5t-125 -70.5q-33 0 -62.5 17.5t-46.5 59.5h-4q-16 -42 -41.5 -59.5t-58.5 -17.5z" />
    <glyph glyph-name="iotadieresis" unicode="&#x3ca;" 
d="M393 -12q-71 0 -112 25.5t-58 71.5t-17 109v187h-145v115h293q-1 -51 -3.5 -108.5t-4.5 -110t-2 -89.5q0 -46 21.5 -63.5t65.5 -17.5q15 0 36.5 4.5t40.5 12.5l32 -108q-25 -11 -61 -19.5t-86 -8.5zM167 571q-35 0 -57.5 23.5t-22.5 56.5q0 34 22.5 57.5t57.5 23.5
q36 0 58 -23.5t22 -57.5q0 -33 -22 -56.5t-58 -23.5zM389 571q-36 0 -58 23.5t-22 56.5q0 34 22 57.5t58 23.5q35 0 57.5 -23.5t22.5 -57.5q0 -33 -22.5 -56.5t-57.5 -23.5z" />
    <glyph glyph-name="upsilondieresis" unicode="&#x3cb;" 
d="M294 -12q-78 0 -128 28.5t-73.5 79t-23.5 115.5q0 34 2 66.5t2 66.5q0 29 -1.5 70t-9.5 82h142q6 -25 8 -56t2 -66q0 -29 -3 -79t-3 -96q0 -30 11 -50.5t31 -31t44 -10.5q32 0 53 16.5t32 51.5t11 90q0 45 -7.5 96.5t-24.5 115.5l142 31q15 -57 26.5 -116.5t11.5 -119.5
q0 -88 -28 -151.5t-82 -98t-134 -34.5zM181 571q-35 0 -57.5 23.5t-22.5 56.5q0 34 22.5 57.5t57.5 23.5q36 0 58 -23.5t22 -57.5q0 -33 -22 -56.5t-58 -23.5zM403 571q-36 0 -58 23.5t-22 56.5q0 34 22 57.5t58 23.5q35 0 57.5 -23.5t22.5 -57.5q0 -33 -22.5 -56.5
t-57.5 -23.5z" />
    <glyph glyph-name="omicrontonos" unicode="&#x3cc;" 
d="M300 -12q-65 0 -122 30.5t-92 89t-35 140.5t35 140.5t92 89t122 30.5t122 -30.5t92 -89t35 -140.5t-35 -140.5t-92 -89t-122 -30.5zM300 107q33 0 55 17t32.5 49t10.5 75t-10.5 75t-32.5 49t-55 17t-54.5 -17t-32.5 -49t-11 -75t11 -75t32.5 -49t54.5 -17zM344 558
l-99 15l35 257l144 -22z" />
    <glyph glyph-name="upsilontonos" unicode="&#x3cd;" 
d="M294 -12q-78 0 -128 28.5t-73.5 79t-23.5 115.5q0 34 2 66.5t2 66.5q0 29 -1.5 70t-9.5 82h142q6 -25 8 -56t2 -66q0 -29 -3 -79t-3 -96q0 -30 11 -50.5t31 -31t44 -10.5q32 0 53 16.5t32 51.5t11 90q0 45 -7.5 96.5t-24.5 115.5l142 31q15 -57 26.5 -116.5t11.5 -119.5
q0 -88 -28 -151.5t-82 -98t-134 -34.5zM336 558l-99 15l35 257l144 -22z" />
    <glyph glyph-name="omegatonos" unicode="&#x3ce;" 
d="M196 -12q-53 0 -92 30.5t-60.5 89.5t-21.5 145q0 41 10 86t28 89t40 80l131 -52q-25 -41 -41.5 -79t-25 -75t-8.5 -78q0 -52 11.5 -84.5t35.5 -32.5q15 0 25 10t15 30.5t5 52.5q0 23 -1.5 41.5t-4 39.5t-6.5 50h124q-3 -29 -5.5 -50t-4.5 -39.5t-2 -41.5q0 -35 4.5 -55.5
t14 -29t22.5 -8.5q21 0 34 35.5t13 103.5q0 41 -6 74t-19.5 66.5t-37.5 72.5l131 49q23 -35 39 -74t25.5 -82.5t9.5 -94.5q0 -128 -44 -198.5t-125 -70.5q-33 0 -62.5 17.5t-46.5 59.5h-4q-16 -42 -41.5 -59.5t-58.5 -17.5zM344 558l-99 15l35 257l144 -22z" />
    <glyph glyph-name="uni03D0" unicode="&#x3d0;" 
d="M327 -12q-48 0 -93.5 13.5t-81.5 43.5t-58 77.5t-22 115.5v236q0 68 24 121.5t73.5 84.5t125.5 31q54 0 102 -19t78.5 -58.5t30.5 -102.5q0 -50 -23.5 -89.5t-64.5 -60.5v-4q39 -5 70.5 -30t50.5 -63.5t19 -85.5q0 -71 -31.5 -117.5t-84 -69.5t-115.5 -23zM322 115
q26 0 46.5 11t33 31.5t12.5 50.5q0 40 -21.5 68t-64.5 28q-16 0 -52.5 -8.5t-98.5 -28.5l-18 106q86 14 130.5 33.5t60 46t15.5 64.5q0 41 -22 60.5t-49 19.5q-42 0 -59.5 -37.5t-20.5 -102.5q-1 -29 -2 -56t-1.5 -52.5t-1 -49t-0.5 -45.5q0 -40 10.5 -66.5t27 -42.5
t36.5 -23t39 -7z" />
    <glyph glyph-name="theta1" unicode="&#x3d1;" 
d="M299 -12q-77 0 -125 26t-70.5 69.5t-22.5 94.5q0 34 -1 58.5t-8 46.5h139q4 -7 5.5 -21.5t2.5 -31t1 -31.5q0 -31 9.5 -51.5t28.5 -30.5t47 -10q23 0 41 10.5t31 38t19.5 76t6.5 123.5q0 89 -16 142t-44 75.5t-63 21.5q-42 -1 -65.5 -24.5t-23.5 -56.5q0 -25 11 -49
t40 -41t82.5 -20t137.5 15l-38 -96q-90 -13 -153.5 -5t-105.5 30t-65.5 52.5t-33 62t-9.5 57.5q0 55 28 99t77.5 69.5t110.5 25.5q88 0 148.5 -44t92 -124t31.5 -190q0 -90 -15.5 -158.5t-45.5 -115t-76.5 -70t-108.5 -23.5z" />
    <glyph glyph-name="phi1" unicode="&#x3d5;" 
d="M254 -8q-59 0 -111.5 30t-85 87t-32.5 139q0 83 32.5 139.5t85 86.5t111.5 30l-8 -110q-27 0 -48 -17t-32.5 -49t-11.5 -80q0 -47 11.5 -79.5t32.5 -49t48 -17.5zM346 -8l8 110q28 1 48.5 17.5t32 49t11.5 79.5q0 48 -11.5 80t-32 49t-48.5 17l-8 110q60 0 112 -30
t84.5 -86.5t32.5 -139.5q0 -82 -32.5 -139t-84.5 -87t-112 -30zM238 -177v805h124v-805h-124z" />
    <glyph glyph-name="uni03D7" unicode="&#x3d7;" 
d="M456 -188l-173 11q41 44 79.5 92t66.5 92l157 -7q-22 -35 -46.5 -71t-46.5 -66.5t-37 -50.5zM85 0v344q0 29 -2 71t-10 81h146q6 -23 7.5 -55t1.5 -67v-93h4q38 58 82.5 106.5t97.5 80t113 40.5l12 -137q-32 -7 -62 -20t-61 -35t-68 -55.5t-81 -82.5q-19 -21 -30.5 -57
t-11.5 -92v-29h-138zM420 -11q-21 27 -44 60.5t-47 74t-48 88.5l94 95q26 -50 61.5 -106.5t74.5 -109t75 -91.5z" />
    <glyph glyph-name="uni03D9" unicode="&#x3d9;" 
d="M300 -12q-66 0 -123.5 30.5t-93 88.5t-35.5 141t35.5 141t93 88.5t123.5 30.5q67 0 124 -30.5t92.5 -88.5t35.5 -141t-35.5 -141t-92.5 -88.5t-124 -30.5zM300 100q35 0 57.5 18t33.5 51t11 79q0 43 -11 75t-33.5 49t-57.5 17q-34 0 -57 -17t-34 -49t-11 -75
q0 -46 11 -79t34 -51t57 -18zM232 -177v223l138 -5q2 -29 3.5 -56t2.5 -54t2.5 -53.5t2.5 -54.5h-149z" />
    <glyph glyph-name="uni03DB" unicode="&#x3db;" 
d="M460 -186l-114 38q23 28 35.5 50t12.5 37q0 16 -6 27t-25.5 21t-59.5 20q-43 10 -83.5 28t-73.5 46t-52.5 68.5t-19.5 94.5q0 85 37.5 141t100.5 83.5t141 27.5h178v-121q-40 2 -85 2h-81q-63 0 -101.5 -30.5t-38.5 -102.5q0 -31 14 -53.5t45 -38.5t80 -27
q62 -14 96.5 -32t48.5 -44.5t14 -67.5q0 -27 -15 -73t-48 -94z" />
    <glyph glyph-name="uni03DD" unicode="&#x3dd;" 
d="M116 -177v673h411v-115h-275l2 -159h249v-97h-247q0 -75 2.5 -147t5.5 -155h-148z" />
    <glyph glyph-name="uni03E1" unicode="&#x3e1;" 
d="M534 -181l-143 17q9 50 13.5 95t4.5 90q0 88 -18.5 169t-55.5 153.5t-93.5 135.5t-132.5 113l95 108q86 -59 151 -133t109.5 -161t67 -184.5t22.5 -202.5q0 -49 -5 -99t-15 -101zM193 -23l-60 123l341 152l-5 -138q-69 -30 -135.5 -63t-140.5 -74zM101 181l-60 123
l342 151l-6 -138q-69 -29 -135.5 -62t-140.5 -74z" />
    <glyph glyph-name="uni0400" unicode="&#x400;" 
d="M92 0v652h432v-124h-284v-131h241v-123h-241v-150h294v-124h-442zM360 680l-184 119l78 95l171 -140z" />
    <glyph glyph-name="uni0401" unicode="&#x401;" 
d="M92 0v652h432v-124h-284v-131h241v-123h-241v-150h294v-124h-442zM212 700q-32 0 -52.5 21.5t-20.5 52.5t20.5 51.5t52.5 20.5t53 -20.5t21 -51.5t-21 -52.5t-53 -21.5zM434 700q-32 0 -53 21.5t-21 52.5t21 51.5t53 20.5t52.5 -20.5t20.5 -51.5t-20.5 -52.5t-52.5 -21.5
z" />
    <glyph glyph-name="uni0402" unicode="&#x402;" 
d="M415 -12q-20 0 -37.5 2.5t-31.5 7.5l23 112q6 -2 12 -3.5t12 -1.5q9 0 18 6.5t15 24.5t6 54q0 51 -21.5 75.5t-57.5 24.5q-12 0 -24.5 -2t-23.5 -5v-283h-147v528h-136v124h446v-124h-163v-128q17 3 35.5 5.5t35.5 2.5q51 0 95.5 -21.5t71.5 -69t27 -125.5t-20.5 -122.5
t-55.5 -63t-79 -18.5z" />
    <glyph glyph-name="uni0403" unicode="&#x403;" 
d="M108 0v652h429v-124h-281v-528h-148zM263 680l-65 74l171 140l78 -95z" />
    <glyph glyph-name="uni0404" unicode="&#x404;" 
d="M359 -12q-85 0 -154 35t-109.5 109.5t-40.5 189.5q0 116 42 191.5t111.5 113t154.5 37.5q63 0 113 -25.5t83 -59.5l-78 -94q-24 23 -52 37.5t-63 14.5q-48 0 -85.5 -22t-58.5 -68t-21 -119q0 -114 43 -163.5t120 -49.5q40 0 72 18t55 43l78 -92q-40 -47 -93.5 -71.5
t-116.5 -24.5zM139 274v123h292v-123h-292z" />
    <glyph glyph-name="uni0405" unicode="&#x405;" 
d="M298 -12q-66 0 -130.5 24t-117.5 70l85 101q37 -30 81.5 -49t91.5 -19t69.5 16t22.5 41q0 23 -12 36.5t-35 24t-54 23.5l-84 36q-36 14 -68 37.5t-51.5 58t-19.5 82.5q0 54 30.5 97.5t84 70t124.5 26.5q59 0 116 -22t101 -64l-75 -93q-34 25 -68 38.5t-82 13.5
q-36 0 -59 -15t-23 -44q0 -19 14 -32t38 -23t55 -22l79 -34q44 -16 75 -39.5t48 -57.5t17 -80q0 -54 -29.5 -100t-86 -74t-137.5 -28z" />
    <glyph glyph-name="uni0406" unicode="&#x406;" 
d="M74 0v124h152v404h-152v124h452v-124h-152v-404h152v-124h-452z" />
    <glyph glyph-name="uni0407" unicode="&#x407;" 
d="M74 0v124h152v404h-152v124h452v-124h-152v-404h152v-124h-452zM189 700q-32 0 -52.5 21.5t-20.5 52.5t20.5 51.5t52.5 20.5t53 -20.5t21 -51.5t-21 -52.5t-53 -21.5zM411 700q-32 0 -53 21.5t-21 52.5t21 51.5t53 20.5t52.5 -20.5t20.5 -51.5t-20.5 -52.5t-52.5 -21.5z
" />
    <glyph glyph-name="uni0408" unicode="&#x408;" 
d="M273 -12q-54 0 -112.5 24t-101.5 84l85 91q28 -35 60 -53.5t64 -18.5q50 0 75.5 26t25.5 93v295h-255v123h402v-430q0 -64 -23.5 -117t-76 -85t-143.5 -32z" />
    <glyph glyph-name="uni0409" unicode="&#x409;" 
d="M43 -12q-14 0 -28.5 2t-29.5 6l26 134q5 -1 9 -2.5t9 -1.5q8 0 13.5 7.5t11.5 34.5t14 86q14 105 19 206.5t7 191.5h260l-7 -124h-140q-2 -46 -4 -89.5t-6 -94t-11 -120.5q-9 -89 -25.5 -141t-44.5 -73.5t-73 -21.5zM257 0v652h124v-238h11q55 0 97.5 -20t67 -64.5
t24.5 -115.5q0 -79 -26.5 -125.5t-72 -67.5t-101.5 -21h-124zM381 117h8q36 0 55.5 22t19.5 73q0 43 -18.5 64t-57.5 21h-7v-180z" />
    <glyph glyph-name="uni040A" unicode="&#x40a;" 
d="M30 0v652h130v-252h113v-128h-113v-272h-130zM246 0v652h131v-238h15q55 0 97.5 -20t67 -64.5t24.5 -115.5q0 -79 -25.5 -125.5t-68.5 -67.5t-97 -21h-144zM377 117h12q32 0 49.5 20t17.5 75q0 47 -16.5 66t-51.5 19h-11v-180z" />
    <glyph glyph-name="uni040B" unicode="&#x40b;" 
d="M158 0v652h147v-252q19 3 36.5 5.5t35.5 2.5q87 0 139 -44t52 -146v-218h-144v218q0 38 -17.5 55t-54.5 17q-11 0 -23.5 -2t-23.5 -5v-283h-147zM21 528v124h446v-124h-446z" />
    <glyph glyph-name="uni040C" unicode="&#x40c;" 
d="M69 0v652h147v-255h146l232 -397h-158l-160 274h-60v-274h-147zM388 342l-127 29l89 175q23 46 48.5 71t56 36t67.5 11q14 0 28.5 -2t24.5 -7l-24 -133q-8 3 -15.5 3.5t-12.5 0.5q-15 0 -27 -5t-23 -17.5t-23 -36.5zM289 680l-65 74l171 140l78 -95z" />
    <glyph glyph-name="uni040D" unicode="&#x40d;" 
d="M64 0v652h133v-231q0 -57 -7 -121t-12 -116h3l56 144l148 324h151v-652h-133v231q0 58 7 120.5t12 115.5h-3l-56 -142l-148 -325h-151zM341 680l-184 119l78 95l171 -140z" />
    <glyph glyph-name="uni040E" unicode="&#x40e;" 
d="M179 -12q-28 0 -48 3.5t-34 9.5l26 128q9 -3 19 -5.5t30 -2.5q21 0 37.5 7t25.5 23l9 19l-221 482h156l76 -190l54 -156h4l52 156l69 190h148l-201 -504q-30 -74 -77.5 -117t-124.5 -43zM308 697q-64 0 -102 16.5t-56 46.5t-20 69l124 6q2 -30 14.5 -47t39.5 -17t40 17
t14 47l124 -6q-2 -39 -20 -69t-56 -46.5t-102 -16.5z" />
    <glyph glyph-name="uni040F" unicode="&#x40f;" 
d="M63 0v652h147v-528h180v528h147v-652h-474zM240 -188v188l134 22l-12 -210h-122z" />
    <glyph glyph-name="uni0410" unicode="&#x410;" 
d="M9 0l203 652h176l203 -652h-156l-84 330q-12 49 -26 104t-26 106h-4q-12 -51 -25 -106t-26 -104l-85 -330h-150zM143 155v115h312v-115h-312z" />
    <glyph glyph-name="uni0411" unicode="&#x411;" 
d="M74 0v652h446v-124h-299v-131h91q69 0 125.5 -17.5t90.5 -59t34 -113.5q0 -75 -33 -120.5t-88.5 -66t-124.5 -20.5h-242zM221 115h80q59 0 88 21t29 68q0 46 -30 64.5t-88 18.5h-79v-172z" />
    <glyph glyph-name="uni0412" unicode="&#x412;" 
d="M74 0v652h219q68 0 122 -14.5t85.5 -49.5t31.5 -98q0 -44 -27 -85t-85 -56v-4q70 -12 106 -49.5t36 -103.5t-33 -108.5t-89.5 -63t-127.5 -20.5h-238zM221 390h65q54 0 78 21.5t24 58.5q0 36 -24.5 51.5t-76.5 15.5h-66v-147zM221 115h79q60 0 89 22t29 66q0 43 -29 62
t-89 19h-79v-169z" />
    <glyph glyph-name="uni0413" unicode="&#x413;" 
d="M108 0v652h429v-124h-281v-528h-148z" />
    <glyph glyph-name="uni0414" unicode="&#x414;" 
d="M24 -188l-12 220v92h576v-92l-12 -220h-132v188h-288v-188h-132zM362 0v528h-85q-5 -40 -9 -68.5t-8.5 -58t-11.5 -71.5q-13 -73 -30 -128.5t-39 -93t-51 -56.5t-64 -20l-23 92q13 4 25.5 27t25 71.5t25.5 126.5q10 58 17.5 102.5t14.5 91.5t15 109h345v-652h-147z" />
    <glyph glyph-name="uni0415" unicode="&#x415;" 
d="M92 0v652h432v-124h-284v-131h241v-123h-241v-150h294v-124h-442z" />
    <glyph glyph-name="uni0416" unicode="&#x416;" 
d="M1 0l129 397h110v255h120v-255h110l129 -397h-136l-66 274h-37v-274h-120v274h-37l-66 -274h-136zM118 325l-30 150q-4 18 -10.5 29t-14.5 15.5t-17 4.5q-6 0 -11.5 -1t-10.5 -3l-22 137l22.5 4.5t24.5 2.5q30 0 55 -9.5t43.5 -34t30.5 -69.5l51 -206zM482 325l-111 20
l51 206q12 45 30.5 69.5t43 34t54.5 9.5q13 0 26 -2.5t22 -4.5l-22 -137q-5 2 -10.5 3t-11.5 1q-9 0 -17 -4.5t-14 -15.5t-11 -29z" />
    <glyph glyph-name="uni0417" unicode="&#x417;" 
d="M293 -12q-66 0 -130 22t-117 71l78 102q38 -35 80 -51.5t87 -16.5q36 0 63 10.5t42.5 30t15.5 47.5q0 41 -30.5 60t-94.5 19h-87v109h67q63 0 88.5 19.5t25.5 54.5q0 38 -28 55t-71 17q-40 0 -73 -14.5t-67 -39.5l-75 98q45 40 101.5 61.5t118.5 21.5q77 0 130 -21
t80.5 -60.5t27.5 -93.5q0 -47 -21 -84.5t-62 -56.5v-4q49 -13 81.5 -53t32.5 -99q0 -67 -34.5 -112.5t-94 -68.5t-134.5 -23z" />
    <glyph glyph-name="uni0418" unicode="&#x418;" 
d="M64 0v652h133v-231q0 -57 -7 -121t-12 -116h3l56 144l148 324h151v-652h-133v231q0 58 7 120.5t12 115.5h-3l-56 -142l-148 -325h-151z" />
    <glyph glyph-name="uni0419" unicode="&#x419;" 
d="M64 0v652h133v-231q0 -57 -7 -121t-12 -116h3l56 144l148 324h151v-652h-133v231q0 58 7 120.5t12 115.5h-3l-56 -142l-148 -325h-151zM304 697q-64 0 -102 16.5t-56 46.5t-20 69l124 6q2 -30 14.5 -47t39.5 -17t40 17t14 47l124 -6q-2 -39 -20 -69t-56 -46.5t-102 -16.5
z" />
    <glyph glyph-name="uni041A" unicode="&#x41a;" 
d="M69 0v652h147v-255h146l232 -397h-158l-160 274h-60v-274h-147zM388 342l-127 29l89 175q23 46 48.5 71t56 36t67.5 11q14 0 28.5 -2t24.5 -7l-24 -133q-8 3 -15.5 3.5t-12.5 0.5q-15 0 -27 -5t-23 -17.5t-23 -36.5z" />
    <glyph glyph-name="uni041B" unicode="&#x41b;" 
d="M71 -12q-26 0 -43 2t-33 8l26 132q7 -1 13.5 -2.5t14.5 -1.5q14 0 24.5 9t22 42.5t26.5 104.5q21 98 35 184.5t32 185.5h347v-652h-147v528h-87q-10 -69 -20 -130.5t-24 -131.5q-21 -109 -46 -169.5t-58.5 -84.5t-82.5 -24z" />
    <glyph glyph-name="uni041C" unicode="&#x41c;" 
d="M58 0v652h154l64 -231l22 -90h4l22 90l64 231h154v-652h-124v202q0 27 2 67.5t5 84.5t6.5 84t5.5 66h-3l-50 -174l-50 -157h-72l-51 157l-47 174h-3q2 -26 5.5 -66t6.5 -84t5 -84.5t2 -67.5v-202h-122z" />
    <glyph glyph-name="uni041D" unicode="&#x41d;" 
d="M64 0v652h147v-252h178v252h147v-652h-147v272h-178v-272h-147z" />
    <glyph glyph-name="uni041E" unicode="&#x41e;" 
d="M300 -12q-78 0 -137 39t-92 114.5t-33 187.5q0 109 33 183.5t92 113t137 38.5t137 -38.5t92 -113t33 -183.5q0 -112 -33 -187.5t-92 -114.5t-137 -39zM300 115q34 0 59 24.5t38.5 72t13.5 117.5q0 68 -13.5 114t-38.5 70t-59 24t-59 -24t-38.5 -70t-13.5 -114
q0 -70 13.5 -117.5t38.5 -72t59 -24.5z" />
    <glyph glyph-name="uni041F" unicode="&#x41f;" 
d="M64 0v652h472v-652h-147v528h-178v-528h-147z" />
    <glyph glyph-name="uni0420" unicode="&#x420;" 
d="M75 0v652h231q71 0 128.5 -19.5t92 -65.5t34.5 -125q0 -76 -35 -125t-93 -72.5t-127 -23.5h-84v-221h-147zM222 338h75q61 0 90.5 27t29.5 77q0 52 -30.5 72.5t-89.5 20.5h-75v-197z" />
    <glyph glyph-name="uni0421" unicode="&#x421;" 
d="M356 -12q-61 0 -115.5 21t-96.5 63.5t-66 105t-24 144.5q0 108 41.5 184.5t112 117t157.5 40.5q62 0 112 -25.5t83 -57.5l-81 -91q-23 22 -50.5 34.5t-63.5 12.5q-46 0 -82 -25.5t-57 -72.5t-21 -112q0 -67 21 -114.5t58.5 -72.5t86.5 -25q36 0 65 16t53 42l81 -89
q-40 -47 -94 -71.5t-120 -24.5z" />
    <glyph glyph-name="uni0422" unicode="&#x422;" 
d="M226 0v528h-195v124h538v-124h-195v-528h-148z" />
    <glyph glyph-name="uni0423" unicode="&#x423;" 
d="M179 -12q-28 0 -48 3.5t-34 9.5l26 128q9 -3 19 -5.5t30 -2.5q21 0 37.5 7t25.5 23l9 19l-221 482h156l76 -190l54 -156h4l52 156l69 190h148l-201 -504q-30 -74 -77.5 -117t-124.5 -43z" />
    <glyph glyph-name="uni0424" unicode="&#x424;" 
d="M295 75q-133 0 -206 63.5t-73 190.5t73 188.5t206 61.5h10q133 0 206 -61.5t73 -188.5t-73 -190.5t-206 -63.5h-10zM283 184h34q70 0 103.5 35.5t33.5 109.5t-33.5 107.5t-103.5 33.5h-34q-69 0 -103 -33.5t-34 -107.5t34 -109.5t103 -35.5zM242 -12v676h116v-676h-116z
" />
    <glyph glyph-name="uni0425" unicode="&#x425;" 
d="M18 0l190 335l-179 317h165l63 -123q11 -22 23 -48t27 -57h4q11 31 22 57t22 48l58 123h158l-179 -324l190 -328h-164l-71 133q-13 26 -25.5 51.5t-26.5 55.5h-4q-12 -30 -24 -55.5t-24 -51.5l-68 -133h-157z" />
    <glyph glyph-name="uni0426" unicode="&#x426;" 
d="M64 0v652h147v-528h173v528h147v-652h-467zM471 -188v188h-27v124h162v-92l-13 -220h-122z" />
    <glyph glyph-name="uni0427" unicode="&#x427;" 
d="M392 0v264q-22 -4 -44.5 -5.5t-55.5 -1.5q-77 0 -132 22.5t-85 75.5t-30 141v156h144v-156q0 -45 12.5 -72t39 -38.5t67.5 -11.5q29 0 49 2t35 5v271h148v-652h-148z" />
    <glyph glyph-name="uni0428" unicode="&#x428;" 
d="M30 0v652h131v-528h79v528h120v-528h79v528h131v-652h-540z" />
    <glyph glyph-name="uni0429" unicode="&#x429;" 
d="M29 0v652h126v-528h75v528h116v-528h75v528h126v-652h-518zM479 -188v188h-17v124h144v-92l-12 -220h-115z" />
    <glyph glyph-name="uni042A" unicode="&#x42a;" 
d="M166 0v528h-140v124h287v-238h27q62 0 114 -21t83.5 -65t31.5 -115q0 -78 -30 -125t-80.5 -67.5t-113.5 -20.5h-179zM313 117h23q45 0 69.5 22t24.5 72q0 43 -24.5 64.5t-74.5 21.5h-18v-180z" />
    <glyph glyph-name="uni042B" unicode="&#x42b;" 
d="M34 0v652h131v-238h16q58 0 104 -20t72 -64.5t26 -116.5q0 -78 -27 -125t-73.5 -67.5t-104.5 -20.5h-144zM165 117h13q39 0 60 22t21 72q0 44 -20 65t-62 21h-12v-180zM435 0v652h131v-652h-131z" />
    <glyph glyph-name="uni042C" unicode="&#x42c;" 
d="M74 0v652h147v-238h86q73 0 131 -20t91 -64.5t33 -116.5q0 -78 -34.5 -125t-93 -67.5t-130.5 -20.5h-230zM221 117h74q58 0 90.5 22t32.5 72q0 44 -30.5 65t-92.5 21h-74v-180z" />
    <glyph glyph-name="uni042D" unicode="&#x42d;" 
d="M249 -12q-65 0 -119.5 24.5t-98.5 71.5l78 92q26 -25 60.5 -43t77.5 -18q70 0 111 50t41 163q0 109 -41 159t-115 50q-36 0 -66 -14t-58 -38l-78 94q36 34 91 59.5t119 25.5q83 0 149.5 -37.5t105.5 -113t39 -191.5q0 -115 -40.5 -189.5t-107.5 -109.5t-148 -35zM169 274
v123h292v-123h-292z" />
    <glyph glyph-name="uni042E" unicode="&#x42e;" 
d="M31 0v652h133v-252h126v-128h-126v-272h-133zM386 -12q-79 0 -126.5 83t-47.5 258q0 176 47.5 255.5t126.5 79.5q93 0 143.5 -79.5t50.5 -255.5q0 -175 -50.5 -258t-143.5 -83zM386 115q17 0 28.5 18.5t17.5 65t6 130.5t-6 129t-17.5 62t-28.5 17t-28.5 -17t-17.5 -62
t-6 -129t6 -130.5t17.5 -65t28.5 -18.5z" />
    <glyph glyph-name="uni042F" unicode="&#x42f;" 
d="M384 0v235h-91q-67 0 -123.5 22.5t-90.5 69.5t-34 122q0 77 34 121.5t91 63t126 18.5h235v-652h-147zM308 352h76v183h-76q-58 0 -88.5 -19t-30.5 -67t30.5 -72.5t88.5 -24.5zM3 0l230 351l100 -78l-161 -273h-169z" />
    <glyph glyph-name="uni0430" unicode="&#x430;" 
d="M224 -12q-50 0 -86.5 20t-56.5 54t-20 76q0 83 75.5 127t251.5 54q-3 23 -15 39t-34.5 24.5t-56.5 8.5q-24 0 -48 -5.5t-49.5 -16t-53.5 -24.5l-52 96q34 20 71.5 35t78 23.5t82.5 8.5q70 0 120 -24.5t77 -74t27 -125.5v-284h-120l-11 56h-4q-37 -28 -82 -48t-94 -20z
M271 102q33 0 62 13.5t55 33.5v82q-73 -4 -113.5 -15t-56.5 -28t-16 -39q0 -15 8.5 -26t24 -16t36.5 -5z" />
    <glyph glyph-name="uni0431" unicode="&#x431;" 
d="M307 -12q-79 0 -134.5 38.5t-84 110.5t-28.5 173q0 89 14.5 152.5t42.5 106t66.5 69t87 41t104.5 22.5q30 4 51 8t37 9t32 12l28 -128q-19 -15 -51 -23.5t-67 -13.5q-53 -7 -89.5 -15t-59.5 -23t-35 -44.5t-16.5 -79t-4.5 -128.5q0 -56 12.5 -93t36.5 -56t57 -19
q28 0 47 16.5t28.5 46.5t9.5 72q0 44 -10.5 71t-30 38.5t-45.5 11.5q-27 0 -54.5 -13.5t-50.5 -48.5l-7 94q26 38 67.5 57t88.5 19q52 0 96 -25.5t70.5 -76.5t26.5 -127q0 -77 -30.5 -134t-83.5 -88.5t-121 -31.5z" />
    <glyph glyph-name="uni0432" unicode="&#x432;" 
d="M84 0v496h234q58 0 105.5 -12t76 -40.5t28.5 -78.5q0 -31 -19.5 -60.5t-64.5 -41.5v-4q31 -8 54.5 -22.5t36 -37.5t12.5 -56q0 -51 -29.5 -82.5t-78.5 -46t-108 -14.5h-247zM228 303h81q42 0 60 12t18 35q0 22 -17.5 34.5t-59.5 12.5h-82v-94zM228 99h94q45 0 63.5 15
t18.5 39q0 22 -20 36.5t-63 14.5h-93v-105z" />
    <glyph glyph-name="uni0433" unicode="&#x433;" 
d="M116 0v496h411v-115h-264v-381h-147z" />
    <glyph glyph-name="uni0434" unicode="&#x434;" 
d="M356 0v381h-110l-13 -115q-7 -63 -22 -107.5t-37.5 -72.5t-51 -41.5t-62.5 -14.5l-11 85q11 7 21.5 23t19 53.5t17.5 107.5l23 197h373v-496h-147zM31 -172l-13 191v96h564v-96l-14 -191h-126v172h-284v-172h-127z" />
    <glyph glyph-name="uni0435" unicode="&#x435;" 
d="M330 -12q-77 0 -139.5 30.5t-99 89t-36.5 140.5q0 81 37 139.5t96 89.5t125 31q77 0 129 -31.5t78.5 -85t26.5 -121.5q0 -20 -2.5 -38.5t-4.5 -27.5h-376v99h277l-23 -28q0 60 -25.5 90.5t-74.5 30.5q-36 0 -63 -16t-42 -49t-15 -83q0 -51 18 -83.5t52 -48.5t82 -16
q34 0 64.5 9t63.5 26l49 -89q-43 -27 -95 -42.5t-102 -15.5z" />
    <glyph glyph-name="uni0436" unicode="&#x436;" 
d="M2 0l128 303h114v193h112v-193h114l128 -303h-135l-65 204h-42v-204h-112v204h-42l-65 -204h-135zM123 242l-29 85q-9 26 -20.5 34t-26.5 8q-5 0 -10 -1t-10 -3l-18 137q8 4 17 5t19 1q45 0 79 -20.5t54 -79.5l51 -148zM477 242l-106 18l51 148q21 59 54.5 79.5
t78.5 20.5q11 0 19.5 -1t16.5 -5l-18 -137q-4 2 -9.5 3t-10.5 1q-14 0 -26 -8t-21 -34z" />
    <glyph glyph-name="uni0437" unicode="&#x437;" 
d="M279 -12q-61 0 -116.5 15t-114.5 57l57 93q41 -28 82.5 -40.5t76.5 -12.5q71 0 101.5 14.5t30.5 41.5q0 26 -22.5 37t-68.5 11h-120v99h111q41 0 62 12t21 35q0 22 -24.5 34t-87.5 12q-43 0 -79.5 -10t-76.5 -37l-54 95q50 34 104.5 49t115.5 15q73 0 127.5 -14.5t85 -46
t30.5 -81.5q0 -30 -18.5 -59.5t-69.5 -43.5v-4q55 -13 81.5 -40t26.5 -78q0 -50 -34.5 -84t-93 -51.5t-133.5 -17.5z" />
    <glyph glyph-name="uni0438" unicode="&#x438;" 
d="M73 0v496h142v-138q0 -37 -4 -83.5t-8 -92.5h3q12 23 29.5 52.5t28.5 51.5l129 210h134v-496h-142v138q0 37 4.5 83.5t8.5 92.5h-4q-12 -22 -28.5 -52.5t-28.5 -51.5l-130 -210h-134z" />
    <glyph glyph-name="uni0439" unicode="&#x439;" 
d="M73 0v496h142v-138q0 -37 -4 -83.5t-8 -92.5h3q12 23 29.5 52.5t28.5 51.5l129 210h134v-496h-142v138q0 37 4.5 83.5t8.5 92.5h-4q-12 -22 -28.5 -52.5t-28.5 -51.5l-130 -210h-134zM318 572q-57 0 -95 19t-57 54.5t-20 84.5l114 6q1 -28 6.5 -47t18 -29t33.5 -10
q22 0 34 10t17.5 29t6.5 47l114 -6q-1 -49 -20 -84.5t-57 -54.5t-95 -19z" />
    <glyph glyph-name="uni043A" unicode="&#x43a;" 
d="M77 0v496h147v-183h152l206 -313h-161l-118 198h-79v-198h-147zM398 233l-122 27l72 144q21 42 43.5 64.5t50.5 31t63 8.5q27 0 48 -9l-23 -135q-6 2 -12.5 3.5t-14.5 1.5q-18 0 -32.5 -9t-30.5 -41z" />
    <glyph glyph-name="uni043B" unicode="&#x43b;" 
d="M73 -12q-17 0 -31 2.5t-28 8.5l24 132q6 -1 12.5 -2.5t12.5 -1.5q21 0 35 17t19 57q10 73 18 147l16 148h374v-496h-147v381h-111q-6 -54 -12.5 -110t-14.5 -111q-13 -83 -54 -127.5t-113 -44.5z" />
    <glyph glyph-name="uni043C" unicode="&#x43c;" 
d="M37 0v496h169l59 -170q9 -30 18 -57t17 -54h4q9 27 18.5 54t17.5 57l55 170h168v-496h-131v127q0 27 3 66.5t6.5 79.5t6.5 68h-4q-10 -32 -24 -69.5t-25 -69.5l-54 -159h-81l-57 159q-11 32 -24 70t-24 69h-4q2 -28 6 -68t7 -79.5t3 -66.5v-127h-130z" />
    <glyph glyph-name="uni043D" unicode="&#x43d;" 
d="M72 0v496h147v-179h162v179h147v-496h-147v189h-162v-189h-147z" />
    <glyph glyph-name="uni043E" unicode="&#x43e;" 
d="M300 -12q-65 0 -123 30.5t-94 89t-36 140.5t36 140.5t94 89t123 30.5t123 -30.5t94 -89t36 -140.5t-36 -140.5t-94 -89t-123 -30.5zM300 107q34 0 56.5 17t34 49t11.5 75t-11.5 75t-34 49t-56.5 17t-56.5 -17t-34 -49t-11.5 -75t11.5 -75t34 -49t56.5 -17z" />
    <glyph glyph-name="uni043F" unicode="&#x43f;" 
d="M72 0v496h456v-496h-147v381h-162v-381h-147z" />
    <glyph glyph-name="uni0440" unicode="&#x440;" 
d="M72 -184v680h120l11 -50h3q31 27 69.5 44.5t78.5 17.5q62 0 106.5 -31t68.5 -88t24 -133q0 -85 -30.5 -145t-79.5 -91.5t-105 -31.5q-33 0 -64.5 14t-57.5 40h-4l7 -81v-145h-147zM304 108q28 0 50 15t35 47.5t13 83.5q0 45 -10 74.5t-29.5 44.5t-51.5 15
q-24 0 -46.5 -10.5t-45.5 -35.5v-201q21 -17 43.5 -25t41.5 -8z" />
    <glyph glyph-name="uni0441" unicode="&#x441;" 
d="M343 -12q-78 0 -140.5 30.5t-99 89t-36.5 140.5t40 140.5t105.5 89t141.5 30.5q59 0 107 -18.5t79 -48.5l-68 -91q-29 20 -55.5 29.5t-54.5 9.5q-42 0 -75 -17t-51 -49t-18 -75t17.5 -75t49 -49t72.5 -17q39 0 71.5 14t59.5 33l59 -93q-44 -37 -98.5 -55t-105.5 -18z" />
    <glyph glyph-name="uni0442" unicode="&#x442;" 
d="M226 0v381h-176v115h500v-115h-176v-381h-148z" />
    <glyph glyph-name="uni0443" unicode="&#x443;" 
d="M143 -194q-22 0 -41 3t-35 7l26 112q10 -3 20 -4.5t19 -1.5q43 0 67.5 18.5t36.5 46.5l10 26l-215 483h146l83 -213q14 -35 26 -72.5t24 -76.5h4q10 37 22 75t23 74l73 213h139l-196 -501q-23 -62 -53.5 -104t-73 -63.5t-105.5 -21.5z" />
    <glyph glyph-name="uni0444" unicode="&#x444;" 
d="M238 -184v127l5 75q-16 -11 -35 -20.5t-40 -9.5q-67 0 -106.5 69.5t-39.5 190.5q0 81 21 139t54.5 89.5t70.5 31.5q25 0 42.5 -8.5t32.5 -18.5l-5 72v147h124v-147l-5 -76q18 12 40 21.5t45 9.5q62 0 99 -68.5t37 -183.5q0 -85 -21 -145t-55 -91.5t-73 -31.5q-19 0 -37 8
t-35 19l5 -72v-127h-124zM209 108q10 0 18 5.5t16 16.5v239q-8 9 -17.5 14t-20.5 5q-15 0 -27.5 -15t-20 -45.5t-7.5 -78.5q0 -72 15.5 -106.5t43.5 -34.5zM392 108q17 0 30.5 15t20.5 47.5t7 83.5q0 45 -5.5 74.5t-17.5 44.5t-32 15q-9 0 -18.5 -5.5t-19.5 -15.5v-239
q9 -10 18 -15t17 -5z" />
    </font>
</defs>
</svg>
